<svg width="13" height="13" viewBox="0 0 13 13" fill="none" xmlns="http://www.w3.org/2000/svg">
<g clip-path="url(#clip0_994_173)">
<path d="M2.10812 0.355512C2.17014 0.411802 2.2289 0.470887 2.28744 0.530767C2.31165 0.555172 2.31165 0.555172 2.33634 0.58007C2.38735 0.631521 2.43818 0.683139 2.48898 0.734785C2.53981 0.786318 2.59067 0.837811 2.64161 0.889227C2.67312 0.921034 2.70455 0.952909 2.7359 0.984866C2.80694 1.05672 2.87882 1.12562 2.95605 1.1908C3.11419 1.32861 3.26033 1.479 3.40835 1.62747C3.44189 1.66102 3.47544 1.69457 3.509 1.72811C3.59959 1.81869 3.6901 1.90935 3.78059 2.00002C3.87536 2.09495 3.9702 2.1898 4.06504 2.28467C4.24439 2.4641 4.42367 2.64359 4.60294 2.82311C4.80712 3.02758 5.01137 3.23197 5.21563 3.43635C5.6356 3.85659 6.05549 4.27692 6.47531 4.69731C6.59948 4.59391 6.71607 4.48541 6.82983 4.37072C6.8467 4.35382 6.86357 4.33691 6.88096 4.31949C6.93707 4.26325 6.99309 4.20691 7.04911 4.15057C7.08949 4.11006 7.12988 4.06955 7.17027 4.02905C7.25706 3.94201 7.34381 3.85493 7.43054 3.76783C7.5678 3.62998 7.70518 3.49226 7.84259 3.35456C8.03533 3.1614 8.22806 2.96823 8.42073 2.775C8.43905 2.75664 8.43905 2.75664 8.45773 2.7379C8.65556 2.53952 8.85328 2.34104 9.05098 2.14253C9.25438 1.9383 9.45794 1.73422 9.66161 1.53026C9.79812 1.39354 9.93447 1.25666 10.0707 1.11966C10.1556 1.03431 10.2407 0.949116 10.3259 0.86397C10.3652 0.824601 10.4044 0.785167 10.4436 0.745662C10.7971 0.389324 11.1178 0.0976402 11.6423 0.0936715C11.9576 0.0931616 12.1891 0.164816 12.4421 0.355512C12.4641 0.370175 12.4861 0.384838 12.5088 0.399946C12.7405 0.619535 12.8829 0.927207 12.9043 1.24438C12.9101 1.63305 12.8062 1.9458 12.5385 2.22814C12.4442 2.32477 12.3484 2.41978 12.2524 2.51468C12.2094 2.55772 12.1663 2.60078 12.1233 2.64388C12.019 2.74823 11.9144 2.8523 11.8096 2.95623C11.6876 3.07729 11.566 3.19872 11.4444 3.32017C11.2276 3.5367 11.0105 3.75294 10.7933 3.96901C10.5823 4.17877 10.3715 4.38866 10.1609 4.59874C10.1479 4.61171 10.1349 4.62468 10.1215 4.63805C10.0563 4.70313 9.99103 4.76821 9.92579 4.8333C9.38541 5.37236 8.84457 5.91096 8.30343 6.44926C8.34854 6.54583 8.40465 6.60758 8.48041 6.6833C8.49337 6.69632 8.50634 6.70935 8.51969 6.72277C8.56315 6.76637 8.60679 6.80979 8.65043 6.85321C8.68164 6.88445 8.71284 6.91569 8.74402 6.94695C8.8288 7.03185 8.91373 7.11658 8.99869 7.20129C9.08767 7.29004 9.17651 7.37892 9.26537 7.46779C9.41474 7.61714 9.56421 7.76639 9.71374 7.91558C9.88632 8.08776 10.0588 8.26007 10.2311 8.43246C10.4149 8.61622 10.5987 8.79989 10.7826 8.98352C10.8354 9.03629 10.8882 9.08908 10.941 9.14187C11.0243 9.22511 11.1076 9.30828 11.191 9.3914C11.2215 9.4218 11.2519 9.45223 11.2824 9.48268C11.4232 9.6236 11.5641 9.76314 11.7157 9.8927C11.7676 9.93722 11.8167 9.98413 11.8654 10.0321C11.8841 10.0505 11.9028 10.0689 11.9221 10.0879C11.9416 10.1072 11.9611 10.1265 11.9812 10.1464C12.0019 10.1669 12.0226 10.1874 12.044 10.2085C12.0875 10.2517 12.1309 10.2948 12.1743 10.3381C12.2184 10.3819 12.2626 10.4255 12.3069 10.4691C12.3716 10.5327 12.4359 10.5966 12.5001 10.6605C12.5197 10.6796 12.5392 10.6987 12.5594 10.7184C12.8478 11.008 13.0088 11.3202 13.0134 11.7305C13.0095 12.079 12.9094 12.3442 12.668 12.5994C12.3945 12.858 12.0722 12.9514 11.7013 12.9487C11.2987 12.9284 10.9764 12.7704 10.696 12.4849C10.6778 12.4668 10.6597 12.4488 10.641 12.4301C10.5808 12.3701 10.521 12.3098 10.4612 12.2494C10.4179 12.2061 10.3746 12.1628 10.3313 12.1196C10.2263 12.0146 10.1215 11.9094 10.0168 11.804C9.89493 11.6814 9.77273 11.5591 9.65052 11.4367C9.43262 11.2186 9.21494 11.0003 8.99741 10.7818C8.78621 10.5696 8.57491 10.3576 8.36346 10.1457C8.35041 10.1327 8.33736 10.1196 8.32391 10.1061C8.25841 10.0405 8.19291 9.97484 8.12742 9.90922C7.58485 9.3656 7.04266 8.82161 6.5007 8.27739C6.37503 8.38269 6.25711 8.49226 6.14187 8.6088C6.12453 8.62622 6.1072 8.64364 6.08933 8.66159C6.03165 8.7196 5.97405 8.77769 5.91645 8.83578C5.87494 8.87754 5.83343 8.9193 5.79191 8.96105C5.70267 9.0508 5.61347 9.14058 5.52428 9.23038C5.38309 9.37253 5.24173 9.51451 5.10033 9.65644C5.07619 9.68068 5.05205 9.70491 5.02791 9.72915C4.99133 9.76587 4.95475 9.80259 4.91817 9.8393C4.7805 9.9775 4.64285 10.1157 4.50522 10.2539C4.49265 10.2666 4.48008 10.2792 4.46713 10.2922C4.26359 10.4966 4.06028 10.7013 3.85705 10.906C3.6479 11.1167 3.43846 11.3271 3.22876 11.5372C3.11123 11.655 2.99384 11.773 2.87678 11.8912C2.76661 12.0026 2.65609 12.1135 2.54529 12.2242C2.50484 12.2647 2.46452 12.3054 2.42435 12.3462C2.09639 12.679 1.80331 12.926 1.31537 12.9335C0.931711 12.9328 0.617317 12.8929 0.326909 12.6183C0.0527071 12.3288 -0.0149569 12.015 -0.00723595 11.6282C0.0193234 11.0412 0.561726 10.6324 0.947857 10.2473C0.988928 10.2062 1.02999 10.1651 1.07105 10.1241C1.18167 10.0134 1.29236 9.9029 1.40307 9.79237C1.51907 9.67652 1.635 9.5606 1.75095 9.44469C1.94527 9.25043 2.13964 9.05622 2.33405 8.86204C2.53414 8.66219 2.7342 8.4623 2.93423 8.26239C2.94659 8.25003 2.95896 8.23767 2.9717 8.22494C3.03374 8.16293 3.09578 8.10092 3.15781 8.03892C3.67112 7.52588 4.18451 7.01293 4.69796 6.50004C4.59269 6.37439 4.48313 6.25654 4.36656 6.14139C4.34913 6.12407 4.33171 6.10675 4.31376 6.0889C4.25576 6.03128 4.19767 5.97374 4.13958 5.9162C4.09781 5.87473 4.05605 5.83326 4.0143 5.79178C3.92455 5.70263 3.83477 5.61351 3.74497 5.52441C3.60281 5.38332 3.46084 5.24206 3.31891 5.10075C3.29467 5.07662 3.27044 5.0525 3.2462 5.02837C3.19715 4.97954 3.1481 4.9307 3.09906 4.88187C2.97319 4.75655 2.84732 4.63124 2.72142 4.50596C2.70248 4.48711 2.70248 4.48711 2.68316 4.46789C2.47876 4.26449 2.27409 4.06137 2.06932 3.85835C1.85859 3.64939 1.6482 3.4401 1.43812 3.23049C1.32035 3.11303 1.20242 2.99573 1.08411 2.87881C0.972745 2.76876 0.86181 2.6583 0.75118 2.54751C0.710672 2.50709 0.670012 2.46682 0.629187 2.42672C0.298507 2.10166 0.0581071 1.79516 0.0419584 1.3156C0.0475972 0.961052 0.183607 0.635288 0.432339 0.380903C0.935822 -0.0289084 1.59841 -0.0540023 2.10812 0.355512Z" fill="white"/>
</g>
<defs>
<clipPath id="clip0_994_173">
<rect width="13" height="13" fill="white"/>
</clipPath>
</defs>
</svg>
