<svg width="18" height="18" viewBox="0 0 18 18" fill="none" xmlns="http://www.w3.org/2000/svg">
<g clip-path="url(#clip0_1279_1913)">
<path d="M10.8632 1.5449C10.9105 1.59197 10.9572 1.63969 11.0038 1.68745C11.0264 1.7093 11.049 1.73114 11.0722 1.75364C11.2731 1.96204 11.4061 2.22275 11.5481 2.47265C11.6279 2.61274 11.7086 2.75225 11.7893 2.89183C11.8574 3.00974 11.9253 3.12773 11.9933 3.24573C12.1189 3.46361 12.2457 3.68082 12.3727 3.8979C12.5633 4.2238 12.7512 4.55122 12.9381 4.87923C13.1209 5.20001 13.3059 5.51953 13.4923 5.83824C13.7087 6.20822 13.9226 6.57958 14.1365 6.95097C14.2465 7.14183 14.3566 7.3326 14.4667 7.52339C14.5106 7.59956 14.5546 7.67573 14.5985 7.75191C14.6203 7.78961 14.642 7.82732 14.6645 7.86616C16.4442 10.9511 16.4442 10.9511 16.5102 11.0655C16.554 11.1414 16.5978 11.2173 16.6416 11.2932C16.7537 11.4875 16.8658 11.6819 16.9778 11.8763C17.0005 11.9157 17.0231 11.955 17.0465 11.9956C17.0914 12.0735 17.1362 12.1514 17.181 12.2294C17.2762 12.3946 17.3717 12.5595 17.4709 12.7224C17.9251 13.4696 18.1581 14.2761 17.9472 15.1523C17.8097 15.5837 17.6026 15.9772 17.2968 16.3125C17.2786 16.3338 17.2604 16.3552 17.2417 16.3773C16.7562 16.9126 16.0273 17.1458 15.328 17.1914C15.1537 17.1962 14.9794 17.1963 14.8051 17.1961C14.753 17.1961 14.7008 17.1962 14.6487 17.1963C14.5065 17.1965 14.3642 17.1965 14.2219 17.1965C14.0681 17.1965 13.9143 17.1967 13.7605 17.1968C13.4595 17.1971 13.1585 17.1972 12.8574 17.1972C12.6126 17.1972 12.3678 17.1973 12.1229 17.1974C11.4279 17.1977 10.7328 17.1979 10.0378 17.1979C10.0003 17.1979 9.96292 17.1979 9.92435 17.1979C9.88688 17.1979 9.84941 17.1979 9.8108 17.1979C9.20377 17.1979 8.59675 17.1982 7.98973 17.1987C7.36557 17.1992 6.7414 17.1994 6.11723 17.1994C5.76717 17.1994 5.4171 17.1995 5.06704 17.1999C4.76894 17.2002 4.47084 17.2003 4.17273 17.2C4.02086 17.1999 3.86898 17.1999 3.7171 17.2002C3.57765 17.2005 3.43821 17.2004 3.29876 17.2001C3.24872 17.2001 3.19869 17.2001 3.14865 17.2003C2.88207 17.2013 2.61957 17.1904 2.3548 17.1606C2.31848 17.1566 2.31848 17.1566 2.28143 17.1526C1.734 17.0849 1.25349 16.8107 0.843657 16.4531C0.82204 16.4348 0.800423 16.4166 0.778151 16.3977C0.309733 15.9702 0.0175357 15.2991 -0.0113544 14.6741C-0.0394999 13.6569 0.379312 12.9646 0.879242 12.1082C0.99109 11.9162 1.1019 11.7237 1.2128 11.5312C1.25669 11.4551 1.30059 11.379 1.3445 11.303C1.4329 11.1497 1.52124 10.9965 1.60954 10.8432C1.82126 10.4757 2.03358 10.1087 2.24771 9.74263C2.42614 9.43756 2.60226 9.13122 2.77725 8.82417C2.97202 8.48241 3.16867 8.14183 3.36729 7.80229C3.58365 7.43231 3.79761 7.06095 4.01155 6.68956C4.12151 6.4987 4.23161 6.30793 4.3417 6.11714C4.38565 6.04097 4.42959 5.9648 4.47354 5.88862C4.73721 5.43159 5.00088 4.97456 5.26456 4.51753C5.28631 4.47982 5.30807 4.44211 5.33048 4.40326C5.3744 4.32714 5.41831 4.25102 5.46223 4.17491C5.5726 3.98364 5.68291 3.79235 5.79313 3.601C5.90255 3.41105 6.01221 3.22125 6.12192 3.03147C6.18863 2.91581 6.25498 2.79994 6.3213 2.68405C6.36455 2.60893 6.40781 2.53381 6.45108 2.45869C6.47046 2.42463 6.48983 2.39057 6.5098 2.35547C6.92774 1.63257 7.5215 1.123 8.32699 0.884214C8.41071 0.866218 8.49302 0.853704 8.57803 0.843702C8.60608 0.83908 8.63414 0.834457 8.66304 0.829695C9.44839 0.722763 10.2944 0.996901 10.8632 1.5449ZM7.73428 2.49605C7.64647 2.61685 7.57174 2.74358 7.4982 2.87348C7.44499 2.96726 7.39087 3.06048 7.33671 3.15371C7.23434 3.33024 7.13249 3.50706 7.03088 3.68403C6.90824 3.8976 6.78514 4.11089 6.66202 4.32417C6.61807 4.40034 6.57412 4.47651 6.53018 4.55269C6.13467 5.23823 6.13467 5.23823 5.73916 5.92378C5.71741 5.96149 5.69565 5.9992 5.67324 6.03806C5.62932 6.11417 5.58541 6.19029 5.54149 6.2664C5.43112 6.45767 5.32081 6.64897 5.21058 6.84031C4.99886 7.20776 4.78655 7.57482 4.57242 7.94087C4.39399 8.24594 4.21786 8.55227 4.04288 8.85933C3.84811 9.20109 3.65145 9.54167 3.45283 9.88121C3.23647 10.2512 3.02251 10.6225 2.80858 10.9939C2.72053 11.1468 2.63239 11.2995 2.54425 11.4523C2.50038 11.5283 2.45652 11.6043 2.41267 11.6804C2.30204 11.8722 2.19132 12.0639 2.08044 12.2556C1.97059 12.4455 1.86106 12.6357 1.75169 12.8259C1.70864 12.9006 1.66546 12.9753 1.62216 13.0499C1.5594 13.158 1.49703 13.2663 1.43472 13.3747C1.41613 13.4065 1.39755 13.4383 1.3784 13.4711C1.1052 13.949 1.00783 14.3721 1.14468 14.9172C1.28979 15.3721 1.60515 15.6795 2.00381 15.9257C2.24509 16.0451 2.49538 16.0707 2.76156 16.071C2.82926 16.0712 2.82926 16.0712 2.89832 16.0714C2.94797 16.0714 2.99762 16.0713 3.04726 16.0713C3.10034 16.0714 3.15342 16.0715 3.20651 16.0716C3.35211 16.0719 3.49771 16.072 3.64331 16.072C3.80045 16.072 3.95759 16.0723 4.11474 16.0726C4.45824 16.073 4.80175 16.0732 5.14526 16.0734C5.35987 16.0735 5.57447 16.0736 5.78908 16.0738C6.3836 16.0742 6.97812 16.0746 7.57264 16.0747C7.61067 16.0747 7.6487 16.0747 7.68789 16.0747C7.74508 16.0747 7.74508 16.0747 7.80342 16.0748C7.88066 16.0748 7.95791 16.0748 8.03516 16.0748C8.07348 16.0748 8.1118 16.0748 8.15128 16.0748C8.7719 16.075 9.39253 16.0756 10.0132 16.0764C10.6508 16.0772 11.2884 16.0777 11.926 16.0777C12.2839 16.0777 12.6417 16.0779 12.9995 16.0786C13.3043 16.0791 13.609 16.0793 13.9138 16.079C14.0691 16.0789 14.2245 16.0789 14.3798 16.0794C14.5223 16.0799 14.6648 16.0798 14.8073 16.0794C14.8586 16.0793 14.9099 16.0794 14.9611 16.0797C15.4449 16.0825 15.8763 16.0365 16.2773 15.75C16.3084 15.7296 16.3396 15.7093 16.3717 15.6884C16.6725 15.3958 16.8925 14.9763 16.916 14.5541C16.9162 14.5166 16.9164 14.479 16.9167 14.4404C16.9172 14.4032 16.9177 14.3661 16.9182 14.3278C16.9011 14.0658 16.8353 13.8491 16.7079 13.6208C16.6943 13.5957 16.6806 13.5705 16.6665 13.5446C16.5045 13.2495 16.3332 12.9595 16.1626 12.6692C16.0304 12.4444 15.8999 12.2186 15.7697 11.9926C15.7478 11.9547 15.7259 11.9167 15.7034 11.8776C15.659 11.8006 15.6147 11.7236 15.5703 11.6466C15.4603 11.4557 15.3502 11.265 15.2401 11.0742C15.1962 10.998 15.1522 10.9218 15.1083 10.8457C15.0866 10.8079 15.0648 10.7702 15.0424 10.7314C11.6806 4.90425 11.6806 4.90425 11.6146 4.78991C11.5708 4.714 11.527 4.63808 11.4832 4.56217C11.3711 4.36785 11.259 4.17349 11.147 3.97906C11.037 3.78804 10.9268 3.59719 10.8164 3.40638C10.7627 3.31336 10.7095 3.22012 10.6564 3.1268C10.3419 2.57744 10.0372 2.17128 9.41217 1.96431C8.78139 1.8162 8.16529 2.01508 7.73428 2.49605Z" fill="#FDB651"/>
<path d="M8.99991 0.808594C8.99991 1.16824 8.99991 1.52789 8.99991 1.89844C9.02311 1.91004 9.04631 1.92164 9.07022 1.93359C9.03786 1.93581 9.0055 1.93803 8.97217 1.94032C8.51626 1.98443 8.07653 2.13453 7.76944 2.49609C7.68277 2.61719 7.60766 2.74366 7.53392 2.87296C7.48034 2.96689 7.42604 3.06039 7.37173 3.1539C7.26942 3.33039 7.16761 3.50717 7.06603 3.68408C6.9434 3.89764 6.82029 4.11093 6.69717 4.32422C6.65322 4.40039 6.60928 4.47656 6.56534 4.55273C6.16983 5.23828 6.16983 5.23828 5.77432 5.92383C5.75257 5.96154 5.73081 5.99925 5.70839 6.0381C5.66448 6.11422 5.62056 6.19033 5.57664 6.26645C5.46628 6.45772 5.35596 6.64901 5.24574 6.84036C5.03402 7.20781 4.8217 7.57487 4.60757 7.94092C4.42915 8.24599 4.25302 8.55232 4.07803 8.85937C3.88327 9.20113 3.68661 9.54172 3.48799 9.88126C3.27163 10.2512 3.05767 10.6226 2.84373 10.994C2.75569 11.1468 2.66755 11.2996 2.5794 11.4523C2.53554 11.5284 2.49168 11.6044 2.44782 11.6804C2.33719 11.8722 2.22648 12.064 2.1156 12.2557C2.00575 12.4456 1.89621 12.6357 1.78685 12.8259C1.74379 12.9007 1.70061 12.9753 1.65731 13.0499C1.59455 13.158 1.53218 13.2664 1.46988 13.3748C1.45129 13.4066 1.4327 13.4384 1.41356 13.4711C1.14036 13.9491 1.04298 14.3722 1.17984 14.9172C1.24248 15.116 1.331 15.2705 1.4593 15.434C1.51163 15.5039 1.51163 15.5039 1.54678 15.6094C1.60967 15.6458 1.60967 15.6458 1.68741 15.6797C1.78359 15.7413 1.87875 15.8043 1.97388 15.8676C2.23358 16.0184 2.51149 16.0364 2.80633 16.0368C2.84627 16.0371 2.84627 16.0371 2.88701 16.0373C2.97564 16.0379 3.06427 16.0382 3.15291 16.0385C3.21667 16.0388 3.28044 16.0392 3.34421 16.0395C3.51692 16.0405 3.68963 16.0412 3.86234 16.0419C4.04298 16.0427 4.22362 16.0436 4.40427 16.0446C4.74616 16.0463 5.08805 16.0479 5.42995 16.0494C5.81926 16.0512 6.20857 16.0531 6.59788 16.0551C7.39855 16.0591 8.19923 16.0628 8.99991 16.0664C8.99991 16.4377 8.99991 16.8089 8.99991 17.1914C8.18514 17.193 7.37038 17.1943 6.55562 17.195C6.17726 17.1954 5.7989 17.1959 5.42054 17.1967C5.09052 17.1974 4.7605 17.1979 4.43049 17.198C4.25596 17.1981 4.08144 17.1983 3.90691 17.1988C3.74218 17.1993 3.57744 17.1995 3.4127 17.1994C3.35269 17.1994 3.29268 17.1995 3.23267 17.1998C2.93606 17.2011 2.64356 17.1941 2.34861 17.1607C2.31285 17.1567 2.31285 17.1567 2.27637 17.1526C1.7312 17.0836 1.25189 16.8094 0.843657 16.4531C0.82204 16.4349 0.800423 16.4166 0.778151 16.3978C0.309733 15.9703 0.0175357 15.2991 -0.0113544 14.6742C-0.0394999 13.657 0.379312 12.9646 0.879242 12.1082C0.99109 11.9163 1.1019 11.7237 1.2128 11.5312C1.25669 11.4552 1.30059 11.3791 1.3445 11.303C1.4329 11.1498 1.52124 10.9965 1.60954 10.8432C1.82126 10.4758 2.03358 10.1087 2.24771 9.74267C2.42614 9.4376 2.60226 9.13127 2.77725 8.82422C2.97202 8.48246 3.16867 8.14187 3.36729 7.80233C3.58365 7.43235 3.79761 7.061 4.01155 6.68961C4.12151 6.49875 4.23161 6.30797 4.3417 6.11719C4.38565 6.04102 4.42959 5.96484 4.47354 5.88867C4.73721 5.43164 5.00088 4.97461 5.26456 4.51758C5.28631 4.47987 5.30807 4.44216 5.33048 4.4033C5.3744 4.32719 5.41831 4.25107 5.46223 4.17496C5.5726 3.98369 5.68291 3.79239 5.79313 3.60104C5.90255 3.4111 6.01221 3.2213 6.12192 3.03152C6.18863 2.91585 6.25498 2.79998 6.3213 2.6841C6.36455 2.60897 6.40781 2.53385 6.45108 2.45874C6.47046 2.42468 6.48983 2.39061 6.5098 2.35552C6.92774 1.63262 7.5215 1.12305 8.32699 0.884262C8.5443 0.837548 8.77746 0.808594 8.99991 0.808594Z" fill="#FDB651"/>
<path d="M9.4573 4.77005C9.69158 4.92502 9.83116 5.1104 9.91419 5.37897C9.93407 5.54714 9.93311 5.71462 9.93183 5.88371C9.93196 5.9341 9.93215 5.98449 9.9324 6.03489C9.93289 6.17094 9.9325 6.30698 9.93192 6.44303C9.93143 6.58593 9.93166 6.72882 9.93179 6.87172C9.93188 7.11165 9.93141 7.35158 9.93059 7.59152C9.92966 7.86821 9.92959 8.14488 9.93001 8.42157C9.93039 8.68859 9.93017 8.95561 9.92967 9.22263C9.92947 9.33587 9.92947 9.44911 9.92964 9.56235C9.92981 9.69593 9.92945 9.8295 9.92869 9.96308C9.9285 10.0119 9.92848 10.0606 9.92865 10.1094C9.92986 10.4893 9.91026 10.8343 9.63541 11.1178C9.4061 11.3129 9.18614 11.3827 8.88601 11.3678C8.61993 11.3342 8.44439 11.1894 8.26185 11.004C8.0497 10.7282 8.0754 10.3765 8.07529 10.0462C8.07502 9.9958 8.07473 9.94541 8.07441 9.89502C8.07364 9.75883 8.07333 9.62263 8.07315 9.48643C8.07302 9.40118 8.0728 9.31593 8.07255 9.23067C8.07169 8.93279 8.07123 8.63492 8.0711 8.33704C8.07098 8.06009 8.06993 7.78315 8.06845 7.50621C8.06723 7.26779 8.06669 7.02938 8.06667 6.79096C8.06664 6.64884 8.06633 6.50674 8.06533 6.36463C8.06441 6.2309 8.06433 6.0972 8.0649 5.96347C8.06496 5.91463 8.06473 5.8658 8.06416 5.81696C8.06036 5.46575 8.10938 5.20493 8.34205 4.93402C8.36779 4.91263 8.39353 4.89124 8.42005 4.8692C8.44579 4.84709 8.47153 4.82497 8.49805 4.80218C8.77606 4.60796 9.16093 4.61453 9.4573 4.77005Z" fill="#FDB651"/>
<path d="M9.03516 4.67578C9.36054 4.69862 9.54034 4.81109 9.75311 5.0522C9.93589 5.31777 9.92921 5.56153 9.92771 5.87567C9.92785 5.92605 9.92804 5.97643 9.92827 6.02681C9.92875 6.16316 9.92856 6.2995 9.92823 6.43584C9.92796 6.57893 9.92821 6.72201 9.92838 6.86509C9.92857 7.10545 9.92832 7.3458 9.92781 7.58615C9.92724 7.86336 9.92742 8.14056 9.92801 8.41776C9.92849 8.65633 9.92855 8.89489 9.92828 9.13345C9.92811 9.27568 9.92809 9.41791 9.92844 9.56014C9.92874 9.69401 9.92853 9.82787 9.92792 9.96173C9.92778 10.0106 9.92782 10.0595 9.92805 10.1084C9.92974 10.4969 9.90763 10.8309 9.62897 11.1201C9.48739 11.247 9.37378 11.3167 9.17798 11.3291C9.14245 11.3262 9.10692 11.3233 9.07031 11.3203C9.07528 11.2965 9.08024 11.2726 9.08535 11.2481C9.1435 10.9409 9.15085 10.6399 9.15028 10.3285C9.15043 10.2724 9.15062 10.2163 9.15083 10.1602C9.15129 10.0089 9.15132 9.8577 9.15123 9.70647C9.15119 9.57971 9.15136 9.45295 9.15153 9.32619C9.15192 9.02692 9.15194 8.72765 9.15172 8.42838C9.15151 8.12072 9.15194 7.81306 9.15269 7.5054C9.15331 7.2402 9.15352 6.975 9.15341 6.7098C9.15334 6.55187 9.15343 6.39394 9.15393 6.23601C9.15437 6.08742 9.1543 5.93885 9.15384 5.79026C9.15376 5.73608 9.15385 5.68191 9.15414 5.62773C9.1558 5.29764 9.12556 4.99477 9.03516 4.67578Z" fill="#FDB651"/>
<path d="M9.62165 12.6805C9.8321 12.8758 9.88753 13.0506 9.89851 13.3375C9.88999 13.6134 9.83726 13.8274 9.63484 14.0229C9.41945 14.193 9.19699 14.2882 8.91702 14.2673C8.6595 14.2278 8.43875 14.1272 8.27432 13.9196C8.1019 13.6514 8.09312 13.3898 8.12092 13.0782C8.19294 12.8486 8.34608 12.6844 8.54279 12.5509C8.90073 12.3675 9.3111 12.4379 9.62165 12.6805Z" fill="#FDB651"/>
<path d="M9.07031 12.4805C9.32646 12.4817 9.48461 12.5472 9.66797 12.7266C9.8687 12.9622 9.89769 13.1669 9.89072 13.4692C9.87104 13.6963 9.79953 13.8639 9.63501 14.0228C9.44256 14.1748 9.28385 14.2498 9.03516 14.2383C9.04603 14.2093 9.05691 14.1803 9.06812 14.1504C9.14363 13.9016 9.14741 13.6503 9.14722 13.3923C9.14724 13.3603 9.14726 13.3282 9.14729 13.2952C9.14515 13.0189 9.11714 12.7527 9.07031 12.4805Z" fill="#FDB651"/>
</g>
<defs>
<clipPath id="clip0_1279_1913">
<rect width="18" height="18" fill="white"/>
</clipPath>
</defs>
</svg>
