<svg width="17" height="17" viewBox="0 0 17 17" fill="none" xmlns="http://www.w3.org/2000/svg">
<g clip-path="url(#clip0_1026_209)">
<path d="M8.01254 1.2348C8.28803 1.46071 8.44096 1.71671 8.50021 2.0711C8.53705 2.44658 8.41213 2.76246 8.20138 3.06719C8.09261 3.19413 7.97509 3.31172 7.85644 3.42932C7.82175 3.46419 7.7871 3.49908 7.75247 3.534C7.65905 3.62802 7.56522 3.72162 7.47129 3.81512C7.37248 3.9136 7.27399 4.01241 7.17544 4.11116C7.00986 4.27698 6.84401 4.44252 6.67799 4.60791C6.48695 4.79823 6.29639 4.98902 6.10607 5.18006C5.94186 5.34488 5.77738 5.50944 5.61269 5.67378C5.51469 5.77158 5.41677 5.86946 5.3191 5.96759C5.22709 6.05998 5.13475 6.15204 5.04217 6.24386C5.00856 6.2773 4.97506 6.31084 4.94168 6.34452C4.65386 6.63465 4.35239 6.87067 3.98459 7.05157C4.00982 7.0516 4.03506 7.05163 4.06106 7.05167C5.55691 7.0536 7.05275 7.05605 8.54859 7.05917C8.72822 7.05955 8.90784 7.05992 9.08746 7.06028C9.12322 7.06036 9.15898 7.06043 9.19582 7.06051C9.77478 7.06168 10.3537 7.06251 10.9327 7.0632C11.5268 7.06393 12.1209 7.06502 12.715 7.06647C13.0815 7.06735 13.4481 7.06794 13.8146 7.06815C14.066 7.06832 14.3174 7.06886 14.5688 7.06969C14.7138 7.07015 14.8589 7.07046 15.0039 7.07033C15.1368 7.07022 15.2697 7.07056 15.4026 7.07127C15.4505 7.07144 15.4985 7.07145 15.5464 7.07127C15.988 7.0698 16.3402 7.13389 16.6674 7.44625C16.9479 7.74999 17.0168 8.03995 17.0094 8.44429C16.9936 8.78394 16.8018 9.05897 16.5582 9.28448C16.3354 9.46616 16.0828 9.54572 15.799 9.54641C15.7567 9.54659 15.7143 9.54677 15.6706 9.54696C15.6235 9.547 15.5764 9.54703 15.5293 9.54706C15.4794 9.54721 15.4294 9.54737 15.3794 9.54755C15.2419 9.54801 15.1044 9.54825 14.9669 9.54846C14.8187 9.54873 14.6705 9.54918 14.5223 9.54962C14.2655 9.55034 14.0086 9.55094 13.7518 9.55146C13.3805 9.55222 13.0091 9.55315 12.6378 9.55413C12.0353 9.55571 11.4329 9.55715 10.8304 9.55849C10.2451 9.5598 9.65985 9.56118 9.07456 9.56264C9.03849 9.56274 9.00242 9.56283 8.96527 9.56292C8.78434 9.56337 8.60341 9.56383 8.42248 9.56429C6.92105 9.56807 5.41962 9.57162 3.91818 9.57501C3.94521 9.58816 3.97224 9.60131 4.00009 9.61487C4.03572 9.6324 4.07135 9.64994 4.10806 9.668C4.14331 9.68526 4.17855 9.70253 4.21487 9.72031C4.73959 9.99835 5.17006 10.5227 5.58442 10.9381C5.672 11.0259 5.75976 11.1134 5.84753 11.201C5.90398 11.2575 5.96042 11.3139 6.01685 11.3704C6.05567 11.4092 6.05567 11.4092 6.09526 11.4486C6.20689 11.5607 6.3159 11.6733 6.41861 11.7936C6.56336 11.9615 6.7223 12.1151 6.88048 12.2701C6.95657 12.3448 7.03233 12.4198 7.10812 12.4948C7.2486 12.6337 7.38921 12.7726 7.53037 12.9109C7.62917 13.0077 7.72755 13.1049 7.82568 13.2024C7.86283 13.2392 7.90013 13.2758 7.93759 13.3123C8.25595 13.6223 8.49074 13.937 8.51059 14.3978C8.50124 14.7168 8.41374 15.0111 8.20138 15.2527C7.92003 15.5181 7.59111 15.6296 7.21061 15.625C6.78643 15.5967 6.49203 15.3516 6.20325 15.0607C6.17764 15.0353 6.15204 15.0099 6.12566 14.9837C6.04055 14.8991 5.9558 14.8142 5.87105 14.7293C5.80985 14.6684 5.74863 14.6074 5.68739 14.5465C5.53873 14.3986 5.39035 14.2503 5.24208 14.102C5.12148 13.9813 5.0008 13.8608 4.88006 13.7403C4.84519 13.7055 4.81032 13.6707 4.77545 13.6359C4.75809 13.6186 4.74074 13.6013 4.72285 13.5834C4.39511 13.2563 4.06769 12.9288 3.74037 12.6013C3.44137 12.3021 3.14192 12.0034 2.84228 11.7048C2.53406 11.3977 2.22616 11.0903 1.91858 10.7826C1.74611 10.61 1.57351 10.4376 1.40059 10.2655C1.23797 10.1037 1.07578 9.94138 0.913878 9.7788C0.854514 9.71933 0.79501 9.65999 0.735352 9.60081C0.653696 9.51976 0.572573 9.43821 0.491558 9.35652C0.468054 9.33343 0.44455 9.31034 0.420334 9.28655C0.115439 8.97622 -0.0123891 8.66625 -0.0122068 8.23693C-0.00439275 7.90092 0.104749 7.66863 0.335942 7.42485C0.353207 7.40642 0.370472 7.38798 0.38826 7.36898C0.635116 7.10722 0.89033 6.85353 1.14464 6.59906C1.20212 6.54142 1.2596 6.48378 1.31706 6.42613C1.47194 6.27082 1.62693 6.11562 1.78195 5.96045C1.87895 5.86336 1.97592 5.76624 2.07289 5.66913C2.3421 5.39952 2.61133 5.12994 2.88069 4.86047C2.90641 4.83474 2.90641 4.83474 2.93266 4.80848C2.95844 4.78268 2.95844 4.78268 2.98475 4.75637C3.01957 4.72153 3.05439 4.68669 3.08921 4.65186C3.10649 4.63458 3.12376 4.6173 3.14155 4.5995C3.42202 4.31889 3.70227 4.03807 3.98242 3.75714C4.27097 3.46781 4.5597 3.17867 4.84861 2.88971C5.01047 2.72783 5.17225 2.56586 5.33381 2.40369C5.48558 2.25136 5.6376 2.09928 5.78979 1.94738C5.84549 1.89171 5.90111 1.83595 5.95663 1.7801C6.03261 1.7037 6.10889 1.62761 6.18525 1.55159C6.20698 1.5296 6.2287 1.50761 6.25109 1.48495C6.7395 1.00167 7.41319 0.810592 8.01254 1.2348Z" fill="white"/>
</g>
<defs>
<clipPath id="clip0_1026_209">
<rect width="17" height="17" fill="white"/>
</clipPath>
</defs>
</svg>
