<svg width="83" height="47" viewBox="0 0 83 47" fill="none" xmlns="http://www.w3.org/2000/svg">
<g clip-path="url(#clip0_1279_1493)">
<path d="M69.4071 14.4525C69.5044 14.4695 69.6021 14.4837 69.6999 14.4974C69.8262 14.5203 69.9368 14.5757 70.0518 14.6308C70.0792 14.6439 70.1066 14.657 70.134 14.6701C70.1477 14.6767 70.1615 14.6833 70.1757 14.69C70.2871 14.7423 70.4002 14.7784 70.5185 14.8128C70.7056 14.8705 70.8684 14.9861 71.0324 15.0903C71.0449 15.0983 71.0574 15.1062 71.0703 15.1143C71.2316 15.2171 71.2316 15.2171 71.291 15.2627C71.291 15.277 71.291 15.2912 71.291 15.3058C71.3067 15.3111 71.3223 15.3163 71.3384 15.3218C71.4062 15.3523 71.4484 15.3884 71.5025 15.4392C71.567 15.4991 71.6316 15.5579 71.6991 15.6143C71.8562 15.7516 72.0053 15.9074 72.1092 16.0891C72.1331 16.1303 72.1331 16.1303 72.184 16.1773C72.2805 16.2737 72.3529 16.3899 72.4117 16.5127C72.5182 16.502 72.6002 16.4832 72.6918 16.4265C72.6989 16.4052 72.7061 16.3838 72.7134 16.3618C72.7232 16.3522 72.7331 16.3426 72.7432 16.3326C72.7877 16.2874 72.8111 16.2391 72.84 16.1827C72.949 15.9784 73.1116 15.8129 73.2953 15.6722C73.3095 15.6722 73.3237 15.6722 73.3384 15.6722C73.3384 15.658 73.3384 15.6438 73.3384 15.6291C73.3539 15.6202 73.3695 15.6113 73.3855 15.6022C73.4457 15.5647 73.4768 15.5262 73.5199 15.4712C73.5773 15.4103 73.6472 15.3676 73.7163 15.3212C73.7612 15.29 73.7997 15.2582 73.8394 15.221C73.9208 15.1483 74.0153 15.0981 74.111 15.0468C74.1756 15.0116 74.2296 14.9759 74.2853 14.9275C74.3612 14.8669 74.43 14.8393 74.521 14.8088C74.6151 14.7757 74.7064 14.7434 74.7944 14.6957C74.8714 14.6579 74.9349 14.6481 75.0193 14.6378C75.0265 14.6235 75.0336 14.6093 75.0409 14.5947C75.1176 14.546 75.2054 14.5302 75.2928 14.5098C75.3864 14.4873 75.4784 14.465 75.5689 14.4317C75.8914 14.3217 76.2209 14.3248 76.5575 14.3266C76.5824 14.3267 76.6073 14.3267 76.633 14.3268C76.9926 14.3279 77.34 14.3399 77.6917 14.4223C77.7088 14.426 77.726 14.4298 77.7437 14.4338C77.8422 14.4557 77.9394 14.4808 78.0365 14.5085C78.0569 14.514 78.0773 14.5195 78.0984 14.5252C78.2028 14.5546 78.2988 14.5929 78.3971 14.6386C78.447 14.6598 78.4961 14.6746 78.5483 14.6889C78.6864 14.7287 78.8127 14.7904 78.9416 14.8533C78.9617 14.863 78.9617 14.863 78.9822 14.8729C79.5859 15.1656 79.5859 15.1656 79.7821 15.3489C79.8135 15.3683 79.8135 15.3683 79.8454 15.388C79.9229 15.4433 79.9772 15.5074 80.0389 15.5794C80.0944 15.6408 80.1554 15.693 80.2185 15.7465C80.2666 15.7891 80.3044 15.8361 80.3424 15.8877C80.3856 15.9434 80.4279 15.9948 80.4785 16.044C80.5431 16.1101 80.598 16.1807 80.6538 16.2543C80.6871 16.2988 80.6871 16.2988 80.7304 16.3403C80.7484 16.3673 80.7659 16.3947 80.7829 16.4225C80.7925 16.4378 80.8022 16.4532 80.8121 16.4691C80.8381 16.5127 80.8381 16.5127 80.8651 16.5706C80.9071 16.6262 80.9381 16.6409 80.9997 16.6716C81.0811 16.714 81.1176 16.7447 81.1469 16.8355C81.1647 16.889 81.1894 16.9367 81.2153 16.9868C81.2468 17.049 81.2767 17.1108 81.3028 17.1754C81.3309 17.2459 81.3309 17.2459 81.3755 17.302C81.4825 17.4771 81.5173 17.6952 81.5693 17.892C81.5948 17.9873 81.6207 18.0825 81.6476 18.1775C81.6519 18.1932 81.6562 18.2089 81.6605 18.225C81.683 18.3031 81.7014 18.357 81.7648 18.4092C81.7802 18.4447 81.7944 18.4807 81.8079 18.5169C81.846 18.6095 81.846 18.6095 81.917 18.6753C81.9588 18.7109 81.9588 18.7109 81.9705 18.7627C81.9709 18.7833 81.9714 18.8039 81.9718 18.825C81.9729 18.8602 81.9729 18.8602 81.974 18.8961C81.9745 18.9343 81.9745 18.9343 81.9751 18.9734C81.9758 19 81.9766 19.0267 81.9773 19.0541C81.9792 19.1255 81.9808 19.1969 81.9822 19.2683C81.9841 19.3666 81.9866 19.4649 81.9892 19.5631C81.9905 19.6152 81.9917 19.6673 81.9926 19.7194C81.9957 19.8521 82.0016 19.9839 82.0118 20.1162C82.0401 20.4811 82.0511 20.8431 82.0504 21.2091C82.0505 21.2669 82.0506 21.3246 82.0506 21.3824C82.0508 21.5066 82.0508 21.6309 82.0507 21.7551C82.0505 21.9399 82.0506 22.1246 82.0507 22.3094C82.051 22.6395 82.051 22.9696 82.0508 23.2996C82.0507 23.5882 82.0507 23.8768 82.0507 24.1654C82.0507 24.1942 82.0507 24.1942 82.0507 24.2236C82.0508 24.3016 82.0508 24.3795 82.0508 24.4575C82.0509 25.1871 82.0508 25.9167 82.0506 26.6463C82.0504 27.2943 82.0504 27.9423 82.0506 28.5902C82.0508 29.3193 82.0509 30.0483 82.0508 30.7773C82.0508 30.855 82.0508 30.9327 82.0507 31.0103C82.0507 31.0295 82.0507 31.0486 82.0507 31.0683C82.0507 31.357 82.0507 31.6457 82.0508 31.9344C82.051 32.2623 82.0509 32.5902 82.0507 32.9181C82.0506 33.1016 82.0506 33.2851 82.0507 33.4686C82.0508 33.5911 82.0508 33.7137 82.0506 33.8362C82.0505 33.906 82.0505 33.9758 82.0506 34.0456C82.0507 34.1208 82.0506 34.196 82.0504 34.2712C82.0505 34.2929 82.0506 34.3146 82.0507 34.3369C82.0501 34.4584 82.0407 34.5646 82.0019 34.6802C81.9493 34.7058 81.9493 34.7058 81.8941 34.7233C81.8719 34.7588 81.8503 34.7947 81.8295 34.8311C81.8148 34.8382 81.8001 34.8453 81.785 34.8526C81.7262 34.883 81.7224 34.9212 81.7002 34.9819C81.6899 34.9919 81.6796 35.002 81.6691 35.0123C81.6314 35.0508 81.6157 35.0835 81.5953 35.1332C81.5882 35.1499 81.5811 35.1666 81.5738 35.1838C81.5594 35.2187 81.545 35.2535 81.5307 35.2884C81.4849 35.3962 81.4375 35.4796 81.3553 35.5638C81.3411 35.5638 81.3269 35.5638 81.3122 35.5638C81.3076 35.5757 81.303 35.5875 81.2983 35.5997C81.2593 35.667 81.2055 35.7135 81.1479 35.7645C81.1362 35.775 81.1245 35.7856 81.1124 35.7964C81.0785 35.8268 81.0446 35.8569 81.0105 35.8871C80.9957 35.9002 80.981 35.9134 80.9657 35.927C80.9395 35.9502 80.913 35.9732 80.8864 35.996C80.847 36.0302 80.8082 36.065 80.7696 36.1C80.6146 36.2391 80.469 36.3403 80.2778 36.4258C80.2488 36.4405 80.2199 36.4553 80.1911 36.4703C80.176 36.4781 80.1609 36.4859 80.1454 36.4939C80.1161 36.5091 80.0868 36.5244 80.0576 36.5398C79.87 36.6353 79.6937 36.6496 79.4858 36.6562C79.462 36.6572 79.4382 36.6582 79.4137 36.6592C79.3038 36.6632 79.1975 36.663 79.0879 36.6524C78.9015 36.636 78.7151 36.6382 78.5282 36.6385C78.488 36.6385 78.4479 36.6384 78.4077 36.6384C78.3236 36.6384 78.2395 36.6384 78.1554 36.6385C78.0496 36.6387 77.9438 36.6386 77.8379 36.6385C77.4597 36.6381 77.0816 36.6382 76.7036 36.6509C76.6788 36.6518 76.6539 36.6526 76.6283 36.6535C76.5358 36.6571 76.4446 36.6611 76.3531 36.6751C76.2909 36.6844 76.2909 36.6844 76.2397 36.6737C76.1832 36.6215 76.1871 36.5643 76.1831 36.4905C76.1902 36.4834 76.1973 36.4763 76.2046 36.4689C76.2082 36.3935 76.2082 36.3935 76.2046 36.3181C76.1975 36.311 76.1904 36.3039 76.1831 36.2965C76.178 36.1443 76.178 36.1443 76.1939 36.081C76.2097 35.9862 76.2073 35.8927 76.2068 35.7968C76.2067 35.7747 76.2067 35.7526 76.2067 35.7299C76.2066 35.6821 76.2064 35.6343 76.2063 35.5866C76.206 35.511 76.2059 35.4355 76.2057 35.36C76.2055 35.1999 76.2051 35.0397 76.2046 34.8795C76.2041 34.6937 76.2037 34.5079 76.2034 34.322C76.2033 34.2474 76.203 34.1728 76.2028 34.0982C76.2027 34.0528 76.2026 34.0074 76.2025 33.962C76.2024 33.9411 76.2023 33.9201 76.2022 33.8986C76.2022 33.8797 76.2022 33.8608 76.2022 33.8413C76.2022 33.8248 76.2021 33.8082 76.2021 33.7912C76.2046 33.7535 76.2046 33.7535 76.2262 33.732C76.2283 33.6998 76.2289 33.6675 76.2289 33.6352C76.229 33.6143 76.2291 33.5934 76.2291 33.5718C76.2291 33.5487 76.229 33.5256 76.229 33.5017C76.229 33.4775 76.2291 33.4533 76.2291 33.4284C76.2292 33.3478 76.2291 33.2673 76.2291 33.1868C76.2291 33.131 76.2291 33.0753 76.2291 33.0195C76.2292 32.9024 76.2291 32.7853 76.229 32.6682C76.2289 32.5329 76.2289 32.3976 76.229 32.2623C76.2292 32.1321 76.2291 32.002 76.2291 31.8719C76.2291 31.8165 76.2291 31.7611 76.2291 31.7057C76.2292 31.6283 76.2291 31.5509 76.229 31.4734C76.229 31.4505 76.2291 31.4275 76.2291 31.4039C76.2291 31.3827 76.229 31.3616 76.2289 31.3398C76.2289 31.3215 76.2289 31.3031 76.2289 31.2843C76.2276 31.232 76.2276 31.232 76.2154 31.1818C76.2047 31.1245 76.2019 31.0728 76.2019 31.0146C76.2018 30.982 76.2018 30.982 76.2017 30.9488C76.2017 30.9251 76.2017 30.9014 76.2018 30.877C76.2017 30.839 76.2017 30.839 76.2016 30.8003C76.2015 30.7301 76.2015 30.66 76.2015 30.5898C76.2015 30.5141 76.2014 30.4384 76.2013 30.3628C76.2011 30.2145 76.2011 30.0663 76.201 29.9181C76.201 29.7977 76.201 29.6772 76.2009 29.5568C76.2007 29.2155 76.2006 28.8742 76.2007 28.5329C76.2007 28.5053 76.2007 28.5053 76.2007 28.4771C76.2007 28.4495 76.2007 28.4495 76.2007 28.4213C76.2007 28.1225 76.2005 27.8237 76.2002 27.5249C76.1998 27.2182 76.1997 26.9115 76.1997 26.6049C76.1997 26.4326 76.1997 26.2604 76.1994 26.0882C76.1992 25.9416 76.1992 25.795 76.1993 25.6484C76.1994 25.5736 76.1994 25.4988 76.1992 25.424C76.1991 25.343 76.1992 25.262 76.1993 25.181C76.1992 25.1572 76.1991 25.1334 76.199 25.1089C76.1991 25.0873 76.1992 25.0657 76.1993 25.0434C76.1993 25.0153 76.1993 25.0153 76.1993 24.9867C76.2046 24.9391 76.2046 24.9391 76.2478 24.8745C76.2335 24.8674 76.2193 24.8603 76.2046 24.8529C76.2037 24.8027 76.2038 24.7524 76.2046 24.7021C76.2118 24.695 76.2189 24.6879 76.2262 24.6805C76.2286 24.6422 76.2295 24.6037 76.2298 24.5653C76.23 24.5403 76.2302 24.5153 76.2305 24.4896C76.2306 24.4619 76.2308 24.4343 76.231 24.4058C76.2312 24.3765 76.2315 24.3473 76.2317 24.3181C76.2324 24.2384 76.2329 24.1588 76.2334 24.0792C76.234 23.9961 76.2347 23.9129 76.2353 23.8297C76.2363 23.69 76.2373 23.5503 76.2382 23.4106C76.2393 23.2489 76.2405 23.0873 76.2418 22.9256C76.2429 22.787 76.2439 22.6484 76.2449 22.5098C76.2454 22.4269 76.246 22.344 76.2467 22.2612C76.2473 22.1833 76.2478 22.1053 76.2483 22.0274C76.2486 21.9851 76.2489 21.9427 76.2493 21.9004C76.2494 21.8753 76.2495 21.8502 76.2497 21.8244C76.2499 21.7916 76.2499 21.7916 76.2501 21.7582C76.2512 21.7062 76.2512 21.7062 76.2262 21.6634C76.2247 21.6324 76.2244 21.6014 76.2249 21.5704C76.225 21.5521 76.2252 21.5339 76.2254 21.5151C76.2256 21.496 76.2259 21.477 76.2262 21.4573C76.2267 21.4196 76.2272 21.3818 76.2275 21.3441C76.2279 21.3189 76.2279 21.3189 76.2283 21.2933C76.2306 21.2535 76.2306 21.2535 76.2046 21.2324C76.2018 21.1913 76.2003 21.1501 76.1993 21.1089C76.1987 21.0832 76.198 21.0576 76.1973 21.0312C76.1966 21.0038 76.1959 20.9764 76.1952 20.9482C76.1873 20.6854 76.179 20.4282 76.0969 20.1764C76.0938 20.1595 76.0907 20.1426 76.0875 20.1252C76.0835 20.1136 76.0795 20.1021 76.0753 20.0902C76.054 20.0831 76.0327 20.0759 76.0107 20.0686C75.9758 20.0315 75.9452 19.9921 75.9137 19.9521C75.8811 19.912 75.8811 19.912 75.8167 19.8962C75.7803 19.8608 75.7445 19.8248 75.709 19.7885C75.6925 19.7765 75.6761 19.7645 75.6591 19.7521C75.6471 19.7428 75.6351 19.7334 75.6228 19.7238C75.6228 19.7096 75.6228 19.6954 75.6228 19.6807C75.5941 19.6774 75.5941 19.6774 75.5649 19.674C75.488 19.6633 75.4139 19.6454 75.3386 19.6268C75.2255 19.6 75.1169 19.5852 75.0009 19.5796C74.9443 19.574 74.8952 19.5641 74.8402 19.5511C74.6956 19.5211 74.5504 19.5242 74.4034 19.5254C74.355 19.5258 74.3066 19.5258 74.2582 19.5258C74.0528 19.5183 74.0528 19.5183 73.8583 19.5716C73.8125 19.5945 73.8125 19.5945 73.7398 19.6107C73.6406 19.6449 73.6033 19.691 73.5323 19.7669C73.5181 19.7669 73.5039 19.7669 73.4892 19.7669C73.4821 19.7882 73.475 19.8096 73.4677 19.8316C73.4368 19.8516 73.406 19.8716 73.3748 19.8912C73.2839 19.9575 73.2095 20.0512 73.166 20.1548C73.166 20.1762 73.166 20.1975 73.166 20.2195C73.1446 20.2301 73.1446 20.2301 73.1229 20.241C73.1114 20.2865 73.1114 20.2865 73.106 20.3419C73.1034 20.3633 73.1009 20.3847 73.0982 20.4068C73.0957 20.4294 73.0931 20.4521 73.0905 20.4754C73.088 20.4965 73.0855 20.5177 73.0829 20.5395C73.0776 20.5845 73.0724 20.6296 73.0675 20.6746C73.0611 20.7319 73.0545 20.7891 73.0476 20.8463C73.0168 21.1089 73.0056 21.3694 73.0017 21.6337C73.0013 21.6572 73.0009 21.6807 73.0005 21.7049C72.9867 22.5294 72.9912 23.3543 72.992 24.1789C72.9922 24.4311 72.9923 24.6832 72.9924 24.9353C72.9926 25.3873 72.9928 25.8393 72.9931 26.2913C72.9931 26.3182 72.9931 26.345 72.9932 26.3727C72.9933 26.59 72.9935 26.8073 72.9936 27.0247C72.9937 27.2134 72.9939 27.4021 72.994 27.5909C72.994 27.6307 72.994 27.6307 72.994 27.6714C72.9943 28.121 72.9946 28.5707 72.9947 29.0204C72.9948 29.2707 72.9949 29.5211 72.9952 29.7715C72.9962 30.7621 72.9949 31.7527 72.9847 32.7433C72.984 32.8091 72.9834 32.875 72.9828 32.9409C72.9818 33.0432 72.9806 33.1456 72.9794 33.248C72.979 33.2852 72.9786 33.3225 72.9782 33.3597C72.9765 33.533 72.9741 33.7052 72.9554 33.8777C72.9469 33.9606 72.9443 34.0438 72.9412 34.127C72.9396 34.1642 72.938 34.2013 72.9364 34.2384C72.934 34.2956 72.9316 34.3528 72.9295 34.4099C72.9089 34.9507 72.7815 35.3256 72.3901 35.7147C72.3631 35.7421 72.3631 35.7421 72.3355 35.77C72.3175 35.7882 72.2995 35.8064 72.281 35.8251C72.254 35.8525 72.254 35.8525 72.2264 35.8805C72.1072 35.9948 72.1072 35.9948 72.0238 35.9948C72.0238 36.009 72.0238 36.0233 72.0238 36.0379C71.9936 36.0643 71.9936 36.0643 71.951 36.0945C71.858 36.1616 71.7695 36.2334 71.6811 36.3065C71.6358 36.3396 71.6358 36.3396 71.5927 36.3396C71.5856 36.361 71.5785 36.3823 71.5712 36.4043C71.5227 36.4366 71.5227 36.4366 71.4634 36.4689C71.4479 36.4796 71.4323 36.4903 71.4163 36.5013C71.1214 36.6586 70.7674 36.6496 70.4426 36.655C70.3744 36.6561 70.3063 36.6577 70.2382 36.6592C70.0202 36.6637 69.8045 36.6627 69.5869 36.6488C69.3924 36.6371 69.1986 36.6442 69.0039 36.6508C68.9487 36.6525 68.8935 36.6542 68.8383 36.6558C68.8045 36.6568 68.7706 36.6579 68.7368 36.6591C68.6575 36.6616 68.5785 36.6628 68.4992 36.6619C68.4369 36.6616 68.3773 36.6649 68.3156 36.6733C68.1813 36.6909 68.0471 36.6909 67.9118 36.692C67.8783 36.6924 67.8449 36.6929 67.8114 36.6938C67.7625 36.6949 67.7137 36.6954 67.6649 36.6957C67.6427 36.6965 67.6427 36.6965 67.62 36.6972C67.5399 36.6969 67.4867 36.6841 67.4237 36.6364C67.3656 36.5733 67.3529 36.5552 67.3561 36.4719C67.3565 36.4528 67.3569 36.4337 67.3574 36.414C67.3585 36.3944 67.3595 36.3747 67.3607 36.3544C67.3612 36.3344 67.3618 36.3143 67.3624 36.2936C67.3639 36.2443 67.3661 36.195 67.3687 36.1457C67.383 36.1457 67.3972 36.1457 67.4118 36.1457C67.4123 35.9511 67.4127 35.7566 67.413 35.5621C67.4131 35.4716 67.4132 35.3812 67.4135 35.2908C67.4145 34.8975 67.4127 34.5046 67.4023 34.1115C67.4019 34.0944 67.4015 34.0774 67.401 34.0598C67.3998 34.0123 67.3985 33.9647 67.3971 33.9171C67.3963 33.8901 67.3955 33.8631 67.3947 33.8353C67.397 33.7771 67.397 33.7771 67.3687 33.7535C67.3667 33.717 67.3662 33.6804 67.3663 33.6439C67.3663 33.6201 67.3663 33.5964 67.3663 33.5719C67.3664 33.5456 67.3665 33.5193 67.3666 33.4922C67.3667 33.45 67.3667 33.4078 67.3668 33.3656C67.3668 33.3201 67.367 33.2746 67.3671 33.229C67.3674 33.1343 67.3675 33.0396 67.3676 32.9449C67.3679 32.7268 67.3684 32.5087 67.3688 32.2906C67.3693 32.0907 67.3697 31.8909 67.3699 31.691C67.37 31.5968 67.3702 31.5025 67.3705 31.4083C67.3706 31.3638 67.3707 31.3194 67.3707 31.2749C67.3708 31.2206 67.3709 31.1663 67.3712 31.1119C67.3712 31.0882 67.3712 31.0644 67.3712 31.04C67.3712 31.0192 67.3713 30.9984 67.3713 30.977C67.374 30.9308 67.374 30.9308 67.3472 30.9088C67.3451 30.8735 67.3445 30.8382 67.3445 30.8029C67.3444 30.7683 67.3444 30.7683 67.3443 30.733C67.3444 30.6946 67.3444 30.6946 67.3444 30.6553C67.3444 30.6283 67.3444 30.6013 67.3443 30.5735C67.3443 30.4982 67.3443 30.4229 67.3444 30.3476C67.3444 30.2665 67.3443 30.1854 67.3443 30.1043C67.3442 29.9453 67.3442 29.7864 67.3443 29.6274C67.3443 29.4982 67.3443 29.3691 67.3443 29.2399C67.3443 29.2216 67.3443 29.2032 67.3443 29.1843C67.3443 29.1471 67.3443 29.1098 67.3443 29.0725C67.3442 28.7227 67.3443 28.3728 67.3444 28.0229C67.3445 27.7224 67.3445 27.4219 67.3444 27.1214C67.3443 26.7729 67.3442 26.4243 67.3443 26.0758C67.3443 26.0386 67.3443 26.0015 67.3443 25.9643C67.3443 25.9461 67.3443 25.9278 67.3443 25.909C67.3443 25.7799 67.3443 25.6509 67.3442 25.5218C67.3442 25.3646 67.3442 25.2074 67.3443 25.0502C67.3444 24.9699 67.3444 24.8897 67.3443 24.8094C67.3442 24.7225 67.3443 24.6357 67.3444 24.5488C67.3444 24.5232 67.3444 24.4976 67.3443 24.4712C67.3444 24.4481 67.3444 24.425 67.3445 24.4012C67.3445 24.3811 67.3445 24.361 67.3445 24.3404C67.3472 24.2926 67.3472 24.2926 67.3687 24.2495C67.3709 24.2037 67.3716 24.1577 67.3716 24.1118C67.3717 24.0975 67.3717 24.0833 67.3718 24.0685C67.3719 24.0204 67.3719 23.9723 67.3719 23.9242C67.3719 23.8898 67.372 23.8554 67.3721 23.821C67.3723 23.7273 67.3723 23.6337 67.3723 23.5401C67.3724 23.4619 67.3724 23.3838 67.3725 23.3057C67.3727 23.1213 67.3727 22.9369 67.3727 22.7525C67.3727 22.5623 67.3729 22.3721 67.3733 22.1819C67.3736 22.0187 67.3737 21.8554 67.3737 21.6922C67.3737 21.5947 67.3737 21.4971 67.374 21.3996C67.3742 21.3078 67.3742 21.2161 67.374 21.1243C67.374 21.0906 67.374 21.057 67.3742 21.0233C67.3743 20.9773 67.3742 20.9313 67.3741 20.8853C67.3741 20.8596 67.3741 20.8339 67.3741 20.8073C67.3685 20.7339 67.3513 20.6762 67.3256 20.6074C67.3124 20.5549 67.2994 20.5024 67.2866 20.4498C67.2392 20.2653 67.1655 20.1292 67.0455 19.9824C67.0455 19.9682 67.0455 19.954 67.0455 19.9393C67.0312 19.9393 67.017 19.9393 67.0024 19.9393C66.9877 19.9242 66.973 19.9091 66.9579 19.8935C66.8111 19.7428 66.6413 19.6738 66.442 19.616C66.4167 19.608 66.3914 19.6 66.3653 19.5918C65.9908 19.4965 65.6368 19.5033 65.2567 19.5514C65.2399 19.5535 65.2231 19.5556 65.2057 19.5577C65.1653 19.5628 65.1248 19.5678 65.0843 19.5729C65.0843 19.5872 65.0843 19.6014 65.0843 19.616C65.0708 19.6197 65.0573 19.6234 65.0434 19.6272C65.0258 19.6324 65.0082 19.6376 64.99 19.643C64.9725 19.648 64.955 19.653 64.937 19.6581C64.8789 19.6862 64.8754 19.7105 64.8473 19.7669C64.7973 19.7977 64.7973 19.7977 64.7368 19.8289C64.6003 19.9112 64.545 20.0103 64.4756 20.1483C64.4277 20.2384 64.3719 20.3074 64.2991 20.3784C64.129 20.5526 64.111 20.6939 64.093 20.9307C64.0912 20.9516 64.0895 20.9725 64.0877 20.994C64.0722 21.1908 64.0676 21.3869 64.0667 21.5842C64.0664 21.6191 64.0662 21.6541 64.0659 21.689C64.0652 21.7854 64.0647 21.8818 64.0642 21.9781C64.0638 22.0411 64.0635 22.1041 64.0631 22.167C64.0612 22.4769 64.0597 22.7868 64.0583 23.0967C64.058 23.1731 64.0576 23.2495 64.0572 23.3259C64.0474 25.3533 64.0509 27.3806 64.0674 32.8991C64.0676 32.9566 64.0678 33.014 64.068 33.0715C64.0681 33.1087 64.0682 33.146 64.0684 33.1833C64.0684 33.2014 64.0685 33.2195 64.0686 33.2381C64.0689 33.3251 64.0692 33.412 64.0695 33.499C64.0696 33.5315 64.0697 33.5641 64.0698 33.5966C64.0699 33.6123 64.0699 33.6281 64.07 33.6443C64.0705 33.7759 64.0708 33.9076 64.0712 34.0392C64.0714 34.1184 64.0719 34.1975 64.0723 34.2766C64.0725 34.3247 64.0727 34.3728 64.0729 34.4209C64.0731 34.4421 64.0733 34.4632 64.0734 34.485C64.0745 34.8611 64.0745 34.8611 63.9947 34.9738C63.9233 35.0822 63.8667 35.1947 63.8105 35.3115C63.767 35.4006 63.7189 35.4822 63.662 35.5638C63.651 35.58 63.6401 35.5961 63.6289 35.6128C63.5297 35.7493 63.4133 35.8368 63.274 35.9302C63.2358 35.956 63.1977 35.982 63.1596 36.0081C63.1235 36.0327 63.0873 36.0571 63.051 36.0814C62.9901 36.122 62.9901 36.122 62.9508 36.1888C62.915 36.2036 62.8791 36.218 62.843 36.2319C62.8359 36.2461 62.8288 36.2603 62.8215 36.275C62.7916 36.2931 62.7609 36.31 62.7299 36.3262C62.6527 36.3676 62.5879 36.4137 62.5198 36.4689C62.477 36.4912 62.4339 36.5127 62.3905 36.5336C62.362 36.548 62.362 36.548 62.333 36.5627C61.9736 36.7173 61.5389 36.6651 61.1552 36.6625C61.0268 36.6618 60.8987 36.6638 60.7704 36.6684C60.7554 36.6689 60.7404 36.6694 60.7249 36.67C60.6512 36.6726 60.5775 36.6755 60.5037 36.6787C60.4769 36.6797 60.4501 36.6808 60.4225 36.6818C60.387 36.6834 60.387 36.6834 60.3508 36.6849C60.2846 36.6845 60.2221 36.6772 60.1566 36.6682C60.047 36.6567 59.9365 36.6576 59.8264 36.6561C59.7996 36.6556 59.7728 36.6552 59.7452 36.6547C59.6743 36.6536 59.6033 36.6525 59.5324 36.6514C59.4611 36.6503 59.3898 36.6491 59.3185 36.648C59.2633 36.6471 59.2081 36.6462 59.1529 36.6453C59.1277 36.6449 59.1024 36.6445 59.0764 36.6441C58.9024 36.6415 58.7284 36.6409 58.5544 36.6413C58.5544 36.6129 58.5544 36.5845 58.5544 36.5551C58.5401 36.5551 58.5259 36.5551 58.5113 36.5551C58.5148 36.5351 58.5184 36.5151 58.522 36.4945C58.5352 36.4043 58.5332 36.3156 58.5321 36.2246C58.5327 36.1743 58.5369 36.1279 58.5449 36.0783C58.5481 36.0579 58.5512 36.0374 58.5544 36.0164C58.5473 36.0093 58.5401 36.0021 58.5328 35.9948C58.5307 35.9555 58.5302 35.9161 58.5302 35.8768C58.5302 35.851 58.5302 35.8252 58.5301 35.7986C58.5302 35.7697 58.5303 35.7407 58.5304 35.7117C58.5304 35.6812 58.5304 35.6506 58.5304 35.6201C58.5304 35.5358 58.5305 35.4515 58.5306 35.3672C58.5308 35.2763 58.5308 35.1855 58.5308 35.0946C58.5309 34.9368 58.531 34.779 58.5312 34.6212C58.5315 34.3917 58.5316 34.1622 58.5317 33.9327C58.5318 33.5586 58.5321 33.1845 58.5324 32.8104C58.5324 32.788 58.5324 32.7656 58.5324 32.7425C58.5326 32.5388 58.5328 32.3351 58.5329 32.1315C58.533 31.9973 58.5332 31.8632 58.5333 31.7291C58.5333 31.707 58.5333 31.685 58.5333 31.6623C58.5336 31.2911 58.5338 30.9199 58.534 30.5487C58.5341 30.3409 58.5342 30.1332 58.5344 29.9254C58.5355 29.0171 58.5332 28.1094 58.5121 27.2013C58.5101 27.0986 58.5101 27.0986 58.5234 27.0484C58.5281 27.0284 58.5281 27.0284 58.5328 27.008C58.5257 27.0009 58.5186 26.9938 58.5113 26.9865C58.5097 26.9439 58.5095 26.9012 58.5099 26.8585C58.5101 26.8352 58.5103 26.8119 58.5105 26.7879C58.5108 26.7681 58.511 26.7483 58.5113 26.7279C58.5113 26.7137 58.5113 26.6994 58.5113 26.6848C58.5128 26.635 58.5143 26.5853 58.5159 26.5356C58.5306 26.0595 58.5357 25.584 58.5347 25.1077C58.5345 25.0085 58.5345 24.9093 58.5344 24.8102C58.5342 24.6394 58.534 24.4685 58.5338 24.2977C58.5334 24.0506 58.5332 23.8036 58.5331 23.5565C58.5328 23.1552 58.5325 22.754 58.5321 22.3527C58.5321 22.3288 58.532 22.3049 58.532 22.2803C58.5317 22.013 58.5314 21.7457 58.5311 21.4783C58.5311 21.4542 58.5311 21.43 58.531 21.4051C58.531 21.3564 58.5309 21.3077 58.5308 21.2589C58.5308 21.2348 58.5308 21.2107 58.5308 21.1859C58.5307 21.1618 58.5307 21.1378 58.5307 21.113C58.5302 20.7121 58.5298 20.3113 58.5296 19.9104C58.5295 19.6638 58.5292 19.4171 58.5288 19.1704C58.5285 19.002 58.5284 18.8335 58.5283 18.6651C58.5283 18.5679 58.5282 18.4707 58.528 18.3735C58.5277 18.2847 58.5277 18.1958 58.5278 18.1069C58.5278 18.0747 58.5277 18.0425 58.5276 18.0103C58.5274 17.9667 58.5275 17.923 58.5276 17.8794C58.5275 17.8551 58.5275 17.8308 58.5275 17.8058C58.5329 17.7401 58.5481 17.6927 58.5759 17.6334C58.5617 17.6334 58.5475 17.6334 58.5328 17.6334C58.5328 17.5096 58.5392 17.4078 58.5759 17.2885C58.5617 17.2814 58.5475 17.2743 58.5328 17.267C58.5329 17.2476 58.533 17.2281 58.5331 17.2081C58.534 17.0228 58.5346 16.8374 58.5351 16.652C58.5353 16.5568 58.5356 16.4615 58.5361 16.3663C58.5397 15.7985 58.5397 15.7985 58.4994 15.2325C58.4587 14.8602 58.4587 14.8602 58.5113 14.7024C58.5814 14.673 58.6462 14.6827 58.7205 14.6901C58.9567 14.709 59.1931 14.7055 59.4299 14.7053C59.4829 14.7053 59.536 14.7053 59.589 14.7054C59.717 14.7054 59.845 14.7053 59.973 14.7052C60.0767 14.7051 60.1803 14.7051 60.284 14.7051C60.9469 14.705 61.6097 14.703 62.2726 14.6968C62.3003 14.6965 62.3279 14.6963 62.3564 14.696C62.6215 14.6935 62.8866 14.6907 63.1517 14.6875C63.2483 14.6864 63.3448 14.6853 63.4414 14.6843C63.5073 14.6835 63.5732 14.6826 63.6392 14.6817C63.6785 14.6813 63.7178 14.6808 63.7571 14.6804C63.7748 14.6801 63.7925 14.6798 63.8107 14.6795C63.8872 14.6788 63.9547 14.6817 64.0283 14.7024C64.0519 14.7808 64.0556 14.8572 64.0599 14.9388C64.0616 14.9688 64.0633 14.9987 64.065 15.0287C64.0675 15.0754 64.0701 15.1221 64.0725 15.1688C64.0816 15.3414 64.096 15.5096 64.1271 15.6799C64.1401 15.7622 64.1409 15.8423 64.1388 15.9254C64.1386 15.9407 64.1384 15.956 64.1382 15.9717C64.1377 16.0084 64.1369 16.045 64.1361 16.0817C64.1837 16.0829 64.2313 16.0837 64.2789 16.0844C64.3054 16.0849 64.3319 16.0854 64.3592 16.0859C64.4374 16.0817 64.4953 16.0691 64.5671 16.0386C64.6045 15.9948 64.6045 15.9948 64.6318 15.9524C64.646 15.9524 64.6602 15.9524 64.6749 15.9524C64.6815 15.923 64.6815 15.923 64.6883 15.8931C64.7256 15.8051 64.7666 15.7859 64.8473 15.7369C64.8836 15.7014 64.9195 15.6654 64.955 15.6291C64.999 15.5868 65.0436 15.5453 65.0884 15.5038C65.1056 15.4876 65.1056 15.4876 65.1232 15.4711C65.2086 15.392 65.2086 15.392 65.2567 15.392C65.2654 15.3728 65.2654 15.3728 65.2742 15.3531C65.3003 15.3051 65.3256 15.2761 65.3655 15.2392C65.3784 15.2272 65.3913 15.2152 65.4046 15.2029C65.4247 15.1845 65.4247 15.1845 65.4453 15.1658C65.4584 15.1535 65.4715 15.1413 65.485 15.1286C65.5628 15.057 65.6421 14.9973 65.7309 14.9395C65.7421 14.9281 65.7533 14.9168 65.7649 14.9051C65.8049 14.8655 65.8473 14.8454 65.8979 14.8209C65.9267 14.8069 65.9267 14.8069 65.9561 14.7927C66.0241 14.761 66.093 14.7319 66.1619 14.7024C66.2137 14.6761 66.2652 14.6494 66.3166 14.6223C66.4897 14.5437 66.6679 14.5084 66.8542 14.4748C66.9992 14.4483 67.1413 14.4214 67.2825 14.3791C67.9822 14.2329 68.7138 14.3261 69.4071 14.4525Z" fill="#06BAF2"/>
<path d="M21.9807 14.659C22.0548 14.6592 22.1288 14.6594 22.2029 14.6596C22.6804 14.6608 23.1578 14.6622 23.6353 14.6645C23.6747 14.6646 23.7141 14.6648 23.7534 14.665C23.7728 14.6651 23.7922 14.6652 23.8122 14.6653C23.9477 14.6659 24.0831 14.6664 24.2185 14.6668C24.3841 14.6673 24.5497 14.668 24.7153 14.669C24.8001 14.6695 24.8848 14.6699 24.9696 14.67C25.5387 14.6711 26.0745 14.7074 26.6154 14.8964C26.6154 14.9106 26.6154 14.9248 26.6154 14.9395C26.6425 14.9475 26.6696 14.9555 26.6976 14.9637C26.9032 15.0332 27.0656 15.1435 27.2297 15.2839C27.2741 15.3198 27.312 15.3448 27.363 15.3691C27.4527 15.425 27.5034 15.4939 27.5669 15.5774C27.6119 15.6358 27.661 15.6863 27.7145 15.7369C27.9468 15.9635 28.1209 16.2142 28.2594 16.5058C28.2941 16.5882 28.2941 16.5882 28.361 16.642C28.3818 16.6909 28.3995 16.7386 28.4163 16.7888C28.4256 16.8156 28.435 16.8424 28.4446 16.8701C28.5142 17.1128 28.497 17.3863 28.5023 17.6372C28.5027 17.6578 28.5032 17.6785 28.5037 17.6998C28.5161 18.2826 28.515 18.8656 28.5147 19.4485C28.5147 19.6195 28.5147 19.7904 28.5148 19.9613C28.5149 20.2959 28.5149 20.6304 28.5148 20.965C28.5148 21.2576 28.5147 21.5503 28.5148 21.8429C28.5148 21.8722 28.5148 21.8722 28.5148 21.9021C28.5148 21.9814 28.5148 22.0607 28.5148 22.14C28.5149 22.8812 28.5148 23.6224 28.5147 24.3636C28.5146 25.0204 28.5146 25.6773 28.5147 26.3341C28.5148 27.0746 28.5149 27.8151 28.5148 28.5556C28.5148 28.6346 28.5148 28.7137 28.5148 28.7927C28.5148 28.8122 28.5148 28.8317 28.5148 28.8517C28.5147 29.1442 28.5148 29.4367 28.5148 29.7292C28.5149 30.0618 28.5149 30.3945 28.5148 30.7272C28.5147 30.9128 28.5147 31.0985 28.5148 31.2841C28.5148 31.4086 28.5148 31.5331 28.5147 31.6577C28.5146 31.7282 28.5146 31.7988 28.5147 31.8694C28.515 32.1569 28.5118 32.4438 28.5021 32.7311C28.5008 32.7693 28.5008 32.7693 28.4995 32.8082C28.4692 33.6267 28.4692 33.6267 28.3345 33.9694C28.2981 34.0634 28.2689 34.1601 28.2378 34.256C28.2105 34.3346 28.1785 34.4099 28.1455 34.4862C28.1283 34.5369 28.1125 34.5877 28.0969 34.6389C28.0809 34.6802 28.0809 34.6802 28.0378 34.7233C28.0307 34.7446 28.0235 34.766 28.0162 34.788C28.002 34.788 27.9878 34.788 27.9731 34.788C27.966 34.8164 27.9589 34.8448 27.9516 34.8742C27.9373 34.8742 27.9231 34.8742 27.9085 34.8742C27.9028 34.89 27.8971 34.9059 27.8912 34.9223C27.8655 34.9817 27.8372 35.0234 27.7967 35.0735C27.7834 35.0901 27.7702 35.1067 27.7565 35.1238C27.7426 35.141 27.7288 35.1582 27.7145 35.1759C27.6866 35.2113 27.6587 35.2467 27.631 35.2823C27.6186 35.298 27.6062 35.3138 27.5934 35.33C27.5625 35.3688 27.5625 35.3688 27.5421 35.4129C27.5279 35.4129 27.5136 35.4129 27.499 35.4129C27.4933 35.4256 27.4875 35.4383 27.4817 35.4514C27.4377 35.5328 27.3703 35.592 27.305 35.6567C27.2905 35.6712 27.2759 35.6857 27.2609 35.7006C27.1117 35.8464 26.9545 35.9559 26.771 36.0541C26.7203 36.0826 26.6728 36.1141 26.6248 36.147C26.5519 36.1965 26.4788 36.2384 26.3993 36.2762C26.37 36.2902 26.341 36.3049 26.3123 36.3202C26.2262 36.3657 26.1536 36.3944 26.0551 36.4043C26.0551 36.4185 26.0551 36.4327 26.0551 36.4474C25.9176 36.5036 25.7818 36.5374 25.6362 36.5659C25.6127 36.5705 25.5893 36.5752 25.5651 36.5799C25.4 36.6114 25.2346 36.6371 25.0678 36.6575C25.0478 36.66 25.0278 36.6625 25.0072 36.665C24.6447 36.7062 24.2795 36.7092 23.915 36.7088C23.871 36.7088 23.8269 36.7089 23.7828 36.7089C23.6645 36.709 23.5463 36.709 23.4281 36.7089C23.3039 36.7088 23.1796 36.7089 23.0554 36.7089C22.8473 36.709 22.6392 36.7089 22.4311 36.7088C22.1906 36.7087 21.95 36.7087 21.7094 36.7088C21.5023 36.7089 21.2952 36.709 21.088 36.7089C20.9646 36.7089 20.8411 36.7089 20.7176 36.7089C20.6018 36.709 20.4861 36.709 20.3703 36.7088C20.3278 36.7088 20.2853 36.7088 20.2428 36.7089C20.1849 36.7089 20.127 36.7088 20.0691 36.7087C20.0522 36.7088 20.0353 36.7088 20.0179 36.7089C19.9436 36.7086 19.8766 36.7059 19.8053 36.6844C19.7562 36.6813 19.7071 36.6791 19.658 36.6775C19.3122 36.6637 18.9927 36.6374 18.662 36.5257C18.6199 36.5114 18.6199 36.5114 18.5756 36.5012C18.5236 36.4879 18.4761 36.4664 18.4269 36.4449C18.2878 36.3845 18.1486 36.3327 18.003 36.2902C17.8523 36.2453 17.7211 36.1819 17.5855 36.1026C17.5697 36.0938 17.5538 36.085 17.5375 36.076C17.1988 35.8831 16.9105 35.6218 16.6346 35.3496C16.62 35.3353 16.6054 35.321 16.5904 35.3063C16.5769 35.2928 16.5634 35.2794 16.5496 35.2655C16.5374 35.2534 16.5252 35.2414 16.5127 35.2289C16.4864 35.1974 16.4864 35.1974 16.4864 35.1543C16.4741 35.1491 16.4618 35.1439 16.449 35.1385C16.2527 35.0288 16.1305 34.79 16.0339 34.594C16.0339 34.5798 16.0339 34.5655 16.0339 34.5509C16.0196 34.5509 16.0054 34.5509 15.9908 34.5509C15.9881 34.5376 15.9854 34.5242 15.9827 34.5105C15.972 34.4606 15.972 34.4606 15.9261 34.4216C15.9009 34.3738 15.8768 34.326 15.8534 34.2775C15.7935 34.1551 15.7935 34.1551 15.7268 34.0364C15.6914 33.9732 15.6659 33.9131 15.6421 33.8452C15.6241 33.7958 15.6042 33.7476 15.5841 33.6991C15.5351 33.5771 15.4975 33.4529 15.4614 33.3265C15.4516 33.2926 15.4516 33.2926 15.4416 33.258C15.4008 33.1158 15.3638 32.9738 15.3336 32.8289C15.327 32.7843 15.327 32.7843 15.3011 32.7622C15.3011 32.7119 15.3011 32.6616 15.3011 32.6113C15.294 32.6042 15.2869 32.5971 15.2796 32.5898C15.2365 32.3641 15.2309 32.1331 15.2245 31.9041C15.2241 31.8886 15.2236 31.873 15.2232 31.8569C15.2111 31.4302 15.2118 31.0034 15.212 30.5766C15.2121 30.4609 15.212 30.3451 15.212 30.2294C15.212 30.0352 15.212 29.841 15.2121 29.6469C15.2122 29.4248 15.2122 29.2026 15.2121 28.9805C15.212 28.7874 15.212 28.5942 15.212 28.401C15.212 28.2867 15.2121 28.1724 15.212 28.0582C15.2118 27.6438 15.2121 27.2294 15.222 26.8151C15.2228 26.7821 15.2235 26.7492 15.2242 26.7163C15.2279 26.5432 15.2377 26.3723 15.2575 26.2003C15.2593 26.1844 15.2611 26.1685 15.263 26.1521C15.2768 26.041 15.2768 26.041 15.3011 26.0167C15.3007 26.0007 15.3002 25.9847 15.2998 25.9682C15.3011 25.9089 15.3011 25.9089 15.3197 25.8652C15.3552 25.7726 15.3723 25.6771 15.3927 25.5803C15.4555 25.2953 15.5346 25.0286 15.6826 24.7756C15.7096 24.7256 15.726 24.6798 15.7416 24.6253C15.7714 24.5273 15.8233 24.4553 15.8838 24.3733C15.9618 24.2644 16.0291 24.1485 16.0985 24.034C16.1997 23.8682 16.1997 23.8682 16.2494 23.8185C16.2686 23.7941 16.2874 23.7693 16.3059 23.7444C16.323 23.7216 16.323 23.7216 16.3404 23.6983C16.3677 23.661 16.3948 23.6235 16.4217 23.5858C16.495 23.4832 16.5649 23.3862 16.6588 23.3013C16.6738 23.2875 16.6888 23.2737 16.7042 23.2594C16.9157 23.0661 17.1263 22.8845 17.3769 22.7439C17.4526 22.7007 17.525 22.6532 17.5977 22.6049C17.8068 22.4689 18.0279 22.3642 18.2577 22.2682C18.2813 22.2582 18.2813 22.2582 18.3054 22.2481C18.3703 22.2216 18.4199 22.2022 18.4907 22.2022C18.4907 22.1879 18.4907 22.1737 18.4907 22.1591C18.6577 22.0893 18.8216 22.0347 18.9978 21.9941C19.0571 21.9803 19.1133 21.9661 19.1697 21.9425C19.24 21.9157 19.3077 21.9081 19.3823 21.8991C19.4096 21.8957 19.4369 21.8924 19.465 21.8889C19.492 21.8856 19.5189 21.8823 19.5467 21.8789C19.5684 21.8752 19.5902 21.8715 19.6126 21.8676C19.7194 21.8547 19.8241 21.8547 19.9316 21.8552C19.9547 21.8553 19.9777 21.8553 20.0015 21.8553C20.0514 21.8554 20.1013 21.8556 20.1512 21.8557C20.2301 21.856 20.3089 21.8561 20.3878 21.8562C20.5551 21.8565 20.7223 21.8569 20.8896 21.8573C21.0837 21.8579 21.2779 21.8583 21.4721 21.8586C21.55 21.8587 21.6278 21.859 21.7057 21.8592C21.7531 21.8593 21.8006 21.8594 21.848 21.8595C21.8807 21.8596 21.8807 21.8596 21.914 21.8598C21.9437 21.8598 21.9437 21.8598 21.974 21.8598C21.9998 21.8599 21.9998 21.8599 22.0262 21.8599C22.0699 21.86 22.0699 21.86 22.1112 21.8358C22.152 21.833 22.1928 21.8314 22.2336 21.8305C22.2586 21.8298 22.2835 21.8291 22.3092 21.8283C22.3614 21.827 22.4135 21.8258 22.4657 21.8246C22.7937 21.8211 22.7937 21.8211 23.081 21.6849C23.0953 21.6849 23.1095 21.6849 23.1241 21.6849C23.1241 21.6707 23.1241 21.6565 23.1241 21.6418C23.1548 21.6352 23.1548 21.6352 23.1861 21.6284C23.258 21.6056 23.258 21.6056 23.2804 21.5408C23.2884 21.5055 23.2884 21.5055 23.2965 21.4694C23.3041 21.4454 23.3117 21.4214 23.3194 21.3967C23.3671 21.2126 23.3651 21.0296 23.3652 20.8404C23.3655 20.8137 23.3658 20.787 23.366 20.7596C23.3686 20.3704 23.3686 20.3704 23.2103 20.0255C22.975 19.841 22.7365 19.8251 22.4488 19.8273C22.4179 19.8274 22.3871 19.8275 22.3562 19.8275C22.2901 19.8277 22.2239 19.8279 22.1578 19.8283C22.0528 19.8289 21.9479 19.8292 21.8429 19.8294C21.601 19.8299 21.3591 19.8308 21.1172 19.8318C20.8957 19.8327 20.6743 19.8334 20.4529 19.8339C20.3658 19.834 20.2788 19.8343 20.1917 19.8348C19.3056 19.8397 19.3056 19.8397 18.9863 19.7238C18.965 19.7167 18.9437 19.7096 18.9217 19.7022C18.9217 19.688 18.9217 19.6738 18.9217 19.6591C18.9064 19.6567 18.891 19.6542 18.8752 19.6517C18.6695 19.6045 18.5026 19.4738 18.3413 19.3446C18.2683 19.2874 18.1927 19.2371 18.1138 19.1884C18.0977 19.1761 18.0977 19.1761 18.0812 19.1635C18.0812 19.1492 18.0812 19.135 18.0812 19.1204C18.0656 19.1159 18.0501 19.1115 18.0341 19.1069C17.9531 19.0673 17.9206 19.0192 17.8657 18.948C17.8381 18.9203 17.8098 18.8933 17.7809 18.867C17.7304 18.8121 17.7025 18.7593 17.6704 18.692C17.6599 18.6703 17.6494 18.6486 17.6386 18.6262C17.6282 18.6044 17.6178 18.5825 17.6071 18.56C17.5891 18.5253 17.5891 18.5253 17.5708 18.4898C17.5424 18.4307 17.5424 18.4307 17.5424 18.3876C17.5282 18.3876 17.514 18.3876 17.4993 18.3876C17.4959 18.3753 17.4925 18.363 17.489 18.3503C17.4516 18.2205 17.4056 18.0972 17.3524 17.973C17.2872 17.7658 17.2768 17.5489 17.2717 17.3331C17.2709 17.3059 17.2701 17.2786 17.2693 17.2506C17.2667 17.1555 17.2644 17.0604 17.2623 16.9653C17.2618 16.9471 17.2614 16.929 17.261 16.9103C17.2527 16.5534 17.2452 16.1963 17.238 15.8393C17.2358 15.7315 17.2336 15.6238 17.2312 15.516C17.2304 15.4753 17.2296 15.4347 17.2288 15.3941C17.2277 15.3378 17.2265 15.2815 17.2252 15.2253C17.2249 15.2087 17.2246 15.1922 17.2243 15.1752C17.2224 15.0941 17.2157 15.0185 17.1976 14.9395C17.1967 14.9094 17.1967 14.8793 17.1976 14.8492C17.2037 14.7713 17.2037 14.7713 17.1761 14.724C17.1903 14.724 17.2045 14.724 17.2192 14.724C17.2192 14.7097 17.2192 14.6955 17.2192 14.6809C18.8063 14.6563 20.3934 14.6549 21.9807 14.659ZM22.699 26.5358C22.57 26.5375 22.441 26.5396 22.312 26.5419C22.2321 26.5434 22.1523 26.5446 22.0724 26.5459C21.4553 26.5467 21.4553 26.5467 20.9112 26.8027C20.8535 26.8425 20.8035 26.8762 20.7375 26.9009C20.6744 26.9281 20.6536 26.9603 20.6161 27.0175C20.6035 27.0365 20.5908 27.0556 20.5778 27.0752C20.5646 27.0957 20.5515 27.1162 20.538 27.1373C20.517 27.1701 20.517 27.1701 20.4956 27.2035C20.4692 27.2449 20.443 27.2864 20.417 27.328C20.3872 27.3744 20.3872 27.3744 20.3656 27.396C20.3421 27.5424 20.337 27.6892 20.3321 27.8373C20.3312 27.8643 20.3303 27.8912 20.3294 27.919C20.3186 28.2622 20.3192 28.6054 20.3197 28.9487C20.3198 29.0435 20.3197 29.1382 20.3196 29.233C20.3189 29.7253 20.3189 29.7253 20.3308 30.2174C20.3317 30.247 20.3317 30.247 20.3327 30.2773C20.341 30.4601 20.373 30.6156 20.4599 30.7781C20.5065 30.8668 20.5492 30.9547 20.5838 31.0489C20.6664 31.2576 20.7938 31.3131 20.9906 31.4044C21.0429 31.4324 21.0951 31.4604 21.147 31.489C21.3453 31.5669 21.5576 31.5642 21.7677 31.5689C21.8012 31.5698 21.8347 31.5707 21.8682 31.5717C21.9382 31.5735 22.0083 31.5753 22.0783 31.577C22.1669 31.5791 22.2554 31.5814 22.3439 31.5838C22.6902 31.5931 23.0363 31.6021 23.3828 31.5984C23.4265 31.526 23.4306 31.4723 23.429 31.3884C23.4286 31.363 23.4282 31.3376 23.4278 31.3115C23.4268 31.2698 23.4268 31.2698 23.4258 31.2272C23.4252 31.1975 23.4247 31.1678 23.4242 31.1381C23.4231 31.0737 23.4219 31.0093 23.4206 30.945C23.4174 30.7869 23.4148 30.6289 23.4123 30.4709C23.4114 30.4149 23.4104 30.359 23.4095 30.303C23.403 29.9103 23.4002 29.5175 23.3978 29.1248C23.3975 29.0689 23.3971 29.013 23.3968 28.9571C23.3955 28.752 23.3943 28.5469 23.3932 28.3418C23.3921 28.1485 23.3909 27.9551 23.3897 27.7618C23.3873 27.3669 23.385 26.9719 23.3828 26.577C23.2906 26.5251 23.2064 26.5288 23.1031 26.5306C23.0834 26.5308 23.0636 26.531 23.0433 26.5312C22.9286 26.5323 22.8138 26.5343 22.699 26.5358Z" fill="#1C2C94"/>
<path d="M30.3715 14.6576C30.4029 14.6577 30.4029 14.6577 30.435 14.6578C30.5057 14.658 30.5764 14.6583 30.6471 14.6587C30.6976 14.6589 30.7481 14.6591 30.7986 14.6592C30.9361 14.6597 31.0736 14.6603 31.2111 14.661C31.3401 14.6616 31.4692 14.6621 31.5982 14.6626C31.8693 14.6637 32.1405 14.6649 32.4116 14.6661C32.6445 14.6672 32.8773 14.6682 33.1102 14.6691C33.3804 14.6701 33.6505 14.6712 33.9207 14.6724C34.0638 14.673 34.2069 14.6736 34.35 14.6741C34.4845 14.6747 34.619 14.6753 34.7535 14.676C34.803 14.6762 34.8525 14.6764 34.902 14.6765C34.9693 14.6768 35.0366 14.6771 35.1038 14.6775C35.1336 14.6776 35.1336 14.6776 35.164 14.6776C35.2984 14.6786 35.2984 14.6786 35.3224 14.7026C35.3245 14.7392 35.325 14.7759 35.3249 14.8126C35.3249 14.8364 35.3249 14.8603 35.3249 14.8849C35.3247 14.9114 35.3246 14.9378 35.3244 14.9651C35.3244 14.9928 35.3243 15.0205 35.3242 15.049C35.323 15.398 35.3176 15.747 35.3124 16.096C35.3108 16.2038 35.3093 16.3116 35.3078 16.4193C35.3066 16.5028 35.3054 16.5862 35.3041 16.6697C35.3039 16.6848 35.3037 16.6999 35.3035 16.7155C35.3029 16.7562 35.3023 16.7969 35.3017 16.8375C35.3008 16.9027 35.3009 16.9677 35.3022 17.0328C35.3009 17.0948 35.3009 17.0948 35.2793 17.1163C35.2771 17.1795 35.2764 17.2422 35.2765 17.3054C35.2765 17.3252 35.2764 17.345 35.2764 17.3655C35.2763 17.4314 35.2764 17.4973 35.2764 17.5633C35.2764 17.6089 35.2764 17.6546 35.2764 17.7003C35.2763 17.7962 35.2764 17.8921 35.2765 17.988C35.2766 18.1109 35.2765 18.2339 35.2764 18.3569C35.2763 18.4513 35.2764 18.5457 35.2764 18.64C35.2764 18.6854 35.2764 18.7307 35.2764 18.7761C35.2763 18.8395 35.2764 18.9029 35.2765 18.9663C35.2765 18.9945 35.2765 18.9945 35.2764 19.0233C35.2764 19.0406 35.2765 19.0579 35.2766 19.0757C35.2766 19.0907 35.2766 19.1057 35.2766 19.1212C35.278 19.1644 35.278 19.1644 35.2908 19.2076C35.3065 19.2737 35.29 19.3343 35.2793 19.4007C35.2793 19.4735 35.2807 19.546 35.2826 19.6186C35.2988 20.2316 35.3028 20.8443 35.3022 21.4575C35.3022 21.4763 35.3022 21.4951 35.3021 21.5145C35.3019 21.7298 35.3015 21.9451 35.301 22.1604C35.3009 22.2031 35.3009 22.2459 35.3009 22.2886C35.3009 22.4179 35.3009 22.5472 35.3009 22.6765C35.2943 23.2841 35.2943 23.2841 35.5326 23.8118C35.5617 23.8365 35.591 23.8608 35.6207 23.8849C35.6904 23.9472 35.7449 24.0197 35.8017 24.0938C35.9449 24.2754 36.1399 24.3256 36.361 24.3666C36.4215 24.379 36.4215 24.379 36.4431 24.4006C36.477 24.4027 36.5111 24.4034 36.5451 24.4034C36.5659 24.4035 36.5868 24.4035 36.6082 24.4035C36.6302 24.4034 36.6521 24.4034 36.6747 24.4033C36.6963 24.4034 36.718 24.4034 36.7402 24.4035C36.7612 24.4035 36.7821 24.4035 36.8037 24.4034C36.8229 24.4034 36.842 24.4034 36.8618 24.4034C36.9181 24.4005 36.9698 24.3906 37.0249 24.379C37.0609 24.379 37.0968 24.379 37.1327 24.379C37.1398 24.3719 37.1469 24.3648 37.1542 24.3575C37.2081 24.3504 37.2619 24.3443 37.3159 24.3386C37.6376 24.3005 37.8675 24.1845 38.0836 23.9357C38.1422 23.8599 38.1886 23.782 38.2251 23.6934C38.2344 23.6708 38.2437 23.6481 38.2533 23.6247C38.2676 23.6247 38.2818 23.6247 38.2964 23.6247C38.2978 23.6112 38.2991 23.5977 38.3004 23.5838C38.3022 23.5662 38.304 23.5486 38.3059 23.5305C38.3076 23.513 38.3094 23.4955 38.3112 23.4774C38.318 23.4308 38.318 23.4308 38.3395 23.3877C38.3416 23.3253 38.3423 23.2634 38.342 23.201C38.342 23.1815 38.342 23.1619 38.342 23.1417C38.342 23.0758 38.3418 23.0099 38.3417 22.9439C38.3416 22.8968 38.3416 22.8497 38.3416 22.8026C38.3415 22.701 38.3414 22.5994 38.3412 22.4977C38.3409 22.3372 38.3408 22.1767 38.3406 22.0162C38.3405 21.7913 38.3403 21.5664 38.34 21.3415C38.34 21.3273 38.34 21.313 38.3399 21.2983C38.3398 21.1969 38.3397 21.0955 38.3395 20.9942C38.3394 20.8783 38.3393 20.7625 38.3391 20.6467C38.3391 20.6253 38.3391 20.6253 38.3391 20.6035C38.3388 20.3659 38.3385 20.1283 38.3384 19.8908C38.3383 19.731 38.3381 19.5713 38.3378 19.4115C38.3376 19.3124 38.3376 19.2132 38.3375 19.1141C38.3375 19.0679 38.3374 19.0217 38.3373 18.9755C38.3371 18.9128 38.3371 18.85 38.3371 18.7873C38.337 18.7688 38.3369 18.7502 38.3369 18.7312C38.3371 18.6058 38.3371 18.6058 38.3611 18.5818C38.3632 18.5407 38.3638 18.4995 38.3638 18.4583C38.3639 18.418 38.3639 18.418 38.364 18.377C38.364 18.3469 38.3639 18.3169 38.3639 18.2869C38.3639 18.2555 38.364 18.2241 38.364 18.1927C38.3641 18.1072 38.3641 18.0218 38.364 17.9363C38.3639 17.847 38.364 17.7577 38.364 17.6685C38.3641 17.5185 38.364 17.3686 38.3639 17.2186C38.3638 17.045 38.3638 16.8714 38.3639 16.6978C38.364 16.5491 38.3641 16.4003 38.364 16.2515C38.364 16.1625 38.364 16.0735 38.364 15.9846C38.3641 15.9009 38.3641 15.8173 38.3639 15.7337C38.3639 15.7029 38.3639 15.6721 38.364 15.6413C38.364 15.5995 38.3639 15.5576 38.3638 15.5158C38.3638 15.4923 38.3638 15.4688 38.3638 15.4447C38.367 15.3934 38.367 15.3934 38.3395 15.3707C38.3348 15.2793 38.3355 15.1879 38.3356 15.0964C38.3355 15.0505 38.3351 15.0046 38.3347 14.9586C38.3346 14.9295 38.3346 14.9003 38.3346 14.8712C38.3345 14.8446 38.3344 14.8179 38.3343 14.7905C38.3395 14.7242 38.3395 14.7242 38.3827 14.6595C38.4508 14.6531 38.5148 14.6509 38.5831 14.6515C38.6041 14.6514 38.6252 14.6513 38.6468 14.6512C38.7178 14.651 38.7887 14.6512 38.8597 14.6515C38.9104 14.6514 38.961 14.6514 39.0117 14.6513C39.1497 14.6511 39.2877 14.6513 39.4257 14.6515C39.5552 14.6518 39.6847 14.6517 39.8142 14.6517C40.0709 14.6516 40.3275 14.6519 40.5841 14.6523C40.8334 14.6527 41.0826 14.6528 41.3318 14.6527C41.603 14.6526 41.8742 14.6526 42.1453 14.6528C42.289 14.653 42.4326 14.653 42.5762 14.653C42.7112 14.653 42.8462 14.6531 42.9812 14.6535C43.0309 14.6536 43.0806 14.6536 43.1302 14.6535C43.1978 14.6534 43.2654 14.6536 43.3329 14.6539C43.3528 14.6538 43.3727 14.6537 43.3932 14.6537C43.5284 14.6546 43.5284 14.6546 43.5764 14.7026C43.5764 14.7428 43.5764 14.7428 43.5691 14.7909C43.5155 15.1876 43.5306 15.5926 43.5315 15.9921C43.5317 16.0817 43.5317 16.1713 43.5318 16.261C43.5319 16.4172 43.5321 16.5734 43.5323 16.7296C43.5329 17.1377 43.5331 17.5457 43.5332 17.9538C43.5333 18.0222 43.5333 18.0906 43.5333 18.1591C43.5338 19.2149 43.5315 20.2708 43.5288 21.3267C43.5286 21.4218 43.5283 21.5169 43.5281 21.612C43.5267 22.1615 43.5252 22.711 43.5237 23.2605C43.5228 23.6047 43.5219 23.9488 43.521 24.2929C43.5209 24.3176 43.5209 24.3422 43.5208 24.3676C43.5202 24.6136 43.5195 24.8596 43.5189 25.1056C43.5186 25.2013 43.5184 25.297 43.5181 25.3927C43.518 25.44 43.5179 25.4872 43.5178 25.5344C43.517 25.83 43.5162 26.1255 43.5154 26.4211C43.515 26.5686 43.5146 26.7161 43.5142 26.8636C43.514 26.9606 43.5137 27.0575 43.5135 27.1545C43.5123 27.587 43.5115 28.0196 43.5118 28.4522C43.5118 28.6677 43.5118 28.8832 43.5118 29.0987C43.512 29.1294 43.5123 29.1601 43.5125 29.1908C43.5128 29.2274 43.5129 29.2641 43.5131 29.3007C43.5133 29.3191 43.5135 29.3374 43.5137 29.3563C43.514 29.4293 43.5141 29.4966 43.4996 29.5683C43.487 29.6159 43.487 29.6159 43.5004 29.6634C43.5139 29.735 43.5136 29.8012 43.5126 29.8741C43.5124 29.8887 43.5123 29.9034 43.5121 29.9186C43.5115 29.9669 43.5107 30.0152 43.5099 30.0634C43.5095 30.0971 43.509 30.1307 43.5086 30.1643C43.5076 30.2346 43.5065 30.3049 43.5054 30.3752C43.504 30.4654 43.5027 30.5557 43.5016 30.646C43.5006 30.7153 43.4996 30.7846 43.4986 30.854C43.4981 30.8873 43.4976 30.9206 43.4972 30.9539C43.4966 31.0003 43.4958 31.0466 43.495 31.093C43.4946 31.1195 43.4942 31.1459 43.4938 31.1731C43.4902 31.2323 43.4902 31.2323 43.4687 31.2538C43.4677 31.3079 43.4677 31.3614 43.4687 31.4154C43.4697 31.4695 43.4697 31.523 43.4687 31.5771C43.4616 31.5842 43.4545 31.5913 43.4471 31.5986C43.4432 31.6422 43.4407 31.6859 43.4386 31.7296C43.4365 31.7714 43.4365 31.7714 43.4343 31.814C43.4336 31.8289 43.4328 31.8438 43.432 31.8592C43.4038 32.4029 43.3399 32.9332 43.167 33.452C43.1528 33.452 43.1385 33.452 43.1239 33.452C43.1218 33.4679 43.1197 33.4838 43.1175 33.5002C43.0941 33.6588 43.0539 33.7992 42.9946 33.9477C42.9887 33.9644 42.9827 33.9811 42.9766 33.9983C42.916 34.1643 42.8266 34.3146 42.7381 34.4669C42.7222 34.4945 42.7065 34.5222 42.691 34.5501C42.643 34.6365 42.5921 34.6985 42.5204 34.7666C42.458 34.8421 42.4003 34.9205 42.3426 34.9996C42.2589 35.1118 42.1694 35.2094 42.0679 35.3054C42.0385 35.3361 42.0385 35.3361 42.0086 35.3674C41.9633 35.4101 41.9285 35.4289 41.8739 35.4562C41.818 35.5093 41.7654 35.5648 41.7123 35.6206C41.6419 35.6875 41.5705 35.7269 41.4833 35.7687C41.4229 35.7962 41.4229 35.7962 41.3899 35.833C41.3446 35.8777 41.2906 35.8997 41.2337 35.9269C41.1813 35.9534 41.1319 35.983 41.0819 36.0139C40.8534 36.1524 40.618 36.2558 40.3613 36.3291C40.2939 36.3486 40.2345 36.3713 40.1727 36.4045C39.543 36.7363 38.558 36.6859 37.8653 36.697C37.8391 36.6975 37.8128 36.6979 37.7858 36.6984C36.8029 36.7142 35.8197 36.7086 34.8368 36.7078C34.553 36.7075 34.2692 36.7074 33.9854 36.7073C33.4038 36.7071 32.8222 36.7067 32.2406 36.7062C32.2378 36.3503 32.235 35.9943 32.2322 35.6384C32.2309 35.4731 32.2296 35.3078 32.2283 35.1425C32.2271 34.9984 32.226 34.8542 32.2249 34.7101C32.2243 34.6338 32.2237 34.5576 32.2231 34.4813C32.2224 34.396 32.2217 34.3107 32.221 34.2254C32.2208 34.2003 32.2206 34.1753 32.2204 34.1495C32.2201 34.1035 32.2198 34.0574 32.2195 34.0113C32.2192 33.9694 32.2188 33.9276 32.2183 33.8858C32.2181 33.8667 32.218 33.8477 32.2178 33.8282C32.2176 33.8117 32.2174 33.7952 32.2172 33.7783C32.2203 33.7016 32.2394 33.6348 32.2608 33.5611C32.2686 33.5338 32.2763 33.5065 32.2843 33.4784C32.2979 33.4335 32.312 33.3887 32.3268 33.3442C32.341 33.3442 32.3553 33.3442 32.3699 33.3442C32.3758 33.3205 32.3758 33.3205 32.3818 33.2962C32.3872 33.2752 32.3926 33.2541 32.3982 33.2325C32.4035 33.2117 32.4087 33.1909 32.4141 33.1696C32.4353 33.1051 32.4636 33.0571 32.4992 32.9994C32.5325 32.9309 32.5631 32.8612 32.5939 32.7915C32.6266 32.7195 32.6555 32.6639 32.7147 32.6115C32.7424 32.5767 32.7698 32.5417 32.7969 32.5065C32.8647 32.4209 32.9307 32.355 33.0164 32.2882C33.032 32.2718 33.0476 32.2554 33.0636 32.2384C33.1385 32.1668 33.2203 32.1092 33.3048 32.0493C33.364 32.0077 33.364 32.0077 33.4232 31.9515C33.6286 31.7954 33.8885 31.7289 34.1324 31.6564C34.1814 31.6421 34.1814 31.6421 34.2319 31.6207C34.342 31.5893 34.451 31.5827 34.565 31.5748C34.5906 31.573 34.6161 31.5712 34.6424 31.5693C34.9415 31.5498 35.2406 31.5491 35.5402 31.5489C35.6208 31.5488 35.7014 31.5484 35.7819 31.5481C36.0372 31.5469 36.2925 31.5463 36.5478 31.5458C36.7169 31.5455 36.8859 31.5449 37.055 31.5441C37.1503 31.5436 37.2456 31.5434 37.3409 31.5435C37.414 31.5435 37.487 31.543 37.5601 31.5426C37.5861 31.5427 37.6121 31.5428 37.6388 31.5429C37.7796 31.5417 37.9102 31.5342 38.0378 31.4693C38.084 31.4219 38.084 31.4219 38.1092 31.3643C38.1414 31.3027 38.1671 31.2538 38.2129 31.2013C38.2861 31.1013 38.3395 30.969 38.3395 30.8443C38.3538 30.8443 38.368 30.8443 38.3827 30.8443C38.3797 30.7658 38.3765 30.6872 38.3732 30.6086C38.3724 30.5862 38.3715 30.5638 38.3707 30.5406C38.3698 30.5193 38.3688 30.498 38.3679 30.476C38.3671 30.4563 38.3663 30.4365 38.3655 30.4162C38.3661 30.3706 38.3661 30.3706 38.3395 30.3487C38.3409 30.3242 38.3422 30.2998 38.3436 30.2746C38.3448 30.1575 38.302 30.0654 38.2533 29.9607C38.2448 29.9417 38.2362 29.9226 38.2274 29.9029C38.1633 29.7664 38.1058 29.6696 37.9649 29.6031C37.8439 29.5597 37.7227 29.5626 37.5954 29.5619C37.5688 29.5615 37.5421 29.5611 37.5147 29.5607C37.4419 29.5596 37.3692 29.5589 37.2965 29.5583C37.22 29.5575 37.1435 29.5564 37.067 29.5554C36.9219 29.5534 36.7769 29.5517 36.6319 29.5502C36.3728 29.5474 36.1137 29.5441 35.8547 29.5407C35.764 29.5395 35.6733 29.5385 35.5826 29.5375C35.5124 29.5368 35.4422 29.5359 35.3721 29.5351C35.3474 29.5349 35.3228 29.5346 35.2974 29.5344C34.8036 29.5282 34.8036 29.5282 34.7621 29.4866C34.7203 29.4809 34.6783 29.4765 34.6363 29.4726C34.6102 29.4701 34.5841 29.4675 34.5573 29.4649C34.5025 29.4597 34.4477 29.4546 34.3929 29.4496C34.2296 29.4334 34.0783 29.4059 33.9216 29.3573C33.8949 29.3498 33.8683 29.3422 33.8408 29.3344C33.792 29.3203 33.7432 29.3062 33.6944 29.2922C33.6054 29.267 33.5159 29.244 33.4262 29.2218C33.3828 29.2065 33.3828 29.2065 33.3613 29.1634C33.3184 29.1484 33.2752 29.1341 33.232 29.1203C33.1889 29.0999 33.1463 29.0788 33.104 29.0569C33.032 29.0202 32.9605 28.9842 32.8858 28.9532C32.8225 28.9263 32.8225 28.9263 32.7578 28.8832C32.7578 28.869 32.7578 28.8547 32.7578 28.8401C32.7307 28.8325 32.7036 28.825 32.6757 28.8172C32.5665 28.7811 32.4776 28.7247 32.3824 28.6612C32.3368 28.6311 32.2914 28.6044 32.2433 28.5788C32.1729 28.5365 32.1253 28.4892 32.0682 28.4306C32.0446 28.4151 32.0211 28.3995 31.9968 28.3835C31.9777 28.3706 31.9586 28.3577 31.9389 28.3444C31.9389 28.3302 31.9389 28.316 31.9389 28.3013C31.9247 28.3013 31.9105 28.3013 31.8958 28.3013C31.8958 28.2871 31.8958 28.2729 31.8958 28.2582C31.8767 28.2554 31.8767 28.2554 31.8572 28.2525C31.7968 28.2324 31.7764 28.2053 31.7369 28.1558C31.6905 28.1 31.646 28.051 31.5887 28.0063C31.5295 27.9566 31.5035 27.9144 31.4648 27.8487C31.4483 27.8359 31.4319 27.823 31.4149 27.8097C31.3168 27.7298 31.23 27.6308 31.2062 27.5039C31.1919 27.5039 31.1777 27.5039 31.1631 27.5039C31.1631 27.4897 31.1631 27.4755 31.1631 27.4608C31.1488 27.4608 31.1346 27.4608 31.12 27.4608C31.111 27.4423 31.1021 27.4238 31.0929 27.4048C31.0555 27.3318 31.0142 27.2634 30.9705 27.1941C30.7967 26.9155 30.7967 26.9155 30.7967 26.8358C30.7825 26.8287 30.7682 26.8216 30.7536 26.8143C30.698 26.7309 30.6557 26.641 30.6135 26.5503C30.6068 26.5359 30.6001 26.5216 30.5932 26.5068C30.5527 26.4186 30.5171 26.3308 30.4892 26.2377C30.4727 26.1872 30.4532 26.139 30.4327 26.0901C30.2463 25.6268 30.197 25.1285 30.1811 24.6336C30.1803 24.606 30.1794 24.5785 30.1785 24.5501C30.1672 24.1742 30.1681 23.7982 30.1677 23.4222C30.1676 23.3103 30.1673 23.1984 30.1671 23.0865C30.1667 22.8935 30.1664 22.7004 30.1661 22.5073C30.1657 22.2282 30.1652 21.949 30.1646 21.6699C30.1637 21.2167 30.1628 20.7636 30.1621 20.3105C30.162 20.2834 30.162 20.2564 30.1619 20.2286C30.1615 19.9815 30.1611 19.7343 30.1607 19.4872C30.1604 19.322 30.1601 19.1567 30.1598 18.9914C30.1597 18.9507 30.1597 18.9507 30.1597 18.9091C30.1589 18.4567 30.158 18.0043 30.1571 17.5519C30.1566 17.2732 30.1561 16.9945 30.1557 16.7157C30.1554 16.5253 30.1551 16.3349 30.1546 16.1445C30.1544 16.0346 30.1542 15.9246 30.1541 15.8147C30.154 15.7142 30.1538 15.6137 30.1536 15.5133C30.1535 15.4768 30.1534 15.4403 30.1534 15.4038C30.1534 15.3545 30.1533 15.3053 30.1531 15.256C30.153 15.2285 30.153 15.2011 30.153 15.1728C30.1571 15.1142 30.1571 15.1142 30.1286 15.0905C30.1267 15.06 30.1263 15.0294 30.1265 14.9989C30.1266 14.9805 30.1266 14.9621 30.1267 14.9431C30.1269 14.9237 30.1271 14.9044 30.1273 14.8845C30.1274 14.865 30.1275 14.8456 30.1276 14.8256C30.1278 14.7774 30.1282 14.7292 30.1286 14.6811C30.2032 14.6438 30.2894 14.6571 30.3715 14.6576Z" fill="#1C2C94"/>
<path d="M5.67811 14.6738C5.7495 14.6738 5.82089 14.6737 5.89228 14.6736C6.14308 14.6732 6.39388 14.673 6.64468 14.6731C6.87557 14.6731 7.10645 14.6726 7.33733 14.672C7.53778 14.6714 7.73824 14.6712 7.93869 14.6712C8.05741 14.6712 8.17612 14.6711 8.29484 14.6706C8.77266 14.6689 9.24615 14.6773 9.72219 14.7215C9.7418 14.7233 9.76141 14.7251 9.78161 14.727C10.1632 14.7633 10.5532 14.8043 10.9083 14.9573C10.9748 14.9851 11.0414 15.0048 11.1107 15.0245C11.2523 15.0669 11.3784 15.1281 11.5081 15.1983C11.5276 15.2088 11.547 15.2192 11.5671 15.23C11.6059 15.2511 11.6446 15.2723 11.6833 15.2937C11.728 15.3182 11.7731 15.3421 11.8185 15.3655C11.8555 15.3847 11.8555 15.3847 11.8933 15.4044C11.9159 15.4159 11.9385 15.4275 11.9618 15.4395C12.0299 15.4812 12.0785 15.5282 12.1331 15.5862C12.1849 15.6302 12.2348 15.6688 12.2933 15.7034C12.4043 15.7711 12.4953 15.8599 12.5856 15.9526C12.6021 15.9681 12.6185 15.9837 12.6355 15.9997C12.6718 16.0388 12.6718 16.0388 12.6718 16.0819C12.6898 16.0879 12.6898 16.0879 12.7082 16.094C12.7703 16.1326 12.7979 16.1776 12.8384 16.2375C12.8669 16.2798 12.8669 16.2798 12.9156 16.3243C12.9885 16.3988 13.0458 16.4812 13.1057 16.5663C13.1429 16.6198 13.1429 16.6198 13.1835 16.6562C13.2106 16.6853 13.2106 16.6853 13.2106 16.75C13.2248 16.75 13.2391 16.75 13.2537 16.75C13.2647 16.7721 13.2756 16.7942 13.2869 16.817C13.3855 17.0162 13.3855 17.0162 13.4908 17.212C13.6222 17.4511 13.7398 17.6873 13.7925 17.9568C13.803 18.0012 13.8146 18.0447 13.8283 18.0882C13.8848 18.2727 13.9062 18.4606 13.9284 18.6515C13.9351 18.7084 13.9422 18.7652 13.9494 18.822C13.9752 19.0343 13.9911 19.2459 13.9983 19.4596C13.9992 19.4857 14 19.5118 14.001 19.5386C14.0104 19.8346 14.0128 20.1307 14.0145 20.4268C14.0149 20.4917 14.0154 20.5566 14.0158 20.6215C14.0172 20.8154 14.0184 21.0093 14.0195 21.2032C14.02 21.2954 14.0206 21.3875 14.0211 21.4797C14.0278 22.5597 14.0318 23.6397 14.0322 24.7197C14.0322 24.8197 14.0323 24.9198 14.0324 25.0199C14.0325 25.1934 14.0326 25.3669 14.0324 25.5404C14.0324 25.5972 14.0324 25.6541 14.0325 25.7109C14.0327 26.0103 14.0294 26.3094 14.0201 26.6087C14.0189 26.6492 14.0189 26.6492 14.0177 26.6905C14.0093 26.9369 13.9887 27.1814 13.9606 27.4264C13.9527 27.4966 13.9457 27.5669 13.9388 27.6372C13.9075 27.9276 13.8416 28.1791 13.7262 28.4472C13.6703 28.5821 13.6263 28.7232 13.5855 28.8633C13.5454 28.995 13.4849 29.1058 13.4127 29.2226C13.4012 29.2413 13.3898 29.2601 13.3781 29.2794C13.2971 29.4114 13.2117 29.5394 13.121 29.6649C13.0794 29.7233 13.0794 29.7233 13.0489 29.7911C13.0162 29.8539 12.9877 29.8857 12.9331 29.9297C12.9104 29.9487 12.9104 29.9487 12.8873 29.968C12.866 29.9858 12.866 29.9858 12.8442 30.0038C12.7884 30.056 12.7434 30.1 12.7042 30.1655C12.6539 30.2493 12.5871 30.3093 12.5102 30.3688C12.4534 30.4123 12.4534 30.4123 12.4092 30.4753C12.3487 30.5507 12.274 30.5909 12.1907 30.6381C12.1332 30.6718 12.0795 30.7085 12.0253 30.7473C11.8619 30.8629 11.7011 30.9554 11.515 31.0294C11.4333 31.0641 11.3552 31.104 11.2764 31.1447C11.1069 31.2314 10.9336 31.2992 10.7538 31.3615C10.7328 31.3693 10.7328 31.3693 10.7115 31.3771C10.5601 31.431 10.4046 31.462 10.2473 31.4935C10.207 31.5021 10.207 31.5021 10.1659 31.5108C10.0249 31.5393 9.88714 31.5601 9.74346 31.5678C9.72767 31.5686 9.71189 31.5695 9.69562 31.5704C9.51815 31.5795 9.34076 31.5808 9.1631 31.5815C9.12631 31.5817 9.08953 31.5819 9.05274 31.5821C8.95414 31.5827 8.85554 31.5831 8.75693 31.5836C8.65342 31.5841 8.5499 31.5846 8.44639 31.5852C8.25093 31.5863 8.05548 31.5873 7.86002 31.5882C7.63726 31.5893 7.4145 31.5904 7.19175 31.5916C6.73403 31.5941 6.27632 31.5964 5.81861 31.5986C5.80505 31.6891 5.79468 31.7731 5.79967 31.8646C5.80123 31.897 5.80123 31.897 5.80283 31.93C5.80404 31.9522 5.80525 31.9744 5.80649 31.9973C5.82979 32.4294 5.81878 32.8624 5.81059 33.2948C5.80918 33.37 5.8079 33.4451 5.80662 33.5203C5.79219 34.327 5.79219 34.327 5.74588 34.6063C5.74163 34.6331 5.74163 34.6331 5.73729 34.6603C5.68951 34.95 5.58795 35.1927 5.45359 35.4522C5.44461 35.4701 5.43562 35.4881 5.42636 35.5065C5.3747 35.6061 5.33057 35.671 5.23674 35.7364C5.22429 35.7559 5.21184 35.7755 5.19902 35.7957C5.14278 35.8769 5.07805 35.9334 5.00346 35.9974C4.96675 36.0293 4.93167 36.063 4.89731 36.0974C4.8173 36.1774 4.73483 36.2388 4.63524 36.2927C4.58865 36.3184 4.58865 36.3184 4.54045 36.3519C4.33803 36.4836 4.11577 36.5405 3.88466 36.6036C3.83077 36.6193 3.83077 36.6193 3.77127 36.6631C3.70182 36.681 3.63757 36.6872 3.56605 36.6864C3.54666 36.6862 3.52726 36.6861 3.50727 36.686C3.48585 36.6858 3.46443 36.6855 3.44236 36.6853C3.1971 36.6841 2.952 36.6861 2.70677 36.6894C2.66907 36.6898 2.63138 36.6903 2.59369 36.6908C2.45805 36.6926 2.32242 36.6944 2.18678 36.6962C1.96155 36.6992 1.73632 36.7021 1.51108 36.7045C1.41216 36.7055 1.31326 36.7068 1.21435 36.7084C1.14392 36.7095 1.07349 36.7102 1.00306 36.7109C0.978048 36.7114 0.953038 36.7119 0.927271 36.7124C0.893541 36.7126 0.893541 36.7126 0.859129 36.7129C0.830021 36.7133 0.830021 36.7133 0.800326 36.7137C0.78508 36.7112 0.769834 36.7087 0.754126 36.7062C0.704313 36.6315 0.705632 36.6035 0.705621 36.5154C0.705459 36.4756 0.705459 36.4756 0.705294 36.435C0.705392 36.4053 0.705494 36.3756 0.7056 36.3459C0.705555 36.3144 0.705491 36.2829 0.70541 36.2515C0.705241 36.1643 0.705343 36.0772 0.705487 35.9901C0.705595 35.8955 0.705456 35.8009 0.705347 35.7064C0.705191 35.5404 0.705196 35.3745 0.705306 35.2085C0.705468 34.9618 0.705385 34.715 0.705253 34.4682C0.705026 34.0275 0.705047 33.5868 0.705171 33.1461C0.705279 32.7603 0.705308 32.3745 0.705256 31.9887C0.705253 31.9631 0.705249 31.9376 0.705246 31.9113C0.705232 31.8075 0.705219 31.7038 0.705205 31.6C0.705073 30.6259 0.705193 29.6518 0.705424 28.6777C0.705629 27.812 0.705611 26.9464 0.705404 26.0808C0.705174 25.1088 0.705082 24.1369 0.705215 23.1649C0.705229 23.0612 0.705243 22.9576 0.705256 22.854C0.705259 22.8285 0.705263 22.803 0.705266 22.7767C0.705315 22.3912 0.705258 22.0058 0.705149 21.6204C0.705026 21.182 0.705057 20.7436 0.705291 20.3052C0.705417 20.0598 0.705425 19.8144 0.705263 19.5691C0.705166 19.4051 0.705226 19.2412 0.705414 19.0773C0.705516 18.9839 0.705551 18.8905 0.705396 18.7971C0.705256 18.712 0.705317 18.627 0.705533 18.5419C0.705576 18.5114 0.705549 18.4809 0.705438 18.4505C0.704803 18.2615 0.713767 18.0773 0.754126 17.8922C0.761238 17.885 0.768349 17.8779 0.775677 17.8706C0.775232 17.8555 0.774788 17.8404 0.77433 17.8248C0.77567 17.7631 0.788939 17.7133 0.80643 17.6546C0.818866 17.6117 0.829822 17.5686 0.840498 17.5253C0.885203 17.3488 0.938931 17.1829 1.01678 17.018C1.02421 17.0022 1.03165 16.9864 1.03931 16.9702C1.09296 16.8607 1.09296 16.8607 1.14204 16.8362C1.15833 16.8003 1.17444 16.7643 1.18929 16.7277C1.21663 16.6611 1.24796 16.5965 1.27943 16.5317C1.2916 16.5064 1.30377 16.481 1.3163 16.4548C1.35881 16.3814 1.40475 16.3346 1.46531 16.2758C1.513 16.2138 1.55625 16.1486 1.6 16.0837C1.65535 16.0037 1.71014 15.9471 1.78857 15.8879C1.7988 15.8706 1.80902 15.8532 1.81955 15.8354C1.87908 15.7378 1.96506 15.6805 2.06335 15.6266C2.13713 15.5909 2.13713 15.5909 2.17649 15.5215C2.19783 15.5215 2.21916 15.5215 2.24115 15.5215C2.24826 15.5002 2.25537 15.4789 2.2627 15.4569C2.29796 15.4363 2.33337 15.416 2.36944 15.3969C2.41607 15.3692 2.45341 15.3375 2.49437 15.302C2.69474 15.1422 2.96024 15.0383 3.20185 14.958C3.25776 14.9392 3.25776 14.9392 3.32425 14.9078C3.41089 14.8703 3.49846 14.8504 3.59078 14.8319C3.60852 14.8283 3.62627 14.8247 3.64455 14.8209C3.85092 14.78 4.05823 14.7502 4.26694 14.7242C4.2832 14.7221 4.29945 14.72 4.3162 14.7179C4.76773 14.6626 5.2241 14.674 5.67811 14.6738ZM5.9634 19.794C5.93672 19.795 5.91004 19.796 5.88254 19.797C5.81867 19.803 5.81867 19.803 5.79334 19.8423C5.76685 19.9227 5.77018 20.0018 5.77115 20.0855C5.7712 20.1048 5.77125 20.1241 5.7713 20.144C5.77153 20.209 5.77206 20.2739 5.7726 20.3389C5.77282 20.3855 5.77303 20.432 5.77321 20.4786C5.77378 20.6058 5.77462 20.7329 5.77549 20.86C5.77637 20.9945 5.777 21.129 5.77765 21.2635C5.77879 21.4909 5.78007 21.7184 5.78147 21.9458C5.78443 22.4279 5.78696 22.91 5.78951 23.3922C5.79038 23.5564 5.79129 23.7206 5.79223 23.8848C5.79506 24.3818 5.79765 24.8788 5.79717 25.3758C5.79715 25.3945 5.79714 25.4133 5.79712 25.4326C5.79696 25.6026 5.79669 25.7725 5.79602 25.9425C5.79586 25.9868 5.79574 26.031 5.79564 26.0753C5.7955 26.1277 5.79529 26.1801 5.79496 26.2325C5.79492 26.2549 5.79488 26.2773 5.79483 26.3004C5.79474 26.3197 5.79465 26.339 5.79456 26.3589C5.79407 26.406 5.79407 26.406 5.81861 26.4479C5.90931 26.4485 6 26.4489 6.09069 26.4493C6.11634 26.4494 6.14198 26.4496 6.1684 26.4498C6.19326 26.4499 6.21812 26.4499 6.24374 26.45C6.26654 26.4501 6.28934 26.4502 6.31282 26.4504C6.37773 26.4496 6.37773 26.4496 6.43566 26.4371C6.54705 26.4206 6.65789 26.4242 6.77031 26.425C6.79577 26.4251 6.82123 26.4252 6.84747 26.4253C6.95601 26.4256 7.06456 26.4262 7.1731 26.4268C7.25255 26.4272 7.332 26.4274 7.41145 26.4277C7.43553 26.4279 7.4596 26.4281 7.48441 26.4282C7.86346 26.4294 8.14838 26.3858 8.46349 26.1712C8.52251 26.1323 8.57956 26.1011 8.64314 26.0708C8.75072 26.0109 8.79766 25.9389 8.83575 25.8229C8.86999 25.5524 8.86051 25.275 8.86044 25.0029C8.8605 24.956 8.86057 24.9091 8.86066 24.8622C8.86084 24.736 8.8609 24.6097 8.86091 24.4834C8.86093 24.4044 8.86097 24.3254 8.86103 24.2464C8.86123 23.9705 8.86132 23.6946 8.8613 23.4187C8.86129 23.1619 8.86151 22.905 8.86185 22.6482C8.86214 22.4272 8.86225 22.2062 8.86224 21.9852C8.86223 21.8534 8.86229 21.7216 8.86252 21.5898C8.86273 21.466 8.86273 21.3422 8.86258 21.2185C8.86255 21.1731 8.8626 21.1278 8.86273 21.0825C8.8629 21.0204 8.8628 20.9584 8.86263 20.8964C8.8628 20.8697 8.8628 20.8697 8.86297 20.8424C8.86203 20.6826 8.84138 20.5296 8.75763 20.3907C8.74802 20.3745 8.73841 20.3582 8.7285 20.3415C8.71759 20.3239 8.71759 20.3239 8.70645 20.3059C8.69223 20.3059 8.678 20.3059 8.66335 20.3059C8.66335 20.2916 8.66335 20.2774 8.66335 20.2628C8.59952 20.216 8.54467 20.1801 8.46939 20.155C8.46364 20.1422 8.45789 20.1293 8.45196 20.1161C8.41441 20.0469 8.36217 20.0208 8.29563 19.9799C8.27227 19.9652 8.24891 19.9505 8.22483 19.9353C7.84653 19.7289 7.27599 19.8012 6.85797 19.796C6.79733 19.7952 6.73669 19.7941 6.67605 19.7931C6.61648 19.7921 6.5569 19.7912 6.49732 19.7904C6.45618 19.7898 6.41504 19.7891 6.3739 19.7884C6.23698 19.7868 6.1002 19.7881 5.9634 19.794Z" fill="#1C2C94"/>
<path d="M53.8561 10.5432C53.8878 10.6066 53.8815 10.6709 53.8821 10.7405C53.8823 10.7564 53.8825 10.7722 53.8827 10.7886C53.8834 10.8412 53.8839 10.8939 53.8844 10.9465C53.8849 10.983 53.8853 11.0195 53.8858 11.056C53.887 11.1522 53.8881 11.2485 53.8891 11.3447C53.8902 11.4426 53.8914 11.5405 53.8926 11.6384C53.8943 11.7813 53.896 11.9242 53.8975 12.0671C53.8977 12.0822 53.8979 12.0972 53.8981 12.1126C53.899 12.2016 53.8992 12.2904 53.8988 12.3794C53.8979 12.6677 53.9021 12.9557 53.9084 13.2439C53.917 13.6438 53.9234 14.0435 53.9199 14.4435C53.9198 14.4715 53.9196 14.4995 53.9194 14.5283C53.919 14.5642 53.919 14.5642 53.9186 14.601C53.9181 14.6615 53.9181 14.6615 53.9423 14.7241C54.0068 14.7456 54.0488 14.7482 54.1161 14.7479C54.1383 14.7479 54.1605 14.7479 54.1833 14.7478C54.2073 14.7477 54.2313 14.7475 54.2561 14.7474C54.2936 14.7472 54.2936 14.7472 54.332 14.7471C54.573 14.7461 54.8139 14.7434 55.0549 14.7403C55.1832 14.7387 55.3114 14.7373 55.4397 14.7359C55.6013 14.734 55.763 14.7321 55.9246 14.73C56.0569 14.7283 56.1892 14.7268 56.3215 14.7254C56.3715 14.7249 56.4216 14.7242 56.4717 14.7235C56.5412 14.7225 56.6107 14.7218 56.6802 14.7212C56.7008 14.7208 56.7214 14.7204 56.7426 14.7201C56.7615 14.72 56.7803 14.7198 56.7998 14.7197C56.8162 14.7195 56.8325 14.7193 56.8494 14.7191C56.9012 14.7248 56.936 14.7414 56.981 14.7672C56.9816 14.8026 56.982 14.8381 56.9823 14.8736C56.9826 14.8933 56.9828 14.9131 56.9831 14.9334C56.981 14.9827 56.981 14.9827 56.9594 15.0042C56.9573 15.0527 56.9567 15.1013 56.9567 15.1498C56.9567 15.1653 56.9566 15.1807 56.9566 15.1965C56.9565 15.2486 56.9566 15.3007 56.9566 15.3528C56.9566 15.39 56.9566 15.4272 56.9565 15.4644C56.9564 15.566 56.9565 15.6676 56.9565 15.7692C56.9566 15.8762 56.9565 15.9831 56.9565 16.09C56.9565 16.2703 56.9565 16.4507 56.9566 16.631C56.9567 16.8375 56.9567 17.0441 56.9566 17.2506C56.9565 17.4289 56.9565 17.6072 56.9565 17.7854C56.9566 17.8915 56.9566 17.9975 56.9565 18.1035C56.9562 18.5135 56.9578 18.9233 56.969 19.3333C56.9694 19.3493 56.9699 19.3653 56.9703 19.3819C56.9715 19.4267 56.9729 19.4715 56.9743 19.5163C56.9754 19.554 56.9754 19.554 56.9766 19.5925C56.9791 19.6586 56.9791 19.6586 56.9949 19.7194C56.9974 19.7351 56.9999 19.7508 57.0025 19.767C56.9331 19.8364 56.863 19.8344 56.7681 19.8344C56.7472 19.8345 56.7263 19.8346 56.7048 19.8347C56.6709 19.8346 56.6709 19.8346 56.6363 19.8345C56.6009 19.8346 56.6009 19.8346 56.5647 19.8346C56.5145 19.8346 56.4642 19.8346 56.414 19.8345C56.3388 19.8344 56.2636 19.8345 56.1884 19.8346C55.9372 19.8347 55.6869 19.8314 55.4361 19.8176C55.312 19.8109 55.1885 19.809 55.0643 19.8101C54.949 19.8109 54.8358 19.8089 54.7208 19.7993C54.5521 19.7863 54.3835 19.7861 54.2144 19.7859C54.186 19.7858 54.1576 19.7857 54.1284 19.7856C54.1019 19.7856 54.0755 19.7857 54.0482 19.7857C54.0122 19.7857 54.0122 19.7857 53.9754 19.7858C53.9221 19.7824 53.9221 19.7824 53.8992 19.8101C53.8971 19.8641 53.8964 19.9175 53.8966 19.9715C53.8966 19.9887 53.8966 20.0059 53.8965 20.0236C53.8965 20.0821 53.8966 20.1405 53.8967 20.1989C53.8967 20.2409 53.8967 20.2829 53.8967 20.325C53.8967 20.4412 53.8968 20.5575 53.897 20.6737C53.8971 20.799 53.8971 20.9243 53.8972 21.0496C53.8972 21.2677 53.8974 21.4858 53.8976 21.7039C53.8978 22.0229 53.898 22.342 53.8981 22.661C53.8981 22.8106 53.8981 22.9601 53.8982 23.1097C53.8982 23.1247 53.8982 23.1397 53.8982 23.1551C53.8983 23.5129 53.8985 23.8707 53.8987 24.2285C53.8987 24.2441 53.8988 24.2598 53.8988 24.2759C53.8989 24.5903 53.8991 24.9048 53.8993 25.2192C53.8998 26.082 53.9003 26.9448 53.9005 27.8076C53.9005 27.8819 53.9005 27.9562 53.9006 28.0305C53.9011 29.8764 53.897 31.7222 53.8809 33.568C53.8789 33.8014 53.877 34.0347 53.8778 34.2681C53.8783 34.4352 53.8726 34.6022 53.8669 34.7692C53.8539 35.1437 53.8549 35.5168 53.8641 35.8914C53.8655 35.9495 53.8668 36.0077 53.8681 36.0658C53.869 36.1036 53.8699 36.1415 53.8708 36.1793C53.8712 36.1973 53.8717 36.2154 53.8721 36.234C53.8753 36.3494 53.8838 36.4627 53.9012 36.577C53.8992 36.6199 53.8992 36.6199 53.8736 36.6545C53.8211 36.6948 53.7897 36.6919 53.724 36.6906C53.7011 36.6903 53.6783 36.69 53.6548 36.6897C53.6299 36.689 53.605 36.6884 53.5793 36.6877C53.5532 36.6872 53.5271 36.6868 53.5002 36.6863C53.4289 36.685 53.3577 36.6834 53.2864 36.6816C53.2268 36.6801 53.1673 36.6789 53.1077 36.6777C52.5856 36.667 52.0639 36.6494 51.5423 36.6253C51.4449 36.6209 51.3476 36.617 51.2502 36.6134C50.3466 36.5789 50.3466 36.5789 50.0847 36.4044C50.0429 36.3801 50.0012 36.3559 49.9594 36.3317C49.9149 36.3057 49.8705 36.2796 49.826 36.2535C49.8108 36.2446 49.7956 36.2357 49.78 36.2266C49.6446 36.1449 49.5207 36.0475 49.395 35.9518C49.3492 35.9179 49.3034 35.884 49.2575 35.8503C49.2017 35.8059 49.1546 35.7543 49.1054 35.7026C49.0581 35.6576 49.0236 35.6313 48.964 35.607C48.964 35.5928 48.964 35.5786 48.964 35.5639C48.944 35.5539 48.944 35.5539 48.9236 35.5437C48.8347 35.4992 48.8347 35.4992 48.8037 35.4467C48.7723 35.3864 48.7723 35.3864 48.7054 35.3484C48.7054 35.3271 48.7054 35.3057 48.7054 35.2837C48.6912 35.2837 48.6769 35.2837 48.6623 35.2837C48.6442 35.2488 48.6263 35.2137 48.6084 35.1787C48.5984 35.1592 48.5884 35.1397 48.5781 35.1196C48.5545 35.0682 48.5545 35.0682 48.5545 35.0251C48.5376 35.0189 48.5207 35.0127 48.5033 35.0063C48.4468 34.982 48.4468 34.982 48.4037 34.9389C48.3459 34.6821 48.3334 34.4195 48.3268 34.1572C48.3259 34.1258 48.325 34.0945 48.3242 34.0631C48.3159 33.7526 48.3126 33.4421 48.3107 33.1315C48.3104 33.0832 48.31 33.0348 48.3097 32.9864C48.308 32.7516 48.3065 32.5168 48.3052 32.282C48.3048 32.2239 48.3045 32.1657 48.3041 32.1076C48.2916 30.0196 48.2968 27.9316 48.3025 25.8436C48.3036 25.445 48.3046 25.0464 48.3055 24.6477C48.3065 24.176 48.3076 23.7042 48.3088 23.2324C48.3089 23.1823 48.309 23.1322 48.3092 23.0821C48.3092 23.0451 48.3092 23.0451 48.3093 23.0075C48.3098 22.8357 48.3102 22.664 48.3105 22.4923C48.311 22.285 48.3115 22.0777 48.3121 21.8704C48.3125 21.7652 48.3127 21.6599 48.3129 21.5547C48.3131 21.4584 48.3134 21.3621 48.3137 21.2657C48.3139 21.2311 48.3139 21.1965 48.314 21.1619C48.3142 20.9714 48.3195 20.7827 48.3342 20.5927C48.3419 20.4791 48.3422 20.3657 48.3417 20.2519C48.3418 20.23 48.3419 20.208 48.342 20.1854C48.3418 20.0723 48.3372 19.9646 48.3175 19.8532C48.2944 19.8537 48.2712 19.8541 48.2474 19.8546C48.1826 19.8535 48.1412 19.847 48.0804 19.8317C48.0168 19.8283 47.9535 19.8261 47.8898 19.8248C47.8705 19.8244 47.8512 19.8239 47.8313 19.8235C47.7671 19.822 47.7028 19.8208 47.6386 19.8195C47.6165 19.8191 47.5944 19.8186 47.5716 19.8181C47.1596 19.8096 46.7478 19.8084 46.3357 19.8109C46.1199 19.812 45.9047 19.8103 45.689 19.8007C45.67 19.7998 45.6511 19.799 45.6315 19.7981C45.543 19.7937 45.4546 19.7878 45.3663 19.7797C45.351 19.7783 45.3357 19.7769 45.3199 19.7755C45.2788 19.767 45.2788 19.767 45.2141 19.7239C45.2063 19.6593 45.2063 19.6593 45.2066 19.5744C45.2066 19.5588 45.2066 19.5433 45.2066 19.5272C45.2066 19.4747 45.207 19.4222 45.2075 19.3697C45.2076 19.3321 45.2076 19.2946 45.2076 19.257C45.2078 19.1758 45.2081 19.0945 45.2086 19.0133C45.2094 18.8839 45.2097 18.7544 45.2099 18.625C45.2104 18.3721 45.2114 18.1193 45.2125 17.8665C45.2138 17.5479 45.2149 17.2293 45.2156 16.9108C45.2158 16.8037 45.2161 16.6966 45.2167 16.5896C45.2194 16.0994 45.2121 15.6116 45.1844 15.1221C45.1833 15.1034 45.1823 15.0847 45.1813 15.0654C45.1793 15.0305 45.1773 14.9957 45.1751 14.9609C45.1705 14.8781 45.1714 14.8045 45.1926 14.7241C45.2809 14.6999 45.3679 14.6963 45.4589 14.6925C45.4954 14.6908 45.5318 14.6891 45.5683 14.6874C45.6252 14.6849 45.682 14.6824 45.7389 14.6799C46.1332 14.6628 46.1332 14.6628 46.5231 14.6042C46.5829 14.5926 46.6404 14.5948 46.7011 14.5948C46.7083 14.5877 46.7154 14.5805 46.7227 14.5732C46.7682 14.5672 46.8137 14.5613 46.8593 14.556C47.0913 14.5288 47.3181 14.4852 47.5457 14.4331C47.5598 14.4299 47.5739 14.4267 47.5885 14.4234C47.9248 14.3497 47.9248 14.3497 48.2458 14.2292C48.3025 14.2039 48.36 14.1831 48.4185 14.1624C48.485 14.1389 48.5451 14.1146 48.6084 14.0829C48.6623 14.056 48.6623 14.056 48.7269 14.056C48.7269 14.0418 48.7269 14.0275 48.7269 14.0129C48.7518 14 48.7767 13.9871 48.8024 13.9738C49.0378 13.8424 49.2543 13.6868 49.4501 13.5016C49.528 13.4291 49.6121 13.3659 49.6967 13.3017C49.8299 13.1995 49.9517 13.0938 50.0671 12.9717C50.1062 12.9353 50.1062 12.9353 50.1493 12.9353C50.1706 12.8927 50.1706 12.8927 50.1924 12.8491C50.2066 12.8491 50.2209 12.8491 50.2355 12.8491C50.2436 12.8304 50.2436 12.8304 50.2519 12.8112C50.282 12.7567 50.3157 12.7223 50.3609 12.6795C50.3854 12.6558 50.3854 12.6558 50.4105 12.6316C50.4279 12.615 50.4452 12.5983 50.4631 12.5811C50.6005 12.4469 50.7149 12.3175 50.8186 12.1558C50.8736 12.0758 50.9384 12.0118 51.0086 11.9452C51.0531 11.9022 51.0936 11.8576 51.1339 11.8106C51.1979 11.7364 51.2628 11.6659 51.3346 11.5992C51.3488 11.5992 51.3631 11.5992 51.3777 11.5992C51.383 11.5864 51.3884 11.5737 51.3939 11.5605C51.4251 11.5055 51.4565 11.4794 51.507 11.4416C51.5243 11.4286 51.5416 11.4156 51.5595 11.4023C51.6916 11.3063 51.8243 11.2126 51.9641 11.1281C52.0041 11.1036 52.0041 11.1036 52.0437 11.0707C52.0947 11.0347 52.1414 11.0178 52.2007 10.9984C52.3011 10.9638 52.389 10.9207 52.4795 10.8654C52.5199 10.8449 52.5199 10.8449 52.5846 10.8449C52.5846 10.8307 52.5846 10.8164 52.5846 10.8018C52.7956 10.7263 52.9988 10.6805 53.2213 10.6531C53.3452 10.6371 53.451 10.6088 53.5664 10.5601C53.6612 10.5296 53.7577 10.5363 53.8561 10.5432Z" fill="#06BAF2"/>
<path d="M64.028 26.0815C64.0351 26.0815 64.0422 26.0815 64.0495 26.0815C64.0495 28.1938 64.0495 30.306 64.0495 32.4822C64.0353 32.4751 64.0211 32.468 64.0064 32.4606C64.0057 31.8743 64.0053 31.2879 64.0051 30.7015C64.0051 30.6799 64.005 30.6583 64.005 30.6361C64.0046 29.5345 64.0049 28.433 64.0172 27.3315C64.0174 27.3085 64.0177 27.2854 64.018 27.2617C64.021 26.9976 64.0242 26.7335 64.028 26.4695C64.0137 26.4695 63.9995 26.4695 63.9849 26.4695C63.9849 26.4339 63.9849 26.3983 63.9849 26.3617C63.992 26.3617 63.9991 26.3617 64.0064 26.3617C64.0135 26.2693 64.0206 26.1768 64.028 26.0815Z" fill="#2774BA"/>
<path d="M64.028 21.0818C64.0422 21.0889 64.0564 21.096 64.0711 21.1033C64.064 22.7391 64.0568 24.3748 64.0495 26.0601C64.0424 26.0458 64.0353 26.0316 64.028 26.017C64.0137 26.017 63.9995 26.017 63.9849 26.017C63.9849 26.0027 63.9849 25.9885 63.9849 25.9739C63.9991 25.9739 64.0133 25.9739 64.028 25.9739C64.028 25.9525 64.028 25.9312 64.028 25.9092C64.0137 25.9021 63.9995 25.895 63.9849 25.8877C63.992 25.8806 63.9991 25.8734 64.0064 25.8661C64.0085 25.8049 64.0091 25.7441 64.0089 25.6829C64.0089 25.6634 64.0089 25.6439 64.0089 25.6239C64.0089 25.5582 64.0087 25.4925 64.0085 25.4268C64.0085 25.3799 64.0084 25.333 64.0084 25.2861C64.0084 25.1849 64.0082 25.0837 64.008 24.9824C64.0077 24.8226 64.0076 24.6627 64.0075 24.5028C64.0073 24.1634 64.0069 23.8241 64.0064 23.4847C64.0059 23.1184 64.0055 22.7521 64.0053 22.3858C64.0052 22.2267 64.0049 22.0676 64.0047 21.9085C64.0045 21.8097 64.0044 21.7109 64.0044 21.6121C64.0043 21.5661 64.0043 21.5201 64.0041 21.4741C64.004 21.4116 64.004 21.3491 64.004 21.2866C64.0039 21.2681 64.0038 21.2497 64.0037 21.2307C64.004 21.1058 64.004 21.1058 64.028 21.0818Z" fill="#2A86C3"/>
<path d="M64.028 26.0815C64.0351 26.0815 64.0422 26.0815 64.0495 26.0815C64.0495 26.8852 64.0495 27.6888 64.0495 28.5168C64.0424 28.5168 64.0353 28.5168 64.028 28.5168C64.028 27.8412 64.028 27.1656 64.028 26.4695C64.0137 26.4695 63.9995 26.4695 63.9849 26.4695C63.9849 26.4339 63.9849 26.3983 63.9849 26.3617C63.992 26.3617 63.9991 26.3617 64.0064 26.3617C64.0135 26.2693 64.0206 26.1768 64.028 26.0815Z" fill="#2C94CB"/>
<path d="M67.4331 34.5942C67.4978 34.6589 67.4978 34.6589 67.4994 34.7321C67.4966 34.7604 67.4939 34.7887 67.491 34.8178C67.4785 34.9537 67.4785 34.9537 67.4762 35.0899C67.462 35.097 67.4478 35.1041 67.4331 35.1115C67.4331 34.9408 67.4331 34.7701 67.4331 34.5942Z" fill="#2263B2"/>
<path d="M81.8721 18.668C81.9147 18.6893 81.9147 18.6893 81.9583 18.7111C81.9583 18.9102 81.9583 19.1093 81.9583 19.3145C81.9167 19.2313 81.9102 19.2068 81.9125 19.1192C81.9128 19.0985 81.9131 19.0777 81.9135 19.0564C81.9146 19.013 81.9157 18.9695 81.9169 18.9261C81.9172 18.9054 81.9175 18.8846 81.9179 18.8633C81.9186 18.835 81.9186 18.835 81.9194 18.8061C81.9149 18.7502 81.9003 18.7159 81.8721 18.668Z" fill="#2981C1"/>
<path d="M63.9844 14.7888C63.9987 14.7888 64.0129 14.7888 64.0275 14.7888C64.0275 14.9168 64.0275 15.0448 64.0275 15.1767C63.9814 15.1075 63.9763 15.076 63.9696 14.9949C63.9668 14.9643 63.9668 14.9643 63.964 14.933C63.963 14.8796 63.9685 14.8395 63.9844 14.7888Z" fill="#1C2C94"/>
<path d="M76.2905 36.6201C76.4257 36.6201 76.5608 36.6201 76.7 36.6201C76.7 36.6272 76.7 36.6343 76.7 36.6417C76.4973 36.663 76.4973 36.663 76.2905 36.6848C76.2905 36.6634 76.2905 36.6421 76.2905 36.6201Z" fill="#1697D6"/>
<path d="M64.028 26.0815C64.0351 26.0815 64.0422 26.0815 64.0495 26.0815C64.0495 26.2167 64.0495 26.3518 64.0495 26.491C64.0282 26.4839 64.0068 26.4768 63.9849 26.4695C63.9849 26.4339 63.9849 26.3983 63.9849 26.3617C63.992 26.3617 63.9991 26.3617 64.0064 26.3617C64.0135 26.2693 64.0206 26.1768 64.028 26.0815Z" fill="#266EB6"/>
<path d="M64.0281 21.0818C64.0423 21.0889 64.0565 21.096 64.0712 21.1033C64.0687 21.1343 64.0659 21.1653 64.0631 21.1963C64.0616 21.2135 64.0601 21.2308 64.0585 21.2486C64.0496 21.2973 64.0496 21.2973 64.0065 21.362C64.0059 21.3193 64.0055 21.2766 64.0052 21.234C64.0049 21.2102 64.0047 21.1865 64.0044 21.162C64.0065 21.1033 64.0065 21.1033 64.0281 21.0818Z" fill="#1A69B9"/>
<path d="M58.5972 36.5122C58.639 36.5297 58.639 36.5297 58.6834 36.5553C58.6906 36.5766 58.6977 36.598 58.705 36.62C58.6834 36.6415 58.6834 36.6415 58.6282 36.6429C58.6022 36.6422 58.6022 36.6422 58.5757 36.6415C58.5828 36.5988 58.5899 36.5562 58.5972 36.5122Z" fill="#1E3799"/>
<path d="M53.8561 36.3831C53.8632 36.3831 53.8703 36.3831 53.8776 36.3831C53.8824 36.4216 53.8868 36.4603 53.8911 36.4989C53.8936 36.5204 53.8961 36.5419 53.8987 36.5641C53.8989 36.5826 53.899 36.6011 53.8992 36.6201C53.885 36.6343 53.8707 36.6486 53.8561 36.6632C53.8419 36.5921 53.8276 36.521 53.813 36.4477C53.8272 36.4406 53.8414 36.4335 53.8561 36.4262C53.8561 36.4119 53.8561 36.3977 53.8561 36.3831Z" fill="#2461B0"/>
<path d="M73.5534 19.5947C73.5979 19.6042 73.5979 19.6042 73.6396 19.6163C73.6258 19.6221 73.6121 19.6278 73.5979 19.6338C73.5463 19.6569 73.5463 19.6569 73.5319 19.724C73.5176 19.7169 73.5034 19.7098 73.4888 19.7025C73.5292 19.619 73.5292 19.619 73.5534 19.5947Z" fill="#1C2C94"/>
</g>
<defs>
<clipPath id="clip0_1279_1493">
<rect width="82.7559" height="46.5502" fill="white" transform="translate(0 0.349609)"/>
</clipPath>
</defs>
</svg>
