<svg width="33" height="33" viewBox="0 0 33 33" fill="none" xmlns="http://www.w3.org/2000/svg">
<g clip-path="url(#clip0_1279_1476)">
<path d="M8.8086 -0.0490788C8.8771 -0.0496821 8.9456 -0.0502854 9.01618 -0.0509069C9.24534 -0.0524475 9.4744 -0.0512284 9.70357 -0.0500111C9.868 -0.0505352 10.0324 -0.0512238 10.1969 -0.0520646C10.5969 -0.053645 10.9969 -0.0534137 11.3969 -0.0522918C11.7221 -0.0514177 12.0473 -0.0513003 12.3724 -0.0517209C12.4188 -0.0517802 12.4651 -0.0518394 12.5128 -0.0519005C12.6069 -0.0520241 12.701 -0.0521495 12.7951 -0.0522766C13.677 -0.0533788 14.559 -0.0521123 15.4409 -0.0500335C16.1973 -0.0483058 16.9537 -0.0486059 17.71 -0.0503888C18.5889 -0.0524593 19.4677 -0.0532726 20.3465 -0.0520856C20.4403 -0.0519624 20.534 -0.0518409 20.6277 -0.0517209C20.6739 -0.0516613 20.72 -0.0516016 20.7675 -0.0515401C21.0922 -0.0512065 21.4169 -0.0517692 21.7416 -0.0526798C22.1788 -0.053879 22.616 -0.0530227 23.0532 -0.0507871C23.2137 -0.0502756 23.3742 -0.050423 23.5347 -0.0512754C23.7537 -0.0523316 23.9726 -0.0510078 24.1916 -0.0490788C24.2552 -0.0499415 24.3188 -0.0508041 24.3843 -0.0516929C24.7597 -0.0452754 24.9692 0.0183873 25.2456 0.276686C25.4059 0.485191 25.449 0.721364 25.4994 0.974882C25.5248 1.08458 25.5507 1.19418 25.5769 1.30369C25.5894 1.35656 25.6019 1.40942 25.6148 1.46388C25.9412 2.74262 26.8924 3.82064 27.9848 4.5198C28.8508 5.03215 29.7398 5.30888 30.7241 5.47854C30.9822 5.528 31.1401 5.60506 31.3243 5.80081C31.4346 5.98614 31.4694 6.1217 31.47 6.33642C31.4705 6.39156 31.4709 6.4467 31.4714 6.50351C31.4713 6.56353 31.4711 6.62355 31.4709 6.68539C31.4714 6.7809 31.4714 6.7809 31.4719 6.87833C31.4728 7.08976 31.4728 7.30117 31.4726 7.51259C31.4729 7.66092 31.4731 7.80925 31.4734 7.95758C31.4739 8.26984 31.4739 8.5821 31.4736 8.89436C31.4733 9.21119 31.4737 9.52801 31.4749 9.84485C31.4908 14.1332 30.904 18.0762 28.8751 21.9141C28.8519 21.9584 28.8287 22.0028 28.8048 22.0485C27.8589 23.8451 26.6296 25.4453 25.2657 26.9414C25.1845 27.0328 25.1845 27.0328 25.1016 27.126C24.6968 27.5787 24.268 27.9949 23.8162 28.4005C23.7282 28.4799 23.6411 28.5603 23.5542 28.6409C22.0853 29.9942 20.3808 31.0943 18.635 32.0516C18.4966 32.1276 18.3585 32.2041 18.2205 32.2809C18.0064 32.3999 17.7912 32.5169 17.5757 32.6335C17.51 32.6702 17.4443 32.7069 17.3766 32.7447C16.973 32.9592 16.6351 33.109 16.1778 33C15.8405 32.8655 15.5254 32.6986 15.207 32.5247C15.1169 32.4766 15.0268 32.4286 14.9366 32.3807C14.6832 32.2454 14.4313 32.1075 14.1798 31.9688C14.1222 31.9373 14.0647 31.9058 14.0054 31.8733C12.8742 31.2487 11.7774 30.5137 10.7638 29.7129C10.686 29.6525 10.686 29.6525 10.6067 29.5908C9.43902 28.672 8.33055 27.67 7.34776 26.5547C7.31632 26.5194 7.28488 26.484 7.25249 26.4476C5.80964 24.821 4.6038 22.9765 3.67393 21.0117C3.65119 20.9642 3.62846 20.9167 3.60504 20.8677C2.1766 17.8634 1.52528 14.6454 1.52759 11.3319C1.52734 11.1799 1.52706 11.0279 1.52675 10.8759C1.52627 10.5603 1.52629 10.2447 1.52663 9.92907C1.527 9.52466 1.5259 9.12027 1.52441 8.71587C1.52347 8.4033 1.52341 8.09074 1.52361 7.77817C1.52358 7.62895 1.52324 7.47972 1.52259 7.3305C1.5218 7.12293 1.52223 6.9154 1.52298 6.70783C1.52248 6.64652 1.52199 6.58522 1.52148 6.52206C1.524 6.20683 1.53443 5.99196 1.74033 5.73636C1.92206 5.5684 2.07216 5.51156 2.31361 5.46721C2.37474 5.4553 2.43586 5.44339 2.49884 5.43112C2.56359 5.41885 2.62833 5.40659 2.69505 5.39395C3.89899 5.14796 4.93313 4.68559 5.86533 3.86722C5.91435 3.82434 5.96337 3.78147 6.01388 3.7373C6.70721 3.08955 7.20445 2.22648 7.42278 1.30445C7.43585 1.25013 7.44891 1.19581 7.46237 1.13984C7.48738 1.03256 7.51077 0.924889 7.53224 0.816849C7.60827 0.483205 7.71575 0.294847 7.98221 0.0796013C8.24437 -0.0704956 8.51328 -0.0530856 8.8086 -0.0490788Z" fill="#35B69D"/>
<path d="M8.8086 -0.0490788C8.8771 -0.0496821 8.9456 -0.0502854 9.01618 -0.0509069C9.24534 -0.0524475 9.4744 -0.0512284 9.70357 -0.0500111C9.868 -0.0505352 10.0324 -0.0512238 10.1969 -0.0520646C10.5969 -0.053645 10.9969 -0.0534137 11.3969 -0.0522918C11.7221 -0.0514177 12.0473 -0.0513003 12.3724 -0.0517209C12.4188 -0.0517802 12.4651 -0.0518394 12.5128 -0.0519005C12.6069 -0.0520241 12.701 -0.0521495 12.7951 -0.0522766C13.677 -0.0533788 14.559 -0.0521123 15.4409 -0.0500335C16.1973 -0.0483058 16.9537 -0.0486059 17.71 -0.0503888C18.5889 -0.0524593 19.4677 -0.0532726 20.3465 -0.0520856C20.4403 -0.0519624 20.534 -0.0518409 20.6277 -0.0517209C20.6739 -0.0516613 20.72 -0.0516016 20.7675 -0.0515401C21.0922 -0.0512065 21.4169 -0.0517692 21.7416 -0.0526798C22.1788 -0.053879 22.616 -0.0530227 23.0532 -0.0507871C23.2137 -0.0502756 23.3742 -0.050423 23.5347 -0.0512754C23.7537 -0.0523316 23.9726 -0.0510078 24.1916 -0.0490788C24.2552 -0.0499415 24.3188 -0.0508041 24.3843 -0.0516929C24.7597 -0.0452754 24.9692 0.0183873 25.2456 0.276686C25.4059 0.485191 25.449 0.721364 25.4994 0.974882C25.5248 1.08458 25.5507 1.19418 25.5769 1.30369C25.5894 1.35656 25.6019 1.40942 25.6148 1.46388C25.9412 2.74262 26.8924 3.82064 27.9848 4.5198C28.8508 5.03215 29.7398 5.30888 30.7241 5.47854C30.9822 5.528 31.1401 5.60506 31.3243 5.80081C31.4346 5.98614 31.4694 6.1217 31.47 6.33642C31.4705 6.39156 31.4709 6.4467 31.4714 6.50351C31.4713 6.56353 31.4711 6.62355 31.4709 6.68539C31.4714 6.7809 31.4714 6.7809 31.4719 6.87833C31.4728 7.08976 31.4728 7.30117 31.4726 7.51259C31.4729 7.66092 31.4731 7.80925 31.4734 7.95758C31.4739 8.26984 31.4739 8.5821 31.4736 8.89436C31.4733 9.21119 31.4737 9.52801 31.4749 9.84485C31.4908 14.1332 30.904 18.0762 28.8751 21.9141C28.8519 21.9584 28.8287 22.0028 28.8048 22.0485C27.8589 23.8451 26.6296 25.4453 25.2657 26.9414C25.1845 27.0328 25.1845 27.0328 25.1016 27.126C24.6968 27.5787 24.268 27.9949 23.8162 28.4005C23.7282 28.4799 23.6411 28.5603 23.5542 28.6409C22.0853 29.9942 20.3808 31.0943 18.635 32.0516C18.4966 32.1276 18.3585 32.2041 18.2205 32.2809C18.0064 32.3999 17.7912 32.5169 17.5757 32.6335C17.51 32.6702 17.4443 32.7069 17.3766 32.7447C16.973 32.9592 16.6351 33.109 16.1778 33C15.8405 32.8655 15.5254 32.6986 15.207 32.5247C15.1169 32.4766 15.0268 32.4286 14.9366 32.3807C14.6832 32.2454 14.4313 32.1075 14.1798 31.9688C14.1222 31.9373 14.0647 31.9058 14.0054 31.8733C12.8742 31.2487 11.7774 30.5137 10.7638 29.7129C10.686 29.6525 10.686 29.6525 10.6067 29.5908C9.43902 28.672 8.33055 27.67 7.34776 26.5547C7.31632 26.5194 7.28488 26.484 7.25249 26.4476C5.80964 24.821 4.6038 22.9765 3.67393 21.0117C3.65119 20.9642 3.62846 20.9167 3.60504 20.8677C2.1766 17.8634 1.52528 14.6454 1.52759 11.3319C1.52734 11.1799 1.52706 11.0279 1.52675 10.8759C1.52627 10.5603 1.52629 10.2447 1.52663 9.92907C1.527 9.52466 1.5259 9.12027 1.52441 8.71587C1.52347 8.4033 1.52341 8.09074 1.52361 7.77817C1.52358 7.62895 1.52324 7.47972 1.52259 7.3305C1.5218 7.12293 1.52223 6.9154 1.52298 6.70783C1.52248 6.64652 1.52199 6.58522 1.52148 6.52206C1.524 6.20683 1.53443 5.99196 1.74033 5.73636C1.92206 5.5684 2.07216 5.51156 2.31361 5.46721C2.37474 5.4553 2.43586 5.44339 2.49884 5.43112C2.56359 5.41885 2.62833 5.40659 2.69505 5.39395C3.89899 5.14796 4.93313 4.68559 5.86533 3.86722C5.91435 3.82434 5.96337 3.78147 6.01388 3.7373C6.70721 3.08955 7.20445 2.22648 7.42278 1.30445C7.43585 1.25013 7.44891 1.19581 7.46237 1.13984C7.48738 1.03256 7.51077 0.924889 7.53224 0.816849C7.60827 0.483205 7.71575 0.294847 7.98221 0.0796013C8.24437 -0.0704956 8.51328 -0.0530856 8.8086 -0.0490788ZM9.59606 2.66073C9.44945 2.87243 9.32976 3.09236 9.20884 3.31936C8.93308 3.82127 8.61856 4.26755 8.2501 4.70511C8.19585 4.77 8.14159 4.83488 8.08569 4.90174C7.19206 5.9374 6.05594 6.66799 4.80318 7.19579C4.45373 7.3505 4.20028 7.53407 3.99619 7.86331C3.92968 8.07259 3.92285 8.26667 3.92135 8.48551C3.92074 8.55912 3.92014 8.63273 3.91951 8.70856C3.91922 8.7883 3.91894 8.86804 3.91865 8.9502C3.91819 9.03316 3.91774 9.11612 3.91727 9.2016C3.91599 9.4712 3.91568 9.7408 3.91563 10.0104C3.91561 10.0561 3.91559 10.1018 3.91557 10.1489C3.9151 12.1384 3.9151 12.1384 4.1251 14.1153C4.1379 14.1968 4.15071 14.2784 4.1639 14.3625C4.34935 15.5158 4.63196 16.6252 5.02744 17.7246C5.0489 17.7846 5.07036 17.8446 5.09246 17.9063C5.23485 18.3002 5.38557 18.6901 5.54307 19.0782C5.56262 19.1267 5.58218 19.1752 5.60233 19.2252C6.29258 20.9152 7.30018 22.4933 8.44346 23.9121C8.51337 24.0006 8.51337 24.0006 8.5847 24.0909C9.49056 25.222 10.5233 26.3075 11.6661 27.1993C11.7858 27.3011 11.9053 27.4032 12.0246 27.5054C12.9405 28.2671 13.9309 28.911 14.9532 29.5196C15.0068 29.552 15.0605 29.5844 15.1157 29.6178C15.2689 29.71 15.423 29.8004 15.5776 29.8902C15.6223 29.9171 15.667 29.9441 15.7131 29.9719C16.0488 30.1622 16.3689 30.2599 16.7579 30.2285C16.9849 30.1588 17.181 30.0527 17.3863 29.9345C17.4441 29.9027 17.5018 29.8708 17.5614 29.838C18.613 29.2493 19.613 28.5879 20.5606 27.8438C20.6183 27.7991 20.676 27.7544 20.7354 27.7083C21.3363 27.2358 21.939 26.7458 22.4686 26.1934C22.5587 26.1035 22.5587 26.1035 22.748 25.9545C22.7919 25.9186 22.8358 25.8827 22.881 25.8457C22.881 25.8032 22.881 25.7607 22.881 25.7168C22.9235 25.7168 22.966 25.7168 23.0099 25.7168C23.1001 25.6301 23.1001 25.6301 23.1952 25.5114C23.3667 25.3086 23.5434 25.1132 23.7266 24.9209C24.2184 24.4016 24.6477 23.8423 25.0724 23.2676C25.1011 23.2293 25.1298 23.191 25.1594 23.1516C26.3363 21.5833 27.2322 19.8178 27.9083 17.9825C27.9298 17.9241 27.9513 17.8658 27.9735 17.8058C28.7159 15.7613 29.0737 13.6204 29.0838 11.4488C29.0841 11.4002 29.0843 11.3517 29.0846 11.3017C29.0859 11.0459 29.0869 10.7901 29.0875 10.5344C29.0882 10.2713 29.0904 10.0083 29.093 9.74533C29.0947 9.54157 29.0952 9.33782 29.0954 9.13406C29.0957 9.03705 29.0965 8.94004 29.0977 8.84305C29.0993 8.70766 29.0992 8.57237 29.0987 8.43698C29.0991 8.36022 29.0995 8.28346 29.0999 8.20436C29.0525 7.88422 28.8957 7.6863 28.6649 7.46702C28.4479 7.3203 28.2242 7.21885 27.9848 7.11404C26.0376 6.22663 24.4368 4.7268 23.5262 2.78259C23.3548 2.51226 23.1411 2.30212 22.8201 2.22628C22.6814 2.21474 22.546 2.2132 22.4068 2.2154C22.3543 2.21494 22.3019 2.21448 22.2478 2.21401C22.0728 2.21288 21.8979 2.21405 21.7229 2.21521C21.5971 2.21488 21.4713 2.21441 21.3455 2.21381C21.0045 2.21262 20.6635 2.21345 20.3224 2.21472C19.9654 2.21578 19.6083 2.21521 19.2512 2.21488C18.6517 2.21459 18.0522 2.21561 17.4527 2.21741C16.7597 2.21948 16.0666 2.21948 15.3736 2.21837C14.7067 2.21734 14.0398 2.21778 13.3729 2.21888C13.0892 2.21932 12.8054 2.21926 12.5217 2.21878C12.1876 2.21829 11.8535 2.21907 11.5195 2.22083C11.3969 2.22128 11.2743 2.22128 11.1517 2.22082C10.9843 2.22026 10.817 2.22129 10.6496 2.22272C10.5769 2.22192 10.5769 2.22192 10.5028 2.22111C10.0994 2.22747 9.86584 2.37005 9.59606 2.66073Z" fill="#E0E5E8"/>
<path d="M10.3767 2.24807C10.4306 2.24798 10.4844 2.24789 10.5399 2.2478C10.6287 2.24815 10.6287 2.24815 10.7193 2.2485C10.7816 2.2485 10.8438 2.24849 10.908 2.24848C11.1145 2.24852 11.3209 2.24902 11.5274 2.24953C11.6702 2.24965 11.8131 2.24974 11.956 2.2498C12.3326 2.25005 12.7092 2.25068 13.0857 2.2514C13.5373 2.25217 13.9888 2.25247 14.4404 2.25284C15.1269 2.25347 15.8133 2.2547 16.4998 2.25582C16.4998 3.19168 16.4998 4.12754 16.4998 5.09176C15.9894 5.15557 15.9894 5.15557 15.4686 5.22067C14.245 5.58906 13.2791 6.30145 12.6465 7.42265C12.1446 8.4362 12.1485 9.45658 12.1372 10.5622C12.135 10.7072 12.1328 10.8521 12.1305 10.997C12.1251 11.3489 12.1206 11.7008 12.117 12.0527C12.0585 12.0541 12.0585 12.0541 11.9989 12.0555C11.8207 12.0604 11.6426 12.0666 11.4644 12.0728C11.4031 12.0743 11.3418 12.0757 11.2786 12.0772C10.885 12.0923 10.5743 12.1304 10.2708 12.4072C10.0619 12.6755 9.98238 12.8553 9.98014 13.1918C9.97958 13.2536 9.97903 13.3155 9.97846 13.3793C9.97818 13.4471 9.97791 13.5149 9.97763 13.5848C9.9771 13.6563 9.97657 13.7278 9.97603 13.8014C9.97443 14.0385 9.97336 14.2756 9.97243 14.5127C9.97192 14.6342 9.97192 14.6342 9.97139 14.7581C9.97002 15.0984 9.96879 15.4387 9.96807 15.779C9.96702 16.2659 9.96488 16.7527 9.96121 17.2396C9.95841 17.6238 9.95738 18.0079 9.95697 18.3921C9.95654 18.5552 9.95556 18.7183 9.95401 18.8814C9.95197 19.1099 9.95197 19.3383 9.95245 19.5668C9.95139 19.634 9.95033 19.7011 9.94924 19.7703C9.95291 20.1992 10.0248 20.492 10.3123 20.8183C10.5847 21.0566 10.8644 21.0401 11.2096 21.0395C11.2678 21.0402 11.3259 21.0409 11.3859 21.0416C11.5736 21.0435 11.7613 21.0441 11.9491 21.0447C12.0652 21.0457 12.1814 21.0467 12.2975 21.0479C12.7274 21.0516 13.1574 21.0537 13.5873 21.056C15.029 21.066 15.029 21.066 16.4998 21.0761C16.4998 24.0751 16.4998 27.0741 16.4998 30.164C16.0644 30.164 16.0644 30.164 15.8432 30.0407C15.7936 30.0133 15.744 29.986 15.6929 29.9579C15.6401 29.9275 15.5874 29.8972 15.533 29.8659C15.4771 29.8343 15.4211 29.8028 15.3635 29.7702C14.2911 29.1574 13.2759 28.4848 12.3104 27.7148C12.2513 27.6687 12.1922 27.6226 12.1314 27.5751C11.9745 27.4517 11.8199 27.326 11.6658 27.1992C11.604 27.1493 11.5422 27.0995 11.4785 27.0481C10.9586 26.621 10.4787 26.1547 10.0021 25.6805C9.95498 25.6338 9.95498 25.6338 9.90687 25.5862C9.47499 25.158 9.07954 24.7105 8.70099 24.2343C8.63805 24.1587 8.57489 24.0832 8.51141 24.008C7.63135 22.9494 6.88816 21.7796 6.25178 20.5605C6.20814 20.4792 6.1645 20.3979 6.12086 20.3165C5.21842 18.6042 4.59388 16.7255 4.25373 14.8242C4.23893 14.7436 4.23893 14.7436 4.22383 14.6614C3.96311 13.2237 3.90846 11.781 3.91112 10.3228C3.9115 10.0966 3.91038 9.87052 3.9089 9.64438C3.90773 9.4253 3.90797 9.20623 3.90805 8.98715C3.90746 8.90671 3.90686 8.82628 3.90625 8.74342C3.90895 8.23771 3.9244 7.8764 4.29024 7.49944C4.55264 7.30132 4.85318 7.17825 5.15204 7.04549C7.077 6.15608 8.49807 4.70855 9.4777 2.83514C9.69483 2.50227 9.96544 2.24755 10.3767 2.24807Z" fill="#4AD094"/>
<path d="M19.1209 5.88118C20.0638 6.65026 20.7514 7.6647 20.883 8.89446C20.9126 9.43905 20.9013 9.98486 20.895 10.53C20.8941 10.678 20.8932 10.826 20.8924 10.9741C20.8903 11.3336 20.8871 11.6931 20.883 12.0527C20.9239 12.0517 20.9648 12.0506 21.007 12.0496C21.1939 12.0456 21.3808 12.0431 21.5678 12.0406C21.6322 12.039 21.6965 12.0373 21.7629 12.0357C22.1713 12.0316 22.4806 12.0527 22.7936 12.345C22.9933 12.606 23.0822 12.7371 23.0838 13.0628C23.0845 13.1581 23.0845 13.1581 23.0852 13.2553C23.0854 13.3253 23.0856 13.3952 23.0858 13.4673C23.0862 13.5408 23.0866 13.6142 23.0871 13.6899C23.0883 13.934 23.0891 14.178 23.0897 14.4221C23.09 14.5053 23.0902 14.5885 23.0905 14.6743C23.0917 15.0694 23.0927 15.4645 23.0932 15.8596C23.0938 16.3153 23.0955 16.7709 23.0981 17.2266C23.1003 17.6215 23.1011 18.0164 23.1013 18.4114C23.1016 18.5792 23.1024 18.747 23.1036 18.9149C23.1052 19.1498 23.1051 19.3848 23.1047 19.6198C23.1059 19.7237 23.1059 19.7237 23.1072 19.8298C23.1043 20.237 23.0737 20.4952 22.8165 20.8183C22.4965 21.0361 22.2589 21.114 21.8693 21.1097C21.7974 21.1104 21.7974 21.1104 21.724 21.1112C21.5645 21.1125 21.405 21.112 21.2455 21.1115C21.1307 21.1121 21.0159 21.1127 20.9011 21.1135C20.59 21.1152 20.279 21.1153 19.9679 21.115C19.7079 21.1148 19.448 21.1155 19.188 21.1161C18.5746 21.1175 17.9613 21.1176 17.3479 21.1168C16.7156 21.116 16.0834 21.1176 15.4511 21.1203C14.9077 21.1226 14.3644 21.1234 13.821 21.123C13.4966 21.1227 13.1724 21.1231 12.8481 21.1249C12.5431 21.1265 12.2381 21.1262 11.9331 21.1246C11.8214 21.1243 11.7097 21.1246 11.5979 21.1257C10.5588 21.1349 10.5588 21.1349 10.2072 20.7967C9.89135 20.4111 9.89811 20.0642 9.9009 19.5845C9.90056 19.5128 9.90022 19.441 9.89988 19.3671C9.89903 19.1304 9.89959 18.8938 9.90024 18.6571C9.90011 18.4924 9.89992 18.3277 9.89968 18.163C9.8994 17.818 9.89979 17.473 9.90071 17.1279C9.90177 16.7297 9.90143 16.3314 9.90036 15.9331C9.89938 15.5492 9.89948 15.1653 9.90005 14.7814C9.90018 14.6184 9.90002 14.4553 9.89957 14.2923C9.89908 14.0644 9.89983 13.8366 9.9009 13.6087C9.90051 13.5414 9.90012 13.4741 9.89972 13.4048C9.90329 12.9961 9.94151 12.6966 10.2301 12.3837C10.2679 12.3529 10.3058 12.3221 10.3449 12.2903C10.4017 12.2429 10.4017 12.2429 10.4597 12.1944C10.6625 12.0529 10.8397 12.0449 11.0788 12.0464C11.1392 12.0466 11.1997 12.0468 11.2619 12.047C11.3563 12.0478 11.3563 12.0478 11.4527 12.0486C11.5163 12.0489 11.58 12.0492 11.6456 12.0495C11.8029 12.0503 11.9601 12.0513 12.1173 12.0527C12.1169 12.0159 12.1165 11.9792 12.116 11.9413C12.1117 11.5543 12.1088 11.1674 12.1067 10.7804C12.1057 10.6365 12.1044 10.4927 12.1027 10.3488C12.0805 8.3976 12.0805 8.3976 12.5443 7.52886C12.5666 7.48595 12.589 7.44303 12.612 7.39882C13.1957 6.31552 14.1857 5.55283 15.344 5.15618C16.5986 4.86925 18.085 5.10302 19.1209 5.88118Z" fill="#626A75"/>
<path d="M23.4609 6.45494e-05C23.6878 -0.0112552 23.9146 -0.0180651 24.1417 -0.0241054C24.2056 -0.0273457 24.2694 -0.0305859 24.3352 -0.0339244C24.6481 -0.0401606 24.8844 -0.0351686 25.14 0.158176C25.374 0.396361 25.4357 0.654868 25.4993 0.974918C25.5247 1.08461 25.5506 1.19422 25.5768 1.30373C25.5893 1.35659 25.6018 1.40945 25.6147 1.46392C25.9411 2.74266 26.8923 3.82068 27.9847 4.51984C28.8507 5.03219 29.7397 5.30892 30.724 5.47858C30.9821 5.52803 31.14 5.6051 31.3242 5.80085C31.4345 5.98618 31.4693 6.12174 31.4699 6.33646C31.4704 6.39159 31.4708 6.44673 31.4713 6.50354C31.4712 6.56356 31.471 6.62359 31.4708 6.68543C31.4712 6.7491 31.4715 6.81277 31.4718 6.87837C31.4727 7.08979 31.4727 7.30121 31.4725 7.51263C31.4728 7.66096 31.473 7.80929 31.4733 7.95762C31.4738 8.26988 31.4738 8.58213 31.4735 8.89439C31.4732 9.21123 31.4736 9.52805 31.4748 9.84489C31.4907 14.1332 30.9039 18.0763 28.875 21.9141C28.8518 21.9585 28.8286 22.0028 28.8047 22.0485C27.8588 23.8452 26.6295 25.4454 25.2656 26.9415C25.2115 27.0024 25.1573 27.0633 25.1015 27.126C24.6967 27.5787 24.2679 27.9949 23.8161 28.4005C23.7281 28.4799 23.641 28.5604 23.5541 28.6409C22.026 30.0488 20.2494 31.1683 18.4336 32.1622C18.3626 32.2014 18.2915 32.2406 18.2184 32.281C18.0021 32.3998 17.785 32.5169 17.5675 32.6335C17.5007 32.6702 17.434 32.7069 17.3652 32.7447C16.9908 32.9424 16.7311 33.0461 16.3066 33.0001C16.4459 32.8485 16.5805 32.7532 16.7623 32.6577C16.8142 32.63 16.8661 32.6023 16.9196 32.5737C16.9752 32.5443 17.0308 32.5148 17.0881 32.4844C19.5282 31.1654 21.828 29.3533 23.6543 27.2637C23.6999 27.2122 23.6999 27.2122 23.7465 27.1597C26.5403 24.0054 28.4363 20.0992 29.1812 15.9562C29.194 15.8866 29.2068 15.8169 29.22 15.7452C29.4395 14.4548 29.4754 13.1446 29.4745 11.8385C29.4747 11.6958 29.475 11.5531 29.4753 11.4104C29.4758 11.1152 29.4758 10.8199 29.4754 10.5247C29.475 10.1469 29.4762 9.769 29.4776 9.39113C29.4786 9.09813 29.4786 8.80514 29.4784 8.51214C29.4785 8.37268 29.4788 8.23323 29.4795 8.09377C29.4803 7.89999 29.4798 7.70624 29.4791 7.51246C29.4796 7.45551 29.4801 7.39856 29.4806 7.33988C29.4778 7.01529 29.4427 6.7907 29.2617 6.50983C29.0338 6.33074 28.8414 6.28951 28.5568 6.26008C27.3087 6.08479 26.2707 5.45373 25.3945 4.57624C25.3532 4.53951 25.3119 4.50279 25.2694 4.46495C24.2738 3.56411 23.7734 2.18445 23.5254 0.902408C23.5127 0.850979 23.5 0.79955 23.4869 0.746563C23.4481 0.498073 23.456 0.251022 23.4609 6.45494e-05Z" fill="#CBCBCB"/>
<path d="M20.9473 2.256C21.2236 2.24799 21.4998 2.24217 21.7761 2.2383C21.87 2.23669 21.9638 2.2345 22.0576 2.23169C23.0187 2.20371 23.0187 2.20371 23.3134 2.47408C23.4722 2.67324 23.5862 2.88627 23.6986 3.11404C24.686 4.98435 26.231 6.30208 28.129 7.19372C28.5582 7.39704 28.8501 7.55588 29.0684 7.99233C29.0749 8.12832 29.0773 8.26452 29.0777 8.40067C29.0779 8.44263 29.0782 8.48458 29.0784 8.5278C29.079 8.66738 29.0791 8.80696 29.0792 8.94654C29.0794 9.04442 29.0796 9.1423 29.0798 9.24019C29.0802 9.44641 29.0803 9.65264 29.0803 9.85886C29.0803 10.068 29.0807 10.2771 29.0816 10.4863C29.0909 12.6972 29.0909 12.6972 28.9395 13.7931C28.9264 13.8976 28.9264 13.8976 28.913 14.0043C28.4703 17.363 27.0769 20.5546 25.0723 23.2677C25.0449 23.305 25.0175 23.3422 24.9893 23.3806C24.437 24.1277 23.8375 24.8555 23.1638 25.4966C23.0669 25.5861 23.0669 25.5861 23.0098 25.7169C22.9672 25.7169 22.9247 25.7169 22.8809 25.7169C22.8655 25.754 22.8501 25.7911 22.8343 25.8292C22.7346 26.0054 22.6188 26.1081 22.4659 26.2406C22.2303 26.4469 21.9983 26.6557 21.769 26.869C21.3619 27.2386 20.9348 27.5773 20.4961 27.9083C20.4526 27.9412 20.4092 27.974 20.3644 28.0078C19.4134 28.7213 18.4153 29.3595 17.3701 29.9265C17.3258 29.951 17.2815 29.9754 17.2358 30.0006C17.0034 30.1231 16.8286 30.1942 16.5645 30.1642C16.8476 29.9313 17.1443 29.7203 17.4426 29.5076C17.8949 29.1828 18.3311 28.8487 18.7559 28.4884C18.8269 28.4293 18.898 28.3702 18.9691 28.3112C19.3065 28.03 19.6375 27.7476 19.9425 27.4307C20.0522 27.321 20.1678 27.2226 20.2866 27.1228C20.6134 26.841 20.8967 26.5198 21.1839 26.1989C21.2615 26.1126 21.3401 26.0274 21.4188 25.9423C21.8256 25.5006 22.1934 25.0328 22.5586 24.5568C22.5901 24.516 22.6216 24.4753 22.6541 24.4333C23.1529 23.7876 23.6116 23.1236 24.041 22.4298C24.0681 22.3863 24.0951 22.3427 24.123 22.2978C24.9044 21.0303 25.5147 19.6969 26.0391 18.3048C26.0561 18.2603 26.0732 18.2158 26.0908 18.17C26.9836 15.8214 27.1592 13.2909 27.1622 10.8049C27.1625 10.5764 27.165 10.348 27.1679 10.1196C27.1698 9.94057 27.1703 9.76159 27.1704 9.58259C27.1708 9.45791 27.1726 9.33325 27.1746 9.20859C27.1722 8.74679 27.1334 8.40643 26.8125 8.05679C26.6483 7.93236 26.6483 7.93236 26.462 7.8594C26.3942 7.82849 26.3264 7.79758 26.2566 7.76574C26.1848 7.73417 26.113 7.7026 26.0391 7.67007C25.0712 7.21693 24.2526 6.63937 23.4609 5.92983C23.41 5.88439 23.3591 5.83894 23.3066 5.79211C22.6058 5.12917 22.0936 4.33007 21.6445 3.48334C21.4581 3.13248 21.2617 2.80993 21.021 2.49317C20.9473 2.38491 20.9473 2.38491 20.9473 2.256Z" fill="#1F9690"/>
<path d="M18.7559 6.832C19.1311 7.13786 19.3638 7.50563 19.5938 7.92771C19.631 7.9955 19.6682 8.0633 19.7065 8.13315C20.2554 9.36799 19.916 10.6807 19.916 12.0527C17.6614 12.0527 15.4069 12.0527 13.084 12.0527C13.084 8.07103 13.084 8.07103 14.0588 7.04148C15.4276 5.74321 17.2671 5.72556 18.7559 6.832Z" fill="#35B69D"/>
<path d="M19.0137 5.80081C19.9748 6.52282 20.6861 7.5409 20.8666 8.74282C20.9298 9.33413 20.9017 9.93642 20.8949 10.5301C20.8939 10.6781 20.893 10.8261 20.8922 10.9742C20.8901 11.3337 20.8869 11.6932 20.8828 12.0528C20.9237 12.0517 20.9647 12.0507 21.0068 12.0497C21.1938 12.0457 21.3807 12.0431 21.5676 12.0407C21.632 12.0391 21.6964 12.0374 21.7627 12.0358C22.1711 12.0317 22.4804 12.0528 22.7935 12.3451C22.9931 12.6061 23.0821 12.7371 23.0837 13.0629C23.0844 13.1582 23.0844 13.1582 23.0851 13.2554C23.0853 13.3254 23.0854 13.3953 23.0856 13.4674C23.086 13.5409 23.0865 13.6143 23.0869 13.69C23.0882 13.9341 23.0889 14.1781 23.0896 14.4222C23.0898 14.5054 23.0901 14.5886 23.0904 14.6744C23.0916 15.0695 23.0925 15.4646 23.093 15.8597C23.0937 16.3154 23.0954 16.771 23.098 17.2267C23.1002 17.6216 23.1009 18.0165 23.1012 18.4115C23.1015 18.5793 23.1022 18.7471 23.1034 18.9149C23.105 19.1499 23.1049 19.3849 23.1045 19.6199C23.1057 19.7238 23.1057 19.7238 23.107 19.8299C23.1042 20.2386 23.0599 20.486 22.8164 20.8184C22.4012 21.1794 21.8902 21.1052 21.3702 21.0923C21.2791 21.091 21.188 21.0898 21.0969 21.0888C20.8751 21.086 20.6534 21.0815 20.4316 21.0762C20.4902 21.0327 20.4902 21.0327 20.55 20.9883C20.9114 20.715 21.0683 20.4925 21.1406 20.0449C21.1578 19.8127 21.1583 19.5815 21.1573 19.3487C21.1575 19.2808 21.1577 19.2129 21.158 19.143C21.1585 18.9199 21.1582 18.6968 21.1577 18.4736C21.1578 18.318 21.1579 18.1623 21.1581 18.0066C21.1583 17.6808 21.158 17.355 21.1574 17.0293C21.1567 16.6121 21.1571 16.195 21.1579 15.7779C21.1583 15.4566 21.1582 15.1353 21.1579 14.814C21.1578 14.6602 21.1579 14.5064 21.1582 14.3526C21.1585 14.1375 21.158 13.9225 21.1573 13.7075C21.1577 13.6126 21.1577 13.6126 21.1581 13.5158C21.1558 13.1376 21.1529 12.7613 20.9208 12.4443C20.8857 12.4148 20.8505 12.3853 20.8143 12.3549C20.7803 12.3246 20.7464 12.2942 20.7113 12.263C20.5571 12.1798 20.4317 12.1482 20.2611 12.1121C20.2086 12.1009 20.1561 12.0897 20.102 12.0781C20.0619 12.0697 20.0218 12.0614 19.9805 12.0528C19.9788 11.9738 19.9772 11.8948 19.9756 11.8135C19.9695 11.5183 19.963 11.2232 19.9565 10.9281C19.9537 10.8007 19.951 10.6734 19.9484 10.5461C19.9446 10.3622 19.9406 10.1784 19.9364 9.99454C19.9353 9.93832 19.9342 9.8821 19.9331 9.82418C19.9071 8.72957 19.6288 7.80524 18.8669 6.98866C18.2288 6.41923 17.4352 6.08431 16.5806 6.09487C16.5243 6.09541 16.468 6.09594 16.41 6.09649C15.43 6.1219 14.6076 6.52404 13.9309 7.23237C13.3665 7.96778 13.1322 8.76988 13.1217 9.68612C13.1205 9.75406 13.1192 9.822 13.118 9.892C13.1141 10.1074 13.1111 10.3227 13.1081 10.5381C13.1057 10.6848 13.1032 10.8315 13.1006 10.9782C13.0944 11.3364 13.089 11.6946 13.084 12.0528C12.7862 12.0528 12.4884 12.0528 12.1816 12.0528C12.1736 11.5644 12.1678 11.0761 12.1639 10.5878C12.1623 10.422 12.1601 10.2562 12.1573 10.0905C12.1282 8.32341 12.1282 8.32341 12.5039 7.60549C12.5396 7.53547 12.5753 7.46544 12.6121 7.3933C13.1744 6.33468 14.0999 5.63855 15.2109 5.22073C16.4814 4.8332 17.9042 5.10286 19.0137 5.80081Z" fill="#505A66"/>
<path d="M16.5003 6.05859C16.5003 8.03666 16.5003 10.0147 16.5003 12.0527C15.373 12.0527 14.2457 12.0527 13.0843 12.0527C13.079 11.5595 13.0737 11.0664 13.0682 10.5582C13.0658 10.4043 13.0635 10.2505 13.0611 10.0919C13.0548 9.39356 13.0547 8.76995 13.3421 8.12109C13.3701 8.05779 13.3982 7.99448 13.427 7.92926C13.8138 7.10618 14.5553 6.49958 15.3973 6.18171C15.7936 6.06176 16.0626 6.05859 16.5003 6.05859Z" fill="#4AD093"/>
<path d="M16.8864 14.9534C17.2027 15.1029 17.3898 15.3219 17.5954 15.5979C17.7033 15.9218 17.734 16.22 17.5803 16.5337C17.4294 16.7648 17.3114 16.9259 17.0797 17.0803C17.0501 17.2309 17.0501 17.2309 17.0536 17.4059C17.0521 17.4709 17.0507 17.5359 17.0493 17.6029C17.0487 17.671 17.0481 17.7392 17.0475 17.8094C17.0464 17.9435 17.0444 18.0775 17.0415 18.2115C17.041 18.2711 17.0406 18.3307 17.0401 18.3921C17.0101 18.5985 16.9473 18.7192 16.8219 18.885C16.6044 18.9575 16.6044 18.9575 16.3708 18.9495C16.1965 18.8359 16.1965 18.8359 16.0485 18.6272C16.0005 18.3028 16.0206 17.9752 16.0309 17.6484C16.0416 17.2769 16.0416 17.2769 15.8855 16.9546C15.7675 16.8534 15.7675 16.8534 15.6427 16.776C15.4579 16.6374 15.411 16.4829 15.3778 16.2595C15.3646 15.8367 15.4011 15.5798 15.6746 15.2512C16.0504 14.9129 16.3976 14.8943 16.8864 14.9534Z" fill="#EEEEEE"/>
</g>
<defs>
<clipPath id="clip0_1279_1476">
<rect width="33" height="33" fill="white"/>
</clipPath>
</defs>
</svg>
