<svg width="13" height="13" viewBox="0 0 13 13" fill="none" xmlns="http://www.w3.org/2000/svg">
<g clip-path="url(#clip0_1286_996)">
<path d="M3.70228 -0.0143051C3.72234 -0.0153852 3.7424 -0.0164653 3.76308 -0.0175781C3.96273 0.0318481 4.12186 0.229902 4.26176 0.371117C4.28247 0.391835 4.30318 0.412553 4.32451 0.4339C4.36803 0.4775 4.4115 0.521162 4.4549 0.564881C4.52088 0.631327 4.58707 0.697567 4.65328 0.763779C4.69576 0.806382 4.73823 0.848997 4.78068 0.891624C4.80023 0.911203 4.81978 0.930781 4.83993 0.950953C4.85857 0.969763 4.87722 0.988573 4.89644 1.00795C4.92063 1.0323 4.92063 1.0323 4.94532 1.05713C4.99218 1.1068 5.03671 1.15733 5.08117 1.20911C5.17993 1.32215 5.28443 1.42842 5.39079 1.53427C5.41135 1.55483 5.43191 1.57539 5.45309 1.59658C5.52154 1.66502 5.59009 1.73336 5.65863 1.80171C5.70791 1.85092 5.75717 1.90016 5.80643 1.94939C5.91226 2.05515 6.01814 2.16087 6.12405 2.26656C6.27722 2.4194 6.4303 2.57233 6.58336 2.72528C6.83179 2.97353 7.08026 3.22173 7.32877 3.46989C7.34362 3.48472 7.35848 3.49955 7.37378 3.51483C7.47925 3.62015 7.58472 3.72547 7.69019 3.83079C7.81094 3.95136 7.93169 4.07193 8.05243 4.1925C8.06731 4.20736 8.08219 4.22222 8.09752 4.23753C8.34532 4.48499 8.59308 4.73249 8.8408 4.98004C8.99357 5.13269 9.14638 5.2853 9.29926 5.43786C9.40383 5.54222 9.50836 5.64663 9.61286 5.75107C9.6732 5.81138 9.73357 5.87166 9.79398 5.93189C9.85935 5.99708 9.92463 6.06233 9.9899 6.12761C10.0188 6.15637 10.0188 6.15637 10.0483 6.18572C10.0656 6.20312 10.083 6.22052 10.1009 6.23844C10.116 6.25351 10.1311 6.26857 10.1466 6.2841C10.2068 6.34967 10.2143 6.40351 10.2197 6.49046C10.2216 6.51121 10.2234 6.53196 10.2253 6.55334C10.1778 6.74476 9.95578 6.90712 9.81923 7.04301C9.79878 7.06346 9.77833 7.08392 9.75726 7.105C9.68916 7.17308 9.62097 7.24107 9.55278 7.30906C9.50375 7.35802 9.45474 7.40701 9.40573 7.456C9.30039 7.56126 9.19501 7.66648 9.0896 7.77166C8.93699 7.92395 8.78447 8.07633 8.63196 8.22872C8.38422 8.47629 8.13642 8.72381 7.88859 8.97129C7.87378 8.98608 7.85897 9.00087 7.84371 9.01611C7.72354 9.1361 7.60337 9.2561 7.4832 9.37609C7.37815 9.48099 7.27311 9.58588 7.16806 9.69078C7.15327 9.70555 7.13847 9.72032 7.12323 9.73554C6.87629 9.98214 6.62939 10.2288 6.38253 10.4755C6.23047 10.6274 6.07835 10.7793 5.92618 10.9312C5.82189 11.0353 5.71764 11.1394 5.61343 11.2435C5.55338 11.3036 5.4933 11.3636 5.43317 11.4235C5.36786 11.4886 5.30263 11.5538 5.23742 11.6191C5.2186 11.6378 5.19977 11.6565 5.18038 11.6758C5.07827 11.7781 4.98062 11.8829 4.88641 11.9926C4.84271 12.0431 4.79698 12.0912 4.74988 12.1386C4.72382 12.1649 4.72382 12.1649 4.69724 12.1917C4.67006 12.2189 4.67006 12.2189 4.64232 12.2467C4.61357 12.2756 4.61357 12.2756 4.58423 12.305C4.54402 12.3454 4.50377 12.3857 4.4635 12.426C4.40197 12.4875 4.34064 12.5493 4.27932 12.6111C4.24005 12.6505 4.20078 12.6898 4.16149 12.7291C4.14326 12.7475 4.12504 12.7659 4.10626 12.7849C3.87994 13.0102 3.87994 13.0102 3.7118 13.0143C3.69173 13.0153 3.67167 13.0164 3.651 13.0175C3.43486 12.964 3.26578 12.7441 3.11512 12.5921C3.09245 12.5697 3.06979 12.5472 3.04643 12.5241C3.02469 12.5022 3.00294 12.4804 2.98053 12.4579C2.96095 12.4383 2.94136 12.4187 2.92119 12.3984C2.81801 12.2822 2.76966 12.1857 2.77689 12.0302C2.79701 11.9411 2.83172 11.9037 2.89442 11.8378C2.91523 11.8157 2.93604 11.7936 2.95748 11.7709C2.9786 11.7491 2.99973 11.7274 3.02149 11.7051C3.04884 11.6768 3.04884 11.6768 3.07674 11.6479C3.1326 11.5908 3.18902 11.5343 3.24561 11.4779C3.26696 11.4565 3.2883 11.4351 3.3103 11.4131C3.36879 11.3546 3.42734 11.2961 3.48592 11.2377C3.54936 11.1743 3.61273 11.1109 3.67611 11.0475C3.78566 10.938 3.89527 10.8284 4.00491 10.719C4.16342 10.5606 4.32187 10.4023 4.48029 10.2439C4.73739 9.98683 4.99454 9.72985 5.25173 9.4729C5.50143 9.22344 5.7511 8.97395 6.00073 8.72442C6.02385 8.70131 6.02385 8.70131 6.04743 8.67774C6.12475 8.60045 6.20208 8.52316 6.2794 8.44587C6.91991 7.80562 7.56051 7.16546 8.20118 6.52537C8.16557 6.44485 8.12358 6.39068 8.06141 6.32865C8.04286 6.31 8.0243 6.29136 8.00519 6.27216C7.98472 6.25186 7.96426 6.23156 7.94317 6.21064C7.92149 6.18894 7.89982 6.16724 7.87748 6.14488C7.81728 6.08466 7.75697 6.02455 7.69661 5.96449C7.63154 5.8997 7.56662 5.83476 7.50168 5.76983C7.38914 5.65735 7.27651 5.54496 7.16381 5.43263C7.0008 5.27015 6.83795 5.10751 6.67513 4.94484C6.41089 4.68083 6.14654 4.41692 5.88211 4.15309C5.86629 4.13729 5.85046 4.1215 5.83415 4.10523C5.8183 4.08942 5.80245 4.0736 5.78613 4.05731C5.5614 3.83309 5.33671 3.60885 5.11204 3.38457C5.09623 3.36879 5.08042 3.35301 5.06413 3.33675C4.80076 3.07383 4.53743 2.81086 4.27413 2.54786C4.11165 2.38557 3.94912 2.22334 3.78651 2.06117C3.67516 1.95012 3.56386 1.83902 3.45258 1.72788C3.38833 1.66372 3.32406 1.59957 3.25973 1.53548C3.19008 1.46609 3.12053 1.3966 3.05098 1.3271C3.02028 1.29657 3.02028 1.29657 2.98897 1.26541C2.97041 1.24684 2.95186 1.22827 2.93274 1.20913C2.90863 1.18507 2.90863 1.18507 2.88403 1.16053C2.81107 1.08197 2.78425 1.02742 2.78028 0.921974C2.77832 0.891192 2.77832 0.891192 2.77631 0.859787C2.82606 0.642716 3.04911 0.472493 3.20081 0.322121C3.23452 0.288122 3.23452 0.288122 3.2689 0.253437C3.29071 0.231688 3.31253 0.209939 3.335 0.187531C3.36447 0.158156 3.36447 0.158156 3.39452 0.128189C3.49033 0.0431245 3.57256 -0.0111617 3.70228 -0.0143051Z" fill="#877272"/>
</g>
<defs>
<clipPath id="clip0_1286_996">
<rect width="13" height="13" fill="white"/>
</clipPath>
</defs>
</svg>
