<svg width="31" height="31" viewBox="0 0 31 31" fill="none" xmlns="http://www.w3.org/2000/svg">
<g clip-path="url(#clip0_943_133)">
<path d="M7.54736 10.0437C12.6073 10.0437 17.6672 10.0437 22.8805 10.0437C22.886 13.2337 22.886 13.2337 22.8916 16.4882C22.8933 17.1597 22.8949 17.8313 22.8966 18.5231C22.8974 19.3431 22.8974 19.3431 22.8975 19.727C22.8977 19.9951 22.8984 20.2632 22.8993 20.5313C22.9006 20.8735 22.9009 21.2156 22.9007 21.5578C22.9007 21.6832 22.9011 21.8087 22.9018 21.9342C22.9026 22.1039 22.9024 22.2737 22.9019 22.4434C22.9027 22.5167 22.9027 22.5167 22.9035 22.5914C22.9004 23.0024 22.8195 23.4005 22.5685 23.7351C22.1158 24.1672 21.5424 24.1374 20.9564 24.1325C20.8957 24.1322 20.8349 24.132 20.7723 24.1317C20.6232 24.131 20.4741 24.13 20.325 24.1288C20.3255 24.1862 20.326 24.2435 20.3266 24.3026C20.3314 24.8456 20.335 25.3885 20.3373 25.9314C20.3385 26.2105 20.3402 26.4895 20.3429 26.7686C20.3455 27.0383 20.3469 27.3081 20.3475 27.5778C20.348 27.6803 20.3488 27.7827 20.3501 27.8852C20.359 28.6159 20.3169 29.2538 19.8358 29.8469C19.4306 30.2558 18.9784 30.4448 18.4046 30.4508C18.0175 30.4447 17.7399 30.3974 17.4129 30.1907C17.3715 30.1655 17.3301 30.1403 17.2875 30.1144C16.8346 29.8087 16.59 29.4097 16.462 28.8833C16.4518 28.7198 16.4469 28.5628 16.4485 28.3996C16.4485 28.3532 16.4485 28.3067 16.4484 28.2589C16.4485 28.1068 16.4494 27.9547 16.4504 27.8026C16.4506 27.6966 16.4508 27.5906 16.4509 27.4846C16.4513 27.2066 16.4525 26.9287 16.4538 26.6507C16.4553 26.3167 16.4558 25.9826 16.4565 25.6485C16.4576 25.1419 16.4599 24.6354 16.462 24.1288C15.6383 24.1288 14.8146 24.1288 13.9659 24.1288C13.968 24.4665 13.97 24.8042 13.9722 25.1521C13.9731 25.3666 13.9739 25.5811 13.9746 25.7957C13.9757 26.1358 13.9769 26.4759 13.9793 26.8161C13.9813 27.0904 13.9823 27.3648 13.9828 27.6392C13.9831 27.7436 13.9838 27.8481 13.9847 27.9525C13.986 28.0993 13.9862 28.246 13.9861 28.3928C13.9868 28.4356 13.9874 28.4783 13.9881 28.5224C13.9849 29.0412 13.7668 29.5024 13.431 29.8936C12.9177 30.3326 12.4797 30.4571 11.8085 30.4473C11.5136 30.422 11.3033 30.3453 11.0538 30.1907C11.0168 30.1699 10.9798 30.1491 10.9416 30.1276C10.5315 29.8714 10.2884 29.4572 10.1409 29.0039C10.0541 28.5928 10.0815 28.1629 10.0855 27.7446C10.0858 27.6401 10.0861 27.5356 10.0862 27.4311C10.0869 27.1576 10.0887 26.8841 10.0906 26.6107C10.0925 26.331 10.0933 26.0513 10.0942 25.7716C10.0961 25.224 10.0991 24.6764 10.1029 24.1288C10.0661 24.1294 10.0293 24.13 9.99135 24.1307C9.82176 24.1332 9.65217 24.1347 9.48257 24.1362C9.42469 24.1372 9.36682 24.1382 9.30718 24.1392C8.79508 24.1427 8.30663 24.12 7.90394 23.7722C7.579 23.3522 7.5384 22.9891 7.54021 22.472C7.54016 22.419 7.54011 22.366 7.54006 22.3113C7.53996 22.1331 7.54029 21.9548 7.54061 21.7766C7.54063 21.6468 7.54062 21.5171 7.54059 21.3873C7.54058 21.0396 7.54092 20.6919 7.54134 20.3442C7.54168 20.018 7.54169 19.6918 7.54174 19.3656C7.54205 18.4114 7.54288 17.4573 7.54364 16.5031C7.54487 14.3715 7.54609 12.2399 7.54736 10.0437Z" fill="white"/>
<path d="M9.51278 -0.0260707C10.1765 -0.00608217 10.7091 0.780955 11.1363 1.23157C11.2335 1.33371 11.3317 1.43472 11.4301 1.53561C11.4596 1.5673 11.4891 1.59899 11.5194 1.63164C11.6127 1.73027 11.6127 1.73027 11.7674 1.84229C11.9262 1.84405 11.9262 1.84405 12.0646 1.78285C12.1218 1.76225 12.179 1.74164 12.238 1.72041C12.3021 1.69566 12.3663 1.67092 12.4323 1.64542C12.7693 1.52292 13.1037 1.42912 13.4538 1.35198C13.4975 1.3423 13.5413 1.33263 13.5864 1.32266C15.1081 0.999881 16.8643 1.10083 18.2872 1.76614C18.4901 1.84499 18.528 1.85513 18.7208 1.78285C18.8484 1.66907 18.9664 1.55516 19.0846 1.43231C19.1192 1.3972 19.1538 1.36209 19.1894 1.32591C19.2998 1.21368 19.4097 1.10088 19.5194 0.987967C19.629 0.87553 19.7388 0.763233 19.8489 0.651295C19.9173 0.581683 19.9854 0.511781 20.0533 0.44155C20.2969 0.193382 20.5243 -0.0246336 20.8901 -0.0297852C21.1137 -0.0234503 21.1515 -0.00493883 21.3358 0.144793C21.3946 0.220177 21.3946 0.220177 21.4547 0.297084C21.4743 0.316696 21.4939 0.336309 21.5141 0.356515C21.5574 0.581194 21.5713 0.802687 21.4441 1.00002C21.3959 1.05186 21.3959 1.05186 21.3467 1.10474C21.309 1.14553 21.2712 1.18632 21.2323 1.22835C20.9639 1.50528 20.6922 1.77873 20.4183 2.05029C20.3572 2.1111 20.2961 2.17193 20.2351 2.23276C20.0871 2.38011 19.9389 2.52727 19.7906 2.67432C19.9791 2.86388 20.1696 3.04719 20.37 3.22405C21.8705 4.5729 22.7349 6.36301 22.881 8.37967C22.881 8.53657 22.881 8.69347 22.881 8.85512C17.8211 8.85512 12.7611 8.85512 7.54785 8.85512C7.61693 7.54263 7.61693 7.54263 7.73729 7.08705C7.75036 7.03527 7.76343 6.98348 7.7769 6.93012C8.22244 5.23161 9.20896 3.75621 10.6383 2.73375C10.3201 2.34617 9.96591 1.99715 9.60936 1.64542C9.49056 1.5282 9.37196 1.41078 9.25347 1.29325C9.20127 1.24174 9.14908 1.19024 9.0953 1.13717C8.89637 0.928705 8.89182 0.770031 8.89317 0.490931C8.92713 0.279513 9.04855 0.186864 9.21191 0.0593611C9.30284 -0.0315645 9.38622 -0.018907 9.51278 -0.0260707ZM11.273 5.09914C11.1276 5.3609 11.0653 5.58243 11.1137 5.88358C11.2463 6.17702 11.4014 6.41321 11.708 6.53732C12.0037 6.61542 12.2121 6.59978 12.4887 6.48323C12.7277 6.34347 12.8686 6.14593 12.9561 5.88358C12.9906 5.53162 12.9258 5.27506 12.7183 4.99212C12.516 4.805 12.3074 4.73954 12.0349 4.72468C11.713 4.74223 11.4673 4.8341 11.273 5.09914ZM17.6321 5.09914C17.4865 5.36123 17.4289 5.58158 17.4728 5.88358C17.591 6.19847 17.7643 6.38296 18.0671 6.53732C18.365 6.62008 18.5733 6.59711 18.852 6.47905C19.0121 6.38803 19.0986 6.27536 19.1963 6.1213C19.2208 6.08453 19.2453 6.04776 19.2706 6.00987C19.3691 5.73078 19.3379 5.48513 19.2223 5.2187C19.0856 4.97252 18.9307 4.83906 18.6614 4.7544C18.2571 4.6857 17.8838 4.75571 17.6321 5.09914Z" fill="white"/>
<path d="M27.2784 10.5194C27.666 10.8661 27.8992 11.2763 27.954 11.7971C27.963 12.046 27.9643 12.2938 27.9629 12.5428C27.9632 12.6381 27.9636 12.7333 27.9641 12.8285C27.9652 13.0857 27.9648 13.3428 27.964 13.5999C27.9634 13.8698 27.964 14.1397 27.9644 14.4096C27.9648 14.8627 27.9642 15.3157 27.9631 15.7688C27.9618 16.2917 27.9622 16.8145 27.9635 17.3374C27.9646 17.7874 27.9647 18.2374 27.9641 18.6874C27.9638 18.9557 27.9637 19.224 27.9645 19.4923C27.9652 19.7446 27.9647 19.9968 27.9633 20.2491C27.963 20.3413 27.9631 20.4336 27.9636 20.5259C27.9662 21.0174 27.9545 21.4393 27.6944 21.8706C27.6672 21.9181 27.64 21.9655 27.612 22.0143C27.3062 22.4303 26.9043 22.7353 26.3869 22.8215C25.8 22.8709 25.3401 22.8196 24.8596 22.4657C24.4001 22.0773 24.168 21.6925 24.0691 21.098C24.0516 20.7993 24.0528 20.5007 24.0537 20.2015C24.0535 20.1109 24.0533 20.0204 24.0531 19.9299C24.0525 19.685 24.0527 19.4402 24.0531 19.1953C24.0534 18.9384 24.0531 18.6815 24.053 18.4246C24.0527 17.9932 24.053 17.5619 24.0536 17.1305C24.0542 16.6327 24.054 16.1349 24.0534 15.637C24.0528 15.2087 24.0528 14.7804 24.0531 14.3521C24.0533 14.0967 24.0533 13.8413 24.0529 13.5859C24.0525 13.3456 24.0528 13.1054 24.0535 12.8651C24.0536 12.7773 24.0536 12.6894 24.0533 12.6016C24.0512 11.8402 24.1049 11.2454 24.604 10.6382C24.8844 10.3906 25.1856 10.1854 25.5549 10.1033C25.6468 10.0813 25.6468 10.0813 25.7406 10.0588C26.3255 10.021 26.8155 10.1584 27.2784 10.5194Z" fill="white"/>
<path d="M5.74609 10.5934C6.31787 11.2734 6.37695 11.857 6.37529 12.728C6.37555 12.8184 6.37586 12.9087 6.37621 12.9991C6.37701 13.2432 6.37704 13.4873 6.37689 13.7314C6.37683 13.9358 6.37712 14.1402 6.3774 14.3446C6.37806 14.8271 6.37809 15.3096 6.37773 15.7921C6.37737 16.2886 6.3781 16.785 6.37937 17.2814C6.38042 17.7089 6.38077 18.1363 6.38058 18.5638C6.38047 18.8185 6.38062 19.0733 6.38145 19.328C6.38221 19.5678 6.38208 19.8075 6.38131 20.0472C6.38117 20.1347 6.38133 20.2222 6.38182 20.3097C6.38609 21.1247 6.29853 21.7258 5.72937 22.327C5.35343 22.6826 4.93433 22.8336 4.42004 22.8473C4.10085 22.8357 3.84665 22.7953 3.56572 22.643C3.52182 22.6198 3.47793 22.5966 3.4327 22.5727C2.95296 22.288 2.64795 21.8707 2.49597 21.3355C2.48068 21.1411 2.48068 21.1411 2.48007 20.9266C2.4798 20.8869 2.47954 20.8473 2.47926 20.8064C2.47851 20.6742 2.4786 20.542 2.4787 20.4098C2.47835 20.3147 2.47794 20.2195 2.47749 20.1244C2.47644 19.8666 2.47616 19.6087 2.47609 19.3508C2.476 19.1895 2.47575 19.0282 2.47543 18.8669C2.47433 18.3036 2.47385 17.7403 2.47394 17.1771C2.47401 16.6529 2.47276 16.1288 2.47088 15.6046C2.46932 15.1539 2.46869 14.7032 2.46877 14.2525C2.4688 13.9836 2.46846 13.7147 2.4672 13.4459C2.46604 13.1928 2.46604 12.9397 2.4669 12.6866C2.46703 12.5941 2.46675 12.5016 2.46603 12.4091C2.46074 11.6834 2.55299 11.1221 3.0659 10.5813C3.89277 9.8791 4.92741 9.908 5.74609 10.5934Z" fill="white"/>
</g>
<defs>
<clipPath id="clip0_943_133">
<rect width="30.4286" height="30.4286" fill="white"/>
</clipPath>
</defs>
</svg>
