<svg width="32" height="31" viewBox="0 0 32 31" fill="none" xmlns="http://www.w3.org/2000/svg">
<g clip-path="url(#clip0_943_138)">
<path d="M14.5646 7.95546C16.3141 8.56264 17.6385 8.26119 19.3364 7.64294C21.3077 6.93121 23.2457 6.87958 25.1757 7.74808C26.2213 8.24786 27.4837 9.11676 28.1445 10.1033C28.1445 10.1621 28.1445 10.2209 28.1445 10.2815C28.0209 10.3697 27.8999 10.4466 27.7693 10.523C27.3527 10.7778 27.0079 11.0678 26.6587 11.4107C26.6083 11.4601 26.5579 11.5096 26.506 11.5605C25.1974 12.8964 24.7861 14.5863 24.8041 16.4043C24.8404 18.078 25.5996 19.6342 26.7776 20.8008C26.8103 20.8356 26.843 20.8704 26.8767 20.9062C27.4788 21.5408 28.2665 21.8957 29.0359 22.2866C28.893 22.7603 28.691 23.1979 28.4751 23.6423C28.4567 23.6802 28.4384 23.7182 28.4195 23.7572C28.0879 24.4402 27.7239 25.095 27.3124 25.7336C27.2832 25.7792 27.254 25.8249 27.2238 25.872C26.8061 26.5209 26.3587 27.1443 25.8861 27.7542C25.8424 27.8114 25.7988 27.8685 25.7538 27.9274C24.8748 29.0434 23.6482 30.2674 22.1656 30.4474C21.0298 30.5135 20.1906 30.1908 19.1635 29.7513C18.6778 29.5465 18.2026 29.3986 17.6847 29.2994C17.631 29.2882 17.5774 29.277 17.5222 29.2655C16.21 29.0929 14.9701 29.3341 13.7622 29.8343C13.607 29.8975 13.4516 29.9604 13.2961 30.0231C13.1938 30.0644 13.0916 30.1061 12.9896 30.1483C12.1028 30.51 11.0393 30.6087 10.1277 30.2656C10.0719 30.241 10.0161 30.2163 9.95865 30.1909C9.89798 30.165 9.8373 30.1391 9.77479 30.1124C9.35012 29.9162 9.00182 29.6663 8.65118 29.3588C8.60023 29.3144 8.54929 29.27 8.4968 29.2242C5.30444 26.393 3.33584 21.7519 3.016 17.5463C2.86617 14.8632 3.22418 12.1168 5.02009 10.0041C5.19338 9.81148 5.37361 9.62859 5.56077 9.44952C5.60613 9.40294 5.65148 9.35636 5.69821 9.30837C6.81427 8.21826 8.26306 7.333 9.83979 7.13172C9.89579 7.12451 9.9518 7.11731 10.0095 7.10989C11.606 6.94727 13.0768 7.43629 14.5646 7.95546Z" fill="white"/>
<path d="M21.7846 -2.41627e-05C21.851 2.19865 21.268 3.978 19.7468 5.6069C18.6568 6.67484 17.2007 7.35139 15.6662 7.37172C15.626 7.37095 15.5858 7.37018 15.5444 7.3694C15.2878 5.76572 15.8021 4.21179 16.7218 2.90466C17.8098 1.40744 19.3179 0.491947 21.0956 0.0215659C21.3251 -0.0105783 21.5533 -0.00456019 21.7846 -2.41627e-05Z" fill="white"/>
</g>
<defs>
<clipPath id="clip0_943_138">
<rect width="30.4286" height="30.4286" fill="white" transform="translate(0.805664)"/>
</clipPath>
</defs>
</svg>
