<svg width="57" height="56" viewBox="0 0 57 56" fill="none" xmlns="http://www.w3.org/2000/svg">
<path d="M24.0623 24.0095C24.2219 24.0087 24.2219 24.0087 24.3847 24.0078C24.734 24.0064 25.0832 24.0068 25.4325 24.0074C25.6769 24.0071 25.9213 24.0067 26.1658 24.0062C26.6772 24.0055 27.1886 24.0058 27.7001 24.0068C28.3533 24.0078 29.0065 24.0064 29.6597 24.0041C30.1643 24.0027 30.6688 24.0028 31.1734 24.0033C31.4141 24.0034 31.6549 24.003 31.8956 24.002C34.3897 23.9938 34.3897 23.9938 35.1967 24.3617C35.7704 24.7009 35.9066 25.0073 35.9046 25.4579C35.9048 25.5053 35.905 25.5527 35.9053 25.6015C35.9059 25.7615 35.9058 25.9216 35.9056 26.0816C35.9059 26.197 35.9063 26.3124 35.9067 26.4278C35.9076 26.746 35.9078 27.0641 35.9079 27.3822C35.9081 27.7249 35.909 28.0676 35.9097 28.4103C35.9113 29.1601 35.912 29.9099 35.9125 30.6597C35.9128 31.1276 35.9133 31.5955 35.9138 32.0634C35.9152 33.3582 35.9164 34.653 35.9168 35.9477C35.9169 36.0721 35.9169 36.0721 35.9169 36.199C35.9169 36.2821 35.917 36.3652 35.917 36.4508C35.917 36.6192 35.9171 36.7876 35.9171 36.956C35.9172 37.0814 35.9172 37.0814 35.9172 37.2092C35.9177 38.5634 35.9197 39.9176 35.9224 41.2717C35.9251 42.6611 35.9265 44.0504 35.9267 45.4398C35.9268 46.2202 35.9275 47.0007 35.9295 47.7812C35.9313 48.4456 35.9319 49.1101 35.931 49.7746C35.9305 50.1138 35.9306 50.453 35.9322 50.7921C35.9337 51.1025 35.9336 51.4128 35.9322 51.7231C35.9319 51.8356 35.9323 51.948 35.9333 52.0604C35.9346 52.213 35.9337 52.3655 35.9323 52.5181C35.9332 52.562 35.9341 52.6058 35.935 52.651C35.9276 53.0238 35.7183 53.2678 35.2905 53.5508C34.5517 53.8947 33.8933 53.9945 32.9381 53.9905C32.8317 53.9911 32.7253 53.9916 32.6157 53.9922C32.2664 53.9936 31.9172 53.9932 31.5679 53.9926C31.3235 53.9929 31.0791 53.9933 30.8347 53.9938C30.3232 53.9945 29.8118 53.9942 29.3003 53.9932C28.6471 53.9922 27.994 53.9936 27.3407 53.9959C26.8362 53.9973 26.3316 53.9972 25.827 53.9967C25.5863 53.9966 25.3456 53.997 25.1048 53.998C22.6108 54.0062 22.6108 54.0062 21.8038 53.6383C21.23 53.2991 21.0938 52.9927 21.0959 52.5421C21.0956 52.4947 21.0954 52.4473 21.0951 52.3985C21.0945 52.2385 21.0947 52.0784 21.0948 51.9184C21.0945 51.803 21.0942 51.6876 21.0938 51.5722C21.0928 51.254 21.0926 50.9359 21.0926 50.6178C21.0923 50.2751 21.0915 49.9324 21.0907 49.5897C21.0891 48.8399 21.0884 48.0901 21.0879 47.3403C21.0876 46.8724 21.0871 46.4045 21.0866 45.9366C21.0852 44.6418 21.084 43.347 21.0836 42.0523C21.0836 41.9694 21.0835 41.8865 21.0835 41.801C21.0835 41.7179 21.0835 41.6348 21.0834 41.5492C21.0834 41.3808 21.0833 41.2124 21.0833 41.044C21.0833 40.9604 21.0832 40.8769 21.0832 40.7908C21.0828 39.4366 21.0807 38.0824 21.0781 36.7283C21.0753 35.3389 21.0739 33.9496 21.0737 32.5602C21.0736 31.7798 21.073 30.9993 21.0709 30.2188C21.0691 29.5544 21.0685 28.8899 21.0695 28.2254C21.0699 27.8862 21.0698 27.547 21.0682 27.2079C21.0667 26.8975 21.0668 26.5872 21.0683 26.2769C21.0685 26.1644 21.0681 26.052 21.0671 25.9396C21.0658 25.787 21.0667 25.6345 21.0681 25.4819C21.0672 25.438 21.0663 25.3942 21.0654 25.349C21.0728 24.9762 21.2821 24.7322 21.71 24.4492C22.4488 24.1053 23.1071 24.0055 24.0623 24.0095Z" fill="#20A2FF"/>
<path d="M41.9076 40.0052C42.0025 40.0049 42.0973 40.0046 42.195 40.0044C42.2981 40.0045 42.4012 40.0045 42.5075 40.0046C42.6168 40.0045 42.7261 40.0043 42.8388 40.0041C43.2004 40.0035 43.562 40.0036 43.9237 40.0036C44.1751 40.0035 44.4265 40.0033 44.6779 40.0031C45.2051 40.0029 45.7322 40.0029 46.2594 40.0031C46.9346 40.0033 47.6098 40.0026 48.2851 40.0017C48.8044 40.0012 49.3238 40.0011 49.8431 40.0013C50.092 40.0012 50.341 40.001 50.5899 40.0007C50.9382 40.0002 51.2865 40.0004 51.6348 40.0009C51.7887 40.0004 51.7887 40.0004 51.9458 40C52.6824 40.0021 53.153 40.0529 53.7301 40.2148C54.4835 40.515 54.5249 40.7681 54.5169 41.1491C54.5174 41.2017 54.5182 41.2542 54.5191 41.3068C54.521 41.4507 54.52 41.5946 54.5186 41.7385C54.5176 41.8939 54.5192 42.0493 54.5204 42.2047C54.5225 42.5089 54.522 42.8131 54.5207 43.1174C54.5197 43.3646 54.5195 43.6119 54.52 43.8592C54.5201 43.8944 54.5202 43.9296 54.5203 43.9659C54.5204 44.0374 54.5205 44.1089 54.5207 44.1805C54.522 44.851 54.5205 45.5216 54.518 46.1921C54.516 46.7673 54.5164 47.3425 54.5185 47.9177C54.5209 48.5859 54.5219 49.2541 54.5205 49.9222C54.5203 49.9935 54.5202 50.0648 54.52 50.136C54.5199 50.1886 54.5199 50.1886 54.5198 50.2423C54.5194 50.4892 54.5201 50.7362 54.5212 50.9831C54.5225 51.2841 54.5221 51.5851 54.5197 51.8861C54.5185 52.0396 54.518 52.1931 54.5195 52.3466C54.5209 52.4873 54.5201 52.6279 54.5177 52.7685C54.5169 52.8433 54.5184 52.9181 54.52 52.9929C54.5119 53.2981 54.4117 53.5123 53.802 53.7501C53.7382 53.7672 53.6744 53.7844 53.6087 53.8021C53.5134 53.8287 53.5134 53.8287 53.4162 53.8559C52.8102 53.989 52.2637 53.9914 51.5617 53.9912C51.4549 53.9914 51.3482 53.9917 51.2382 53.992C50.8857 53.9927 50.5332 53.9928 50.1807 53.9929C49.9352 53.9932 49.6896 53.9934 49.444 53.9937C48.9292 53.9942 48.4145 53.9943 47.8997 53.9943C47.2413 53.9943 46.5829 53.9953 45.9245 53.9966C45.4172 53.9975 44.9099 53.9976 44.4026 53.9976C44.1599 53.9977 43.9173 53.998 43.6746 53.9986C43.3345 53.9994 42.9946 53.9992 42.6545 53.9987C42.555 53.9991 42.4555 53.9996 42.353 54C41.5106 53.9971 40.9111 53.9194 40.3059 53.7203C39.6858 53.4103 39.6634 53.1384 39.6686 52.7738C39.6682 52.7217 39.6675 52.6697 39.6668 52.6176C39.6651 52.4751 39.6656 52.3326 39.6665 52.1901C39.667 52.0362 39.6656 51.8823 39.6644 51.7284C39.6624 51.4271 39.6623 51.1258 39.6629 50.8245C39.6634 50.5795 39.6632 50.3346 39.6626 50.0897C39.6625 50.0548 39.6625 50.0199 39.6624 49.984C39.6622 49.9131 39.662 49.8423 39.6618 49.7714C39.6603 49.1072 39.6609 48.4429 39.6622 47.7787C39.6633 47.1712 39.6619 46.5637 39.6591 45.9562C39.6563 45.3321 39.6552 44.7081 39.656 44.084C39.6564 43.7338 39.6561 43.3835 39.6541 43.0333C39.6525 42.7351 39.6524 42.437 39.6544 42.1389C39.6553 41.9868 39.6556 41.8347 39.6538 41.6827C39.6523 41.5434 39.6528 41.4041 39.655 41.2647C39.6556 41.1907 39.654 41.1167 39.6523 41.0427C39.6599 40.7443 39.7393 40.4758 40.3736 40.2508C40.8352 40.1098 41.2679 40.0058 41.9076 40.0052Z" fill="#20A2FF"/>
<path d="M4.73159 34.0406C4.87302 34.0395 4.87302 34.0395 5.01731 34.0384C5.12037 34.038 5.22343 34.0377 5.32961 34.0373C5.4929 34.0363 5.4929 34.0363 5.6595 34.0352C6.02032 34.0331 6.38114 34.0317 6.74197 34.0305C6.9269 34.0298 6.9269 34.0298 7.11557 34.0291C7.76828 34.0268 8.42099 34.0252 9.0737 34.024C9.74719 34.0226 10.4206 34.0188 11.0941 34.0145C11.6125 34.0116 12.1309 34.0106 12.6493 34.0102C12.8975 34.0096 13.1457 34.0083 13.3939 34.0063C13.7419 34.0036 14.0898 34.0036 14.4378 34.0042C14.5907 34.0021 14.5907 34.0021 14.7466 34C15.5452 34.0059 16.0823 34.1931 16.6621 34.5993C17.243 35.0769 17.3211 35.5718 17.3177 36.1918C17.3182 36.2608 17.3187 36.3298 17.3193 36.4009C17.3207 36.6314 17.3205 36.862 17.3203 37.0925C17.321 37.2581 17.3218 37.4236 17.3227 37.5892C17.3247 38.0386 17.3252 38.4879 17.3254 38.9373C17.3255 39.2182 17.326 39.4992 17.3266 39.7801C17.3287 40.7607 17.3297 41.7413 17.3295 42.7219C17.3293 43.6351 17.3317 44.5483 17.3354 45.4615C17.3383 46.2462 17.3396 47.0309 17.3394 47.8156C17.3394 48.2839 17.34 48.7523 17.3424 49.2206C17.3446 49.6614 17.3447 50.1021 17.343 50.5428C17.3428 50.7041 17.3433 50.8655 17.3447 51.0268C17.3593 52.8489 17.3593 52.8489 16.6304 53.4407C15.9455 53.9174 15.3003 53.9813 14.3925 53.9806C14.2858 53.9811 14.1792 53.9817 14.0693 53.9823C13.7171 53.9839 13.365 53.9842 13.0128 53.9844C12.7674 53.985 12.522 53.9855 12.2767 53.9861C11.7624 53.9871 11.2481 53.9875 10.7337 53.9874C10.0759 53.9873 9.41809 53.9896 8.76025 53.9926C8.25339 53.9945 7.74656 53.9948 7.2397 53.9947C6.99723 53.9949 6.75476 53.9957 6.5123 53.997C6.17253 53.9986 5.83289 53.9981 5.49312 53.9971C5.39371 53.9981 5.2943 53.999 5.19188 54C4.42212 53.9942 3.82433 53.8453 3.23673 53.4693C3.18579 53.4221 3.13485 53.3748 3.08237 53.3261C3.02966 53.279 2.97696 53.232 2.92265 53.1835C2.55855 52.7699 2.52079 52.3865 2.52284 51.903C2.52224 51.833 2.52164 51.7631 2.52103 51.691C2.51931 51.4567 2.51923 51.2224 2.51916 50.9881C2.51829 50.82 2.51732 50.652 2.51628 50.4839C2.51377 50.0273 2.51276 49.5708 2.51218 49.1143C2.51177 48.8289 2.51106 48.5435 2.51024 48.2581C2.50744 47.2622 2.50595 46.2662 2.50555 45.2702C2.50513 44.3425 2.50172 43.4149 2.49694 42.4872C2.49297 41.6903 2.49121 40.8934 2.49113 40.0964C2.49104 39.6207 2.49005 39.145 2.48679 38.6692C2.4838 38.2215 2.48355 37.7738 2.48538 37.326C2.48559 37.1621 2.48483 36.9981 2.483 36.8342C2.4657 35.1768 2.4657 35.1768 3.1252 34.5618C3.60106 34.2312 4.07589 34.0444 4.73159 34.0406Z" fill="#20A2FF"/>
<g clip-path="url(#clip0_943_127)">
<path d="M29.8353 0.63477C30.1357 0.851551 30.3033 1.13227 30.4632 1.45997C30.4826 1.49907 30.5021 1.53817 30.5221 1.57845C30.5841 1.70316 30.6455 1.82814 30.7068 1.95313C30.7473 2.03463 30.7877 2.11611 30.8282 2.19758C31.0409 2.62637 31.2494 3.05707 31.4552 3.48916C31.6468 3.89055 31.8421 4.29002 32.0397 4.68841C32.0811 4.77205 32.1223 4.85578 32.1633 4.93961C32.2237 5.06307 32.2848 5.18621 32.3459 5.3093C32.3641 5.34669 32.3822 5.38408 32.4009 5.4226C32.4183 5.45723 32.4357 5.49185 32.4536 5.52753C32.4685 5.55778 32.4834 5.58803 32.4988 5.6192C32.5977 5.76689 32.7009 5.84478 32.8715 5.89521C32.9418 5.90686 32.9418 5.90686 33.0135 5.91874C33.0403 5.92329 33.0671 5.92784 33.0947 5.93252C33.1881 5.94804 33.2817 5.96241 33.3753 5.97657C33.4104 5.98194 33.4456 5.98732 33.4818 5.99285C33.7286 6.03032 33.9757 6.06598 34.2228 6.10112C34.3628 6.12104 34.5028 6.14115 34.6428 6.1613C35.0402 6.21851 35.4378 6.27542 35.8353 6.33213C36.0797 6.36702 36.3241 6.40214 36.5684 6.4374C36.6609 6.4507 36.7534 6.4639 36.846 6.47701C36.9755 6.49537 37.105 6.51403 37.2344 6.53275C37.272 6.53799 37.3095 6.54323 37.3481 6.54862C37.8827 6.62682 38.3926 6.73178 38.7449 7.17591C39.0289 7.59974 39.0741 8.0619 38.9771 8.55561C38.8167 9.02651 38.31 9.40743 37.9658 9.75057C37.8845 9.83166 37.8034 9.91296 37.7223 9.99428C37.6698 10.0468 37.6172 10.0993 37.5646 10.1518C37.5408 10.1757 37.5171 10.1995 37.4926 10.2241C37.3735 10.3425 37.2524 10.4564 37.1254 10.5662C36.9715 10.6993 36.8275 10.8403 36.6846 10.9851C36.6589 11.011 36.6332 11.0368 36.6068 11.0634C36.5256 11.1451 36.4446 11.2268 36.3636 11.3086C36.2567 11.4165 36.1497 11.5244 36.0425 11.6321C36.0067 11.6684 36.0067 11.6684 35.9701 11.7055C35.8237 11.8527 35.6724 11.992 35.5149 12.1275C35.4194 12.2102 35.3283 12.2968 35.2381 12.3853C35.206 12.4163 35.1739 12.4474 35.1409 12.4794C34.9501 12.6987 34.9211 12.8803 34.9378 13.1641C34.9562 13.3168 34.9822 13.4678 35.0089 13.6192C35.0202 13.6855 35.0202 13.6855 35.0318 13.7531C35.0567 13.8983 35.082 14.0434 35.1073 14.1885C35.1248 14.2898 35.1422 14.3912 35.1596 14.4925C35.2007 14.7315 35.2421 14.9705 35.2836 15.2095C35.3444 15.5599 35.4047 15.9104 35.4651 16.2609C35.5085 16.5125 35.5519 16.7641 35.5955 17.0156C35.6035 17.0619 35.6115 17.1082 35.6198 17.1559C35.6347 17.242 35.6496 17.3281 35.6646 17.4142C35.7628 17.9818 35.8383 18.4629 35.5117 18.9705C35.2522 19.3319 34.9068 19.5329 34.4691 19.6094C33.9804 19.6702 33.5218 19.4236 33.1043 19.1992C33.0578 19.1746 33.0112 19.1501 32.9647 19.1256C32.6577 18.9633 32.3532 18.7964 32.0492 18.6286C31.663 18.4169 31.2702 18.218 30.8779 18.0179C30.4649 17.8072 30.0543 17.5938 29.6505 17.3658C29.2754 17.146 29.2754 17.146 28.8526 17.1216C28.6608 17.1809 28.4876 17.28 28.3118 17.3755C28.2686 17.3985 28.2254 17.4214 28.1808 17.4451C27.8799 17.6056 27.5811 17.7699 27.2824 17.9345C26.8788 18.1555 26.4687 18.3639 26.0591 18.5736C26.0007 18.6035 25.9423 18.6334 25.8839 18.6633C25.8556 18.6778 25.8274 18.6922 25.7983 18.7071C25.5798 18.8191 25.3623 18.9329 25.1453 19.0479C25.0634 19.0911 24.9815 19.1342 24.8995 19.1773C24.8449 19.206 24.7903 19.2348 24.7358 19.2636C24.2192 19.5353 23.8219 19.6868 23.2307 19.545C22.846 19.4131 22.5571 19.1205 22.3643 18.7686C22.2036 18.4124 22.2268 18.0509 22.2926 17.6749C22.2979 17.6431 22.3032 17.6114 22.3087 17.5787C22.3264 17.474 22.3444 17.3694 22.3624 17.2649C22.375 17.1906 22.3876 17.1164 22.4002 17.0422C22.4334 16.8462 22.4669 16.6503 22.5004 16.4544C22.5337 16.2603 22.5666 16.0661 22.5995 15.872C22.6255 15.7194 22.6514 15.5668 22.6774 15.4143C22.6838 15.3767 22.6901 15.3392 22.6967 15.3005C22.7578 14.9416 22.8191 14.5827 22.8826 14.2242C22.9049 14.0979 22.9271 13.9715 22.9492 13.8452C22.9643 13.7598 22.9797 13.6745 22.9951 13.5893C23.1032 13.0818 23.1032 13.0818 22.9577 12.6047C22.862 12.482 22.7547 12.3736 22.6429 12.2656C22.6201 12.2431 22.5974 12.2205 22.5739 12.1973C22.4569 12.0823 22.3372 11.9719 22.2127 11.8651C22.053 11.7258 21.903 11.579 21.7542 11.4282C21.7276 11.4015 21.7011 11.3748 21.6737 11.3473C21.5615 11.2345 21.4496 11.1214 21.3376 11.0084C21.2552 10.9253 21.1727 10.8423 21.0901 10.7593C21.0654 10.7342 21.0407 10.7091 21.0152 10.6833C20.8694 10.5367 20.7188 10.3988 20.5624 10.2637C20.3454 10.0728 20.1429 9.86552 19.9378 9.66209C19.8808 9.60579 19.8237 9.5497 19.7663 9.49382C19.6825 9.41212 19.5993 9.32979 19.5162 9.24729C19.4909 9.22282 19.4655 9.19835 19.4394 9.17314C19.1054 8.83758 18.9868 8.47781 18.9854 8.01233C18.9931 7.60741 19.133 7.28259 19.4167 6.99097C19.955 6.53806 20.7841 6.53239 21.453 6.43675C21.5934 6.41667 21.7339 6.39641 21.8743 6.37611C22.2226 6.32581 22.5709 6.27579 22.9192 6.22576C23.2148 6.18329 23.5105 6.1407 23.8061 6.09797C23.944 6.07808 24.0819 6.05836 24.2198 6.03864C24.3046 6.0264 24.3895 6.01415 24.4743 6.00189C24.5312 5.99382 24.5312 5.99382 24.5893 5.98559C24.6926 5.97056 24.7957 5.9545 24.8987 5.9375C24.9309 5.93226 24.9631 5.92702 24.9963 5.92162C25.184 5.88625 25.3104 5.84652 25.4456 5.70313C25.5008 5.61353 25.548 5.52844 25.5936 5.4343C25.6071 5.40752 25.6205 5.38075 25.6344 5.35317C25.6786 5.26471 25.7222 5.17593 25.7657 5.08713C25.7968 5.02468 25.8279 4.96225 25.859 4.89983C25.9411 4.73502 26.0226 4.56993 26.104 4.40479C26.1853 4.24013 26.2671 4.07577 26.3489 3.91137C26.6785 3.24829 27.004 2.58347 27.3206 1.91407C27.394 1.7591 27.4679 1.60442 27.5428 1.4502C27.5587 1.41621 27.5747 1.38222 27.5911 1.3472C27.7625 0.996974 28.0099 0.668491 28.3753 0.507817C28.8799 0.339384 29.3773 0.327879 29.8353 0.63477Z" fill="#20A2FF"/>
</g>
<defs>
<clipPath id="clip0_943_127">
<rect width="20" height="20" fill="white" transform="translate(19)"/>
</clipPath>
</defs>
</svg>
