<svg width="19" height="19" viewBox="0 0 19 19" fill="none" xmlns="http://www.w3.org/2000/svg">
<g clip-path="url(#clip0_935_44)">
<path d="M1.99794 2.80615C2.06535 2.80602 2.13276 2.80584 2.20016 2.80562C2.38478 2.80516 2.56938 2.80538 2.754 2.80573C2.95333 2.80598 3.15267 2.80559 3.352 2.80529C3.74226 2.80479 4.13252 2.8049 4.52277 2.80522C4.83997 2.80547 5.15716 2.80551 5.47436 2.80539C5.51951 2.80537 5.56467 2.80535 5.6112 2.80533C5.70294 2.8053 5.79468 2.80526 5.88643 2.80523C6.74652 2.80491 7.60662 2.80527 8.46672 2.80587C9.20459 2.80637 9.94246 2.80628 10.6803 2.80577C11.5374 2.80517 12.3944 2.80494 13.2514 2.80528C13.3428 2.80532 13.4342 2.80535 13.5256 2.80539C13.5706 2.8054 13.6156 2.80542 13.6619 2.80544C13.9787 2.80553 14.2955 2.80537 14.6123 2.80511C14.9984 2.8048 15.3845 2.80488 15.7705 2.80547C15.9675 2.80577 16.1645 2.80588 16.3614 2.80551C16.5418 2.80518 16.7222 2.80537 16.9025 2.80596C16.9677 2.80608 17.0329 2.80602 17.0981 2.80575C17.424 2.8045 17.7283 2.80518 18.0352 2.93161C17.9801 3.0469 17.9248 3.12461 17.8329 3.21399C17.7949 3.25145 17.7949 3.25145 17.756 3.28966C17.7163 3.32826 17.7163 3.32826 17.6757 3.36765C17.6236 3.41838 17.5717 3.46921 17.5198 3.52014C17.4853 3.55371 17.4853 3.55371 17.45 3.58795C17.3808 3.65967 17.316 3.73269 17.2512 3.80823C17.108 3.9722 16.9569 4.12674 16.803 4.28059C16.7733 4.31035 16.7437 4.3401 16.7132 4.37075C16.6146 4.46974 16.5159 4.56861 16.4172 4.66747C16.3462 4.73867 16.2752 4.8099 16.2043 4.88112C15.992 5.09412 15.7796 5.30694 15.5671 5.51975C15.4669 5.62009 15.3667 5.72046 15.2666 5.82082C14.9335 6.15453 14.6004 6.48819 14.2671 6.82171C14.1809 6.90804 14.0946 6.99436 14.0084 7.08069C13.9762 7.11287 13.9762 7.11287 13.9434 7.1457C13.5955 7.49393 13.2479 7.84248 12.9004 8.19115C12.5433 8.54947 12.1859 8.90752 11.8283 9.26528C11.6276 9.46603 11.4271 9.66691 11.2268 9.86809C11.0565 10.0392 10.8859 10.2101 10.715 10.3807C10.6278 10.4677 10.5408 10.5548 10.4541 10.6422C10.36 10.737 10.2655 10.8312 10.1708 10.9254C10.1435 10.9531 10.1162 10.9808 10.088 11.0094C9.88283 11.212 9.72827 11.2866 9.43404 11.2947C9.14426 11.2473 8.97786 11.0769 8.77913 10.8753C8.74864 10.845 8.71814 10.8146 8.68672 10.7834C8.60249 10.6994 8.5186 10.6151 8.43485 10.5307C8.3443 10.4396 8.25333 10.3489 8.16241 10.2582C7.98447 10.0805 7.80693 9.90239 7.62952 9.72416C7.42273 9.51646 7.21555 9.30916 7.00834 9.10189C6.63847 8.73188 6.26896 8.36153 5.89965 7.99098C5.54164 7.63177 5.18343 7.27277 4.82496 6.91401C4.8029 6.89193 4.78083 6.86984 4.7581 6.84709C4.66939 6.75832 4.58069 6.66954 4.49199 6.58077C4.14996 6.23846 3.80808 5.896 3.46623 5.55351C3.36309 5.45018 3.25994 5.34685 3.15678 5.24353C2.93986 5.02627 2.72299 4.80896 2.50629 4.59149C2.41671 4.5016 2.32711 4.41173 2.23742 4.32194C2.14002 4.22439 2.04273 4.12673 1.94547 4.02903C1.90334 3.98691 1.90334 3.98691 1.86036 3.94394C1.711 3.79364 1.56779 3.64015 1.43008 3.47909C1.3259 3.36025 1.2114 3.25218 1.09726 3.14296C1.0518 3.09857 1.00814 3.05234 0.964844 3.00583C0.964844 2.98134 0.964844 2.95685 0.964844 2.93161C1.30135 2.79297 1.64117 2.80467 1.99794 2.80615Z" fill="#B9B9B9"/>
<path d="M6.64258 10.2793C6.76701 10.3382 6.8478 10.402 6.94446 10.5009C6.97434 10.5313 7.00421 10.5616 7.035 10.5929C7.08306 10.6422 7.08306 10.6422 7.1321 10.6926C7.18318 10.7444 7.23426 10.7961 7.28537 10.8479C7.41094 10.9752 7.53612 11.1028 7.66107 11.2307C7.73117 11.3024 7.80148 11.3739 7.87201 11.4452C7.93817 11.5121 8.00404 11.5794 8.06954 11.647C8.47445 12.0552 8.90385 12.3122 9.48608 12.3296C10.2663 12.3199 10.7276 11.8421 11.2467 11.3194C11.2767 11.2894 11.3067 11.2594 11.3375 11.2285C11.4317 11.134 11.5258 11.0395 11.6199 10.9449C11.6843 10.8803 11.7488 10.8157 11.8132 10.7511C11.97 10.5939 12.1266 10.4366 12.2832 10.2793C12.4286 10.3383 12.5266 10.4382 12.6351 10.5478C12.6552 10.5678 12.6753 10.5878 12.696 10.6084C12.7633 10.6756 12.8304 10.7429 12.8974 10.8103C12.9456 10.8585 12.9939 10.9066 13.0421 10.9548C13.1732 11.0856 13.304 11.2167 13.4348 11.3479C13.5718 11.4852 13.709 11.6223 13.8461 11.7595C14.0766 11.99 14.307 12.2207 14.5373 12.4515C14.8031 12.7179 15.0691 12.9841 15.3352 13.2502C15.6188 13.5338 15.9023 13.8175 16.1857 14.1013C16.2672 14.1828 16.3487 14.2644 16.4302 14.3459C16.5587 14.4744 16.6871 14.603 16.8154 14.7317C16.8623 14.7788 16.9093 14.8258 16.9563 14.8728C17.387 15.3034 17.387 15.3034 17.5758 15.5268C17.6773 15.6442 17.7907 15.7498 17.9027 15.857C17.9482 15.9014 17.9919 15.9476 18.0352 15.9941C18.0352 16.0186 18.0352 16.0431 18.0352 16.0684C17.6986 16.207 17.3588 16.1953 17.0021 16.1938C16.9346 16.194 16.8672 16.1941 16.7998 16.1944C16.6152 16.1948 16.4306 16.1946 16.246 16.1942C16.0467 16.194 15.8473 16.1944 15.648 16.1947C15.2577 16.1952 14.8675 16.1951 14.4772 16.1947C14.16 16.1945 13.8428 16.1945 13.5256 16.1946C13.4805 16.1946 13.4353 16.1946 13.3888 16.1946C13.2971 16.1947 13.2053 16.1947 13.1136 16.1947C12.2535 16.1951 11.3934 16.1947 10.5333 16.1941C9.79541 16.1936 9.05754 16.1937 8.31968 16.1942C7.46264 16.1948 6.6056 16.195 5.74856 16.1947C5.65716 16.1947 5.56576 16.1946 5.47436 16.1946C5.42938 16.1946 5.38441 16.1946 5.33808 16.1945C5.0213 16.1944 4.70452 16.1946 4.38773 16.1949C4.00164 16.1952 3.61555 16.1951 3.22945 16.1945C3.03249 16.1942 2.83553 16.1941 2.63858 16.1945C2.4582 16.1948 2.27783 16.1946 2.09746 16.194C2.03228 16.1939 1.96711 16.194 1.90194 16.1942C1.57601 16.1955 1.27171 16.1948 0.964844 16.0684C1.01641 15.961 1.06505 15.8853 1.15083 15.8022C1.17285 15.7806 1.19488 15.759 1.21758 15.7367C1.24056 15.7145 1.26355 15.6923 1.28723 15.6694C1.41917 15.5413 1.54885 15.4138 1.66748 15.2731C1.86417 15.0472 2.07866 14.8383 2.2907 14.627C2.33827 14.5794 2.38584 14.5318 2.4334 14.4842C2.5618 14.3558 2.69031 14.2275 2.81885 14.0993C2.95343 13.9649 3.0879 13.8305 3.22239 13.696C3.47675 13.4418 3.7312 13.1876 3.98569 12.9335C4.27555 12.6441 4.5653 12.3545 4.85505 12.065C5.45077 11.4696 6.04663 10.8744 6.64258 10.2793Z" fill="#B9B9B9"/>
<path d="M0.148398 3.74805C0.303688 3.81937 0.409853 3.92516 0.528826 4.04533C0.551987 4.06843 0.575147 4.09153 0.59901 4.11532C0.676677 4.19287 0.754076 4.27067 0.831479 4.34848C0.887057 4.40408 0.942651 4.45966 0.99826 4.51523C1.1493 4.66625 1.30012 4.81751 1.45089 4.9688C1.60845 5.12682 1.76623 5.28464 1.92397 5.44247C2.22272 5.74145 2.52127 6.04061 2.81976 6.33985C3.15956 6.68048 3.49958 7.0209 3.83961 7.36131C4.53913 8.0616 5.23838 8.76216 5.93746 9.46289C5.87615 9.62072 5.75843 9.72647 5.64068 9.84332C5.61763 9.86648 5.59459 9.88964 5.57084 9.9135C5.49347 9.99117 5.41584 10.0686 5.3382 10.146C5.28272 10.2015 5.22726 10.2571 5.17181 10.3128C5.0211 10.4638 4.87015 10.6146 4.71915 10.7654C4.56138 10.923 4.40379 11.0807 4.24618 11.2385C3.98151 11.5033 3.71669 11.7679 3.45178 12.0325C3.14511 12.3387 2.8387 12.6453 2.53242 12.952C2.26978 13.2149 2.007 13.4778 1.7441 13.7405C1.58693 13.8975 1.42981 14.0546 1.27282 14.2119C1.12532 14.3596 0.977643 14.5071 0.829825 14.6545C0.775455 14.7088 0.72115 14.7631 0.666911 14.8175C0.593171 14.8914 0.519209 14.9652 0.445183 15.0388C0.423502 15.0607 0.401821 15.0825 0.379484 15.105C0.231089 15.252 0.231089 15.252 0.148398 15.252C0.0213733 14.9588 -0.0215129 14.7096 -0.0188884 14.3917C-0.01912 14.348 -0.0193515 14.3043 -0.0195901 14.2592C-0.0200765 14.1391 -0.0199058 14.019 -0.0194437 13.8988C-0.0191059 13.7688 -0.0196272 13.6388 -0.0200345 13.5087C-0.0206926 13.2545 -0.0205528 13.0002 -0.0201217 12.746C-0.0197857 12.5392 -0.0197413 12.3325 -0.0199025 12.1257C-0.0199253 12.0962 -0.019948 12.0667 -0.0199715 12.0364C-0.0200189 11.9764 -0.0200671 11.9165 -0.0201158 11.8566C-0.0205385 11.2955 -0.0200533 10.7344 -0.0192548 10.1734C-0.0185917 9.69251 -0.0187069 9.21166 -0.0193912 8.73081C-0.0201866 8.17166 -0.0204978 7.6125 -0.0200425 7.05335C-0.0199952 6.99366 -0.0199486 6.93397 -0.0199025 6.87428C-0.0198796 6.84492 -0.0198567 6.81555 -0.0198331 6.7853C-0.0197053 6.57894 -0.0199207 6.37258 -0.0202706 6.16621C-0.020688 5.91453 -0.0205719 5.66286 -0.0197836 5.41118C-0.019395 5.2829 -0.0192381 5.15464 -0.0197315 5.02637C-0.0201385 4.88701 -0.0196268 4.74768 -0.0188884 4.60833C-0.0192195 4.56821 -0.0195506 4.5281 -0.0198918 4.48676C-0.0171101 4.2152 0.0405319 3.99696 0.148398 3.74805Z" fill="#B9B9B9"/>
<path d="M18.8516 3.74805C18.9786 4.04117 19.0215 4.29036 19.0188 4.60833C19.0191 4.65203 19.0193 4.69574 19.0196 4.74077C19.02 4.86092 19.0199 4.98105 19.0194 5.1012C19.0191 5.23122 19.0196 5.36124 19.02 5.49127C19.0207 5.74553 19.0205 5.99978 19.0201 6.25404C19.0197 6.46079 19.0197 6.66753 19.0199 6.87428C19.0199 6.90377 19.0199 6.93326 19.0199 6.96364C19.02 7.02355 19.02 7.08347 19.0201 7.14339C19.0205 7.70447 19.02 8.26556 19.0192 8.82664C19.0186 9.30749 19.0187 9.78834 19.0194 10.2692C19.0201 10.8283 19.0205 11.3875 19.02 11.9467C19.02 12.0063 19.0199 12.066 19.0199 12.1257C19.0198 12.1698 19.0198 12.1698 19.0198 12.2147C19.0197 12.4211 19.0199 12.6274 19.0202 12.8338C19.0206 13.0855 19.0205 13.3371 19.0197 13.5888C19.0194 13.7171 19.0192 13.8454 19.0197 13.9736C19.0201 14.113 19.0196 14.2523 19.0188 14.3917C19.0192 14.4318 19.0195 14.4719 19.0199 14.5132C19.0171 14.7848 18.9594 15.003 18.8516 15.252C18.6963 15.1806 18.5901 15.0748 18.4711 14.9547C18.448 14.9316 18.4248 14.9085 18.401 14.8847C18.3233 14.8071 18.2459 14.7293 18.1685 14.6515C18.1129 14.5959 18.0573 14.5403 18.0017 14.4848C17.8507 14.3337 17.6998 14.1825 17.5491 14.0312C17.3915 13.8732 17.2337 13.7154 17.076 13.5575C16.7772 13.2585 16.4787 12.9594 16.1802 12.6602C15.8404 12.3195 15.5004 11.9791 15.1604 11.6387C14.4608 10.9384 13.7616 10.2378 13.0625 9.53711C13.1517 9.36945 13.2661 9.24884 13.3994 9.11652C13.4224 9.09348 13.4453 9.07044 13.4689 9.0467C13.5457 8.96966 13.6227 8.89289 13.6997 8.81611C13.7548 8.76089 13.8099 8.70566 13.865 8.65041C14.0145 8.50051 14.1643 8.35085 14.3142 8.20124C14.4708 8.04479 14.6273 7.88817 14.7837 7.73157C15.0464 7.46874 15.3093 7.20607 15.5722 6.94348C15.8766 6.63951 16.1807 6.33526 16.4847 6.03088C16.7455 5.76979 17.0063 5.50885 17.2674 5.24803C17.4234 5.09214 17.5793 4.9362 17.7352 4.78012C17.8815 4.63354 18.0281 4.48714 18.1748 4.34087C18.2287 4.28702 18.2826 4.23311 18.3364 4.17912C18.4096 4.10575 18.483 4.03261 18.5564 3.95953C18.5779 3.93785 18.5995 3.91618 18.6216 3.89384C18.7689 3.74805 18.7689 3.74805 18.8516 3.74805Z" fill="#B9B9B9"/>
</g>
<defs>
<clipPath id="clip0_935_44">
<rect width="19" height="19" fill="white"/>
</clipPath>
</defs>
</svg>
